<?xml version="1.0" encoding="utf-8" standalone="no"?>
<!DOCTYPE svg PUBLIC "-//W3C//DTD SVG 1.1//EN" "http://www.w3.org/Graphics/SVG/1.1/DTD/svg11.dtd">
<svg width="3600px" height="3600px" version="1.1" xmlns="http://www.w3.org/2000/svg" xmlns:xlink="http://www.w3.org/1999/xlink">
<g id="bg">
<rect x="0" y="0" width="3600px" height="3600px" style="fill:rgb(255,255,255);"/>
</g>
<g id="ideograms">
<path d="M1182.574,3186.762 A1518.000,1518.000 40.000 0,1 500.187,2584.098 L459.086,2608.891 A1566.000,1566.000 0.000 0,0 1163.050,3230.612 Z" style="stroke-width:5.0;stroke:rgb(255,255,255);stroke-linecap:round;fill:rgb(189,110,48);" />
<path d="M1182.574,3186.762 A1518.000,1518.000 40.000 0,1 500.187,2584.098 L459.086,2608.891 A1566.000,1566.000 0.000 0,0 1163.050,3230.612 Z" style="stroke-width:5.0;stroke:rgb(255,255,255);stroke-linecap:round;fill:none;" />
<path d="M448.657,2491.517 A1518.000,1518.000 40.000 0,1 329.034,2174.944 L282.521,2186.800 A1566.000,1566.000 0.000 0,0 405.927,2513.383 Z" style="stroke-width:5.0;stroke:rgb(255,255,255);stroke-linecap:round;fill:rgb(189,110,48);" />
<path d="M448.657,2491.517 A1518.000,1518.000 40.000 0,1 329.034,2174.944 L282.521,2186.800 A1566.000,1566.000 0.000 0,0 405.927,2513.383 Z" style="stroke-width:5.0;stroke:rgb(255,255,255);stroke-linecap:round;fill:none;" />
<path d="M306.463,2071.422 A1518.000,1518.000 40.000 0,1 292.678,1979.737 L245.016,1985.421 A1566.000,1566.000 0.000 0,0 259.236,2080.004 Z" style="stroke-width:5.0;stroke:rgb(255,255,255);stroke-linecap:round;fill:rgb(189,110,48);" />
<path d="M306.463,2071.422 A1518.000,1518.000 40.000 0,1 292.678,1979.737 L245.016,1985.421 A1566.000,1566.000 0.000 0,0 259.236,2080.004 Z" style="stroke-width:5.0;stroke:rgb(255,255,255);stroke-linecap:round;fill:none;" />
<path d="M283.812,1874.154 A1518.000,1518.000 40.000 0,1 282.113,1781.455 L234.117,1780.868 A1566.000,1566.000 0.000 0,0 235.870,1876.499 Z" style="stroke-width:5.0;stroke:rgb(255,255,255);stroke-linecap:round;fill:rgb(189,110,48);" />
<path d="M283.812,1874.154 A1518.000,1518.000 40.000 0,1 282.113,1781.455 L234.117,1780.868 A1566.000,1566.000 0.000 0,0 235.870,1876.499 Z" style="stroke-width:5.0;stroke:rgb(255,255,255);stroke-linecap:round;fill:none;" />
<path d="M287.104,1675.617 A1518.000,1518.000 40.000 0,1 293.315,1615.002 L245.673,1609.153 A1566.000,1566.000 0.000 0,0 239.266,1671.684 Z" style="stroke-width:5.0;stroke:rgb(255,255,255);stroke-linecap:round;fill:rgb(189,110,48);" />
<path d="M287.104,1675.617 A1518.000,1518.000 40.000 0,1 293.315,1615.002 L245.673,1609.153 A1566.000,1566.000 0.000 0,0 239.266,1671.684 Z" style="stroke-width:5.0;stroke:rgb(255,255,255);stroke-linecap:round;fill:none;" />
<path d="M309.890,1510.352 A1518.000,1518.000 40.000 0,1 322.714,1450.784 L276.002,1439.742 A1566.000,1566.000 0.000 0,0 262.772,1501.193 Z" style="stroke-width:5.0;stroke:rgb(255,255,255);stroke-linecap:round;fill:rgb(189,110,48);" />
<path d="M309.890,1510.352 A1518.000,1518.000 40.000 0,1 322.714,1450.784 L276.002,1439.742 A1566.000,1566.000 0.000 0,0 262.772,1501.193 Z" style="stroke-width:5.0;stroke:rgb(255,255,255);stroke-linecap:round;fill:none;" />
<path d="M385.693,1248.585 A1518.000,1518.000 40.000 0,1 597.304,873.800 L559.274,844.513 A1566.000,1566.000 0.000 0,0 340.972,1231.149 Z" style="stroke-width:5.0;stroke:rgb(255,255,255);stroke-linecap:round;fill:rgb(213,147,79);" />
<path d="M385.693,1248.585 A1518.000,1518.000 40.000 0,1 597.304,873.800 L559.274,844.513 A1566.000,1566.000 0.000 0,0 340.972,1231.149 Z" style="stroke-width:5.0;stroke:rgb(255,255,255);stroke-linecap:round;fill:none;" />
<path d="M664.843,792.160 A1518.000,1518.000 40.000 0,1 867.515,602.170 L838.029,564.294 A1566.000,1566.000 0.000 0,0 628.948,760.292 Z" style="stroke-width:5.0;stroke:rgb(255,255,255);stroke-linecap:round;fill:rgb(213,147,79);" />
<path d="M664.843,792.160 A1518.000,1518.000 40.000 0,1 867.515,602.170 L838.029,564.294 A1566.000,1566.000 0.000 0,0 628.948,760.292 Z" style="stroke-width:5.0;stroke:rgb(255,255,255);stroke-linecap:round;fill:none;" />
<path d="M1043.296,484.051 A1518.000,1518.000 40.000 0,1 1180.154,414.318 L1160.555,370.502 A1566.000,1566.000 0.000 0,0 1019.368,442.440 Z" style="stroke-width:5.0;stroke:rgb(255,255,255);stroke-linecap:round;fill:rgb(237,199,138);" />
<path d="M1043.296,484.051 A1518.000,1518.000 40.000 0,1 1180.154,414.318 L1160.555,370.502 A1566.000,1566.000 0.000 0,0 1019.368,442.440 Z" style="stroke-width:5.0;stroke:rgb(255,255,255);stroke-linecap:round;fill:none;" />
<path d="M1278.325,374.455 A1518.000,1518.000 40.000 0,1 1366.325,345.266 L1352.612,299.267 A1566.000,1566.000 0.000 0,0 1261.829,329.378 Z" style="stroke-width:5.0;stroke:rgb(255,255,255);stroke-linecap:round;fill:rgb(237,199,138);" />
<path d="M1278.325,374.455 A1518.000,1518.000 40.000 0,1 1366.325,345.266 L1352.612,299.267 A1566.000,1566.000 0.000 0,0 1261.829,329.378 Z" style="stroke-width:5.0;stroke:rgb(255,255,255);stroke-linecap:round;fill:none;" />
<path d="M1468.859,318.558 A1518.000,1518.000 40.000 0,1 1559.916,301.106 L1552.324,253.710 A1566.000,1566.000 0.000 0,0 1458.388,271.714 Z" style="stroke-width:5.0;stroke:rgb(255,255,255);stroke-linecap:round;fill:rgb(237,199,138);" />
<path d="M1468.859,318.558 A1518.000,1518.000 40.000 0,1 1559.916,301.106 L1552.324,253.710 A1566.000,1566.000 0.000 0,0 1458.388,271.714 Z" style="stroke-width:5.0;stroke:rgb(255,255,255);stroke-linecap:round;fill:none;" />
<path d="M1665.058,288.010 A1518.000,1518.000 40.000 0,1 1694.110,285.698 L1690.761,237.815 A1566.000,1566.000 0.000 0,0 1660.792,240.200 Z" style="stroke-width:5.0;stroke:rgb(255,255,255);stroke-linecap:round;fill:rgb(237,199,138);" />
<path d="M1665.058,288.010 A1518.000,1518.000 40.000 0,1 1694.110,285.698 L1690.761,237.815 A1566.000,1566.000 0.000 0,0 1660.792,240.200 Z" style="stroke-width:5.0;stroke:rgb(255,255,255);stroke-linecap:round;fill:none;" />
<path d="M2775.752,637.145 A1518.000,1518.000 40.000 0,1 3316.056,1723.200 L3363.995,1720.771 A1566.000,1566.000 0.000 0,0 2806.605,600.374 Z" style="stroke-width:5.0;stroke:rgb(255,255,255);stroke-linecap:round;fill:rgb(176,178,181);" />
<path d="M2775.752,637.145 A1518.000,1518.000 40.000 0,1 3316.056,1723.200 L3363.995,1720.771 A1566.000,1566.000 0.000 0,0 2806.605,600.374 Z" style="stroke-width:5.0;stroke:rgb(255,255,255);stroke-linecap:round;fill:none;" />
<path d="M3317.720,1829.142 A1518.000,1518.000 40.000 0,1 3220.004,2336.575 L3264.905,2353.542 A1566.000,1566.000 0.000 0,0 3365.711,1830.063 Z" style="stroke-width:5.0;stroke:rgb(255,255,255);stroke-linecap:round;fill:rgb(162,164,168);" />
<path d="M3317.720,1829.142 A1518.000,1518.000 40.000 0,1 3220.004,2336.575 L3264.905,2353.542 A1566.000,1566.000 0.000 0,0 3365.711,1830.063 Z" style="stroke-width:5.0;stroke:rgb(255,255,255);stroke-linecap:round;fill:none;" />
<path d="M3179.115,2434.322 A1518.000,1518.000 40.000 0,1 2811.796,2931.633 L2843.790,2967.415 A1566.000,1566.000 0.000 0,0 3222.724,2454.380 Z" style="stroke-width:5.0;stroke:rgb(255,255,255);stroke-linecap:round;fill:rgb(142,144,148);" />
<path d="M3179.115,2434.322 A1518.000,1518.000 40.000 0,1 2811.796,2931.633 L2843.790,2967.415 A1566.000,1566.000 0.000 0,0 3222.724,2454.380 Z" style="stroke-width:5.0;stroke:rgb(255,255,255);stroke-linecap:round;fill:none;" />
<path d="M2730.393,2999.455 A1518.000,1518.000 40.000 0,1 2646.657,3059.959 L2673.429,3099.799 A1566.000,1566.000 0.000 0,0 2759.812,3037.383 Z" style="stroke-width:5.0;stroke:rgb(255,255,255);stroke-linecap:round;fill:rgb(152,154,158);" />
<path d="M2730.393,2999.455 A1518.000,1518.000 40.000 0,1 2646.657,3059.959 L2673.429,3099.799 A1566.000,1566.000 0.000 0,0 2759.812,3037.383 Z" style="stroke-width:5.0;stroke:rgb(255,255,255);stroke-linecap:round;fill:none;" />
<path d="M2556.704,3115.949 A1518.000,1518.000 40.000 0,1 2465.447,3164.369 L2486.489,3207.511 A1566.000,1566.000 0.000 0,0 2580.632,3157.560 Z" style="stroke-width:5.0;stroke:rgb(255,255,255);stroke-linecap:round;fill:rgb(132,134,138);" />
<path d="M2556.704,3115.949 A1518.000,1518.000 40.000 0,1 2465.447,3164.369 L2486.489,3207.511 A1566.000,1566.000 0.000 0,0 2580.632,3157.560 Z" style="stroke-width:5.0;stroke:rgb(255,255,255);stroke-linecap:round;fill:none;" />
<path d="M2368.653,3207.465 A1518.000,1518.000 40.000 0,1 2319.187,3226.453 L2335.604,3271.559 A1566.000,1566.000 0.000 0,0 2386.634,3251.970 Z" style="stroke-width:5.0;stroke:rgb(255,255,255);stroke-linecap:round;fill:rgb(122,124,128);" />
<path d="M2368.653,3207.465 A1518.000,1518.000 40.000 0,1 2319.187,3226.453 L2335.604,3271.559 A1566.000,1566.000 0.000 0,0 2386.634,3251.970 Z" style="stroke-width:5.0;stroke:rgb(255,255,255);stroke-linecap:round;fill:none;" />
</g>
<g id="track_0">
<path d="M 991.812,2766.582 A 1259.940,1259.940 0.00 0,1 990.1,2765.2 L 990.1,2765.2 1024.2,2726.1 1060.7,2687.0 1099.6,2647.8 1140.5,2608.4 1183.3,2568.8 1227.9,2529.0 1274.1,2488.8 1321.7,2448.4 1370.6,2407.5 1420.7,2366.4 1471.7,2324.8 1523.6,2282.9 1576.2,2240.6 1629.4,2198.0 1683.1,2155.1 1737.2,2111.8 1791.5,2068.3 1846.0,2024.6 1900.6,1980.8 1955.2,1936.8 2009.7,1892.8 2064.0,1848.9 2118.0,1805.0 2171.8,1761.4 2225.2,1718.1 2278.2,1675.2 2330.7,1632.8 2382.7,1591.0 2434.2,1550.0 2485.1,1509.9 2535.4,1470.8 2585.1,1432.9 2634.1,1396.4 2682.6,1361.3 2730.4,1327.8 2777.6,1296.2 2824.1,1266.7 2870.1,1239.3 2915.5,1214.3  A 1259.940,1259.940 0.00 0,1 2916.6,1216.3 L 2916.6,1216.3 2871.1,1241.2 2825.1,1268.4 2778.5,1297.9 2731.3,1329.4 2683.5,1362.8 2635.0,1397.8 2585.9,1434.3 2536.2,1472.2 2485.9,1511.2 2435.0,1551.2 2383.5,1592.2 2331.5,1633.9 2278.9,1676.2 2225.9,1719.1 2172.5,1762.4 2118.8,1806.0 2064.7,1849.8 2010.4,1893.7 1955.9,1937.7 1901.3,1981.7 1846.8,2025.5 1792.3,2069.2 1737.9,2112.7 1683.9,2156.0 1630.2,2198.9 1577.1,2241.6 1524.5,2283.9 1472.6,2325.8 1421.7,2367.4 1371.7,2408.6 1322.8,2449.5 1275.3,2490.0 1229.2,2530.2 1184.6,2570.1 1141.8,2609.7 1101.0,2649.1 1062.3,2688.4 1025.8,2727.5 991.8,2766.6  Z" style="stroke-width: 0.0;  stroke: rgb(115,115,115); fill: rgb(189,110,48); opacity: 0.333;" />
<path d="M 990.126,2765.170 A 1259.940,1259.940 0.00 0,1 988.4,2763.8 L 988.4,2763.8 1022.6,2724.8 1059.2,2685.7 1098.1,2646.6 1139.1,2607.3 1182.0,2567.8 1226.7,2528.0 1272.9,2487.9 1320.6,2447.5 1369.6,2406.8 1419.7,2365.7 1470.8,2324.2 1522.7,2282.4 1575.4,2240.2 1628.7,2197.7 1682.5,2154.8 1736.6,2111.7 1791.0,2068.3 1845.6,2024.7 1900.3,1980.9 1955.0,1937.1 2009.5,1893.2 2063.9,1849.3 2118.0,1805.6 2171.9,1762.1 2225.3,1718.8 2278.4,1676.0 2331.0,1633.7 2383.1,1592.1 2434.6,1551.1 2485.6,1511.1 2535.9,1472.1 2585.7,1434.3 2634.8,1397.8 2683.3,1362.8 2731.2,1329.5 2778.4,1298.0 2825.1,1268.5 2871.1,1241.2 2916.6,1216.3  A 1259.940,1259.940 0.00 0,1 2917.6,1218.2 L 2917.6,1218.2 2872.1,1243.0 2826.1,1270.2 2779.4,1299.6 2732.1,1331.1 2684.2,1364.3 2635.7,1399.3 2586.6,1435.7 2536.8,1473.4 2486.4,1512.4 2435.4,1552.3 2383.8,1593.2 2331.7,1634.8 2279.1,1677.1 2226.1,1719.9 2172.6,1763.0 2118.8,1806.5 2064.6,1850.3 2010.2,1894.1 1955.7,1938.0 1901.0,1981.8 1846.4,2025.6 1791.8,2069.2 1737.4,2112.6 1683.3,2155.8 1629.5,2198.6 1576.3,2241.2 1523.6,2283.4 1471.7,2325.2 1420.7,2366.7 1370.6,2407.9 1321.7,2448.6 1274.1,2489.1 1227.9,2529.2 1183.3,2569.0 1140.4,2608.5 1099.5,2647.9 1060.7,2687.1 1024.2,2726.1 990.1,2765.2  Z" style="stroke-width: 0.0;  stroke: rgb(115,115,115); fill: rgb(189,110,48); opacity: 0.333;" />
<path d="M 988.443,2763.755 A 1259.940,1259.940 0.00 0,1 986.8,2762.3 L 986.8,2762.3 1021.0,2723.4 1057.6,2684.4 1096.6,2645.4 1137.7,2606.1 1180.6,2566.7 1225.4,2527.0 1271.7,2487.0 1319.5,2446.7 1368.5,2406.0 1418.7,2365.0 1469.9,2323.7 1521.9,2281.9 1574.7,2239.8 1628.0,2197.4 1681.9,2154.6 1736.1,2111.6 1790.6,2068.3 1845.2,2024.8 1900.0,1981.1 1954.7,1937.4 2009.3,1893.6 2063.8,1849.8 2118.0,1806.2 2171.9,1762.7 2225.5,1719.6 2278.6,1676.9 2331.3,1634.7 2383.4,1593.1 2435.0,1552.3 2486.1,1512.3 2536.5,1473.4 2586.3,1435.7 2635.5,1399.3 2684.1,1364.4 2732.0,1331.1 2779.3,1299.7 2826.0,1270.2 2872.1,1243.0 2917.6,1218.2  A 1259.940,1259.940 0.00 0,1 2918.6,1220.2 L 2918.6,1220.2 2873.1,1244.9 2827.0,1272.0 2780.3,1301.3 2733.0,1332.7 2685.0,1365.9 2636.4,1400.7 2587.2,1437.1 2537.4,1474.7 2486.9,1513.6 2435.8,1553.4 2384.2,1594.2 2332.0,1635.7 2279.4,1677.9 2226.2,1720.6 2172.7,1763.7 2118.7,1807.1 2064.5,1850.7 2010.1,1894.5 1955.4,1938.3 1900.7,1982.0 1846.0,2025.7 1791.3,2069.2 1736.9,2112.5 1682.7,2155.6 1628.8,2198.3 1575.5,2240.8 1522.8,2282.9 1470.8,2324.7 1419.7,2366.1 1369.6,2407.1 1320.6,2447.8 1272.9,2488.1 1226.6,2528.2 1181.9,2567.9 1139.0,2607.4 1098.0,2646.7 1059.2,2685.8 1022.6,2724.8 988.4,2763.8  Z" style="stroke-width: 0.0;  stroke: rgb(115,115,115); fill: rgb(189,110,48); opacity: 0.333;" />
<path d="M 986.762,2762.337 A 1259.940,1259.940 0.00 0,1 985.1,2760.9 L 985.1,2760.9 1019.4,2722.0 1056.1,2683.1 1095.1,2644.1 1136.3,2605.0 1179.3,2565.6 1224.1,2526.0 1270.5,2486.1 1318.4,2445.9 1367.5,2405.3 1417.7,2364.4 1469.0,2323.1 1521.1,2281.4 1573.9,2239.4 1627.3,2197.1 1681.2,2154.4 1735.5,2111.5 1790.1,2068.3 1844.9,2024.9 1899.7,1981.3 1954.5,1937.6 2009.2,1893.9 2063.7,1850.3 2118.0,1806.7 2172.0,1763.4 2225.6,1720.3 2278.8,1677.7 2331.6,1635.6 2383.8,1594.1 2435.5,1553.4 2486.6,1513.5 2537.1,1474.7 2587.0,1437.0 2636.2,1400.7 2684.9,1365.9 2732.8,1332.7 2780.2,1301.4 2826.9,1272.0 2873.1,1244.9 2918.6,1220.2  A 1259.940,1259.940 0.00 0,1 2919.6,1222.1 L 2919.6,1222.1 2874.0,1246.8 2827.9,1273.8 2781.1,1303.1 2733.8,1334.3 2685.8,1367.4 2637.1,1402.2 2587.8,1438.4 2537.9,1476.0 2487.4,1514.8 2436.3,1554.6 2384.6,1595.2 2332.3,1636.7 2279.6,1678.7 2226.4,1721.3 2172.7,1764.3 2118.7,1807.7 2064.4,1851.2 2009.9,1894.8 1955.2,1938.5 1900.4,1982.2 1845.6,2025.8 1790.9,2069.2 1736.3,2112.4 1682.0,2155.4 1628.1,2198.0 1574.7,2240.4 1522.0,2282.4 1469.9,2324.1 1418.7,2365.4 1368.5,2406.4 1319.4,2447.0 1271.7,2487.2 1225.3,2527.2 1180.6,2566.8 1137.6,2606.2 1096.6,2645.4 1057.6,2684.5 1020.9,2723.4 986.8,2762.3  Z" style="stroke-width: 0.0;  stroke: rgb(115,115,115); fill: rgb(189,110,48); opacity: 0.333;" />
<path d="M 985.084,2760.916 A 1259.940,1259.940 0.00 0,1 983.4,2759.5 L 983.4,2759.5 1017.7,2720.7 1054.6,2681.8 1093.7,2642.9 1134.8,2603.8 1178.0,2564.5 1222.9,2525.0 1269.3,2485.2 1317.2,2445.0 1366.4,2404.5 1416.7,2363.7 1468.0,2322.5 1520.2,2281.0 1573.1,2239.0 1626.6,2196.8 1680.6,2154.2 1735.0,2111.4 1789.6,2068.3 1844.5,2024.9 1899.4,1981.5 1954.2,1937.9 2009.0,1894.3 2063.6,1850.7 2118.0,1807.3 2172.1,1764.0 2225.8,1721.1 2279.0,1678.5 2331.8,1636.5 2384.1,1595.1 2435.9,1554.5 2487.1,1514.7 2537.7,1476.0 2587.6,1438.4 2636.9,1402.2 2685.6,1367.4 2733.7,1334.3 2781.1,1303.1 2827.8,1273.8 2874.0,1246.8 2919.6,1222.1  A 1259.940,1259.940 0.00 0,1 2920.6,1224.1 L 2920.6,1224.1 2875.0,1248.6 2828.8,1275.6 2782.0,1304.8 2734.6,1336.0 2686.5,1369.0 2637.8,1403.6 2588.5,1439.8 2538.5,1477.3 2487.9,1516.0 2436.7,1555.7 2384.9,1596.3 2332.6,1637.6 2279.8,1679.6 2226.5,1722.1 2172.8,1765.0 2118.7,1808.2 2064.3,1851.6 2009.7,1895.2 1954.9,1938.8 1900.1,1982.4 1845.2,2025.8 1790.4,2069.2 1735.8,2112.3 1681.4,2155.1 1627.5,2197.7 1574.0,2240.0 1521.1,2281.9 1469.0,2323.5 1417.7,2364.7 1367.4,2405.6 1318.3,2446.1 1270.5,2486.3 1224.1,2526.2 1179.3,2565.8 1136.2,2605.1 1095.1,2644.2 1056.1,2683.2 1019.3,2722.1 985.1,2760.9  Z" style="stroke-width: 0.0;  stroke: rgb(115,115,115); fill: rgb(189,110,48); opacity: 0.333;" />
<path d="M 983.408,2759.493 A 1259.940,1259.940 0.00 0,1 981.7,2758.1 L 981.7,2758.1 1016.1,2719.3 1053.0,2680.5 1092.2,2641.7 1133.4,2602.7 1176.6,2563.4 1221.6,2524.0 1268.1,2484.2 1316.1,2444.2 1365.4,2403.8 1415.7,2363.0 1467.1,2321.9 1519.4,2280.5 1572.4,2238.6 1625.9,2196.5 1680.0,2154.0 1734.5,2111.3 1789.2,2068.2 1844.1,2025.0 1899.0,1981.6 1954.0,1938.2 2008.9,1894.7 2063.5,1851.2 2118.0,1807.8 2172.1,1764.7 2225.9,1721.8 2279.3,1679.4 2332.1,1637.4 2384.5,1596.1 2436.3,1555.6 2487.6,1515.9 2538.2,1477.3 2588.2,1439.8 2637.6,1403.7 2686.4,1369.0 2734.5,1336.0 2781.9,1304.8 2828.8,1275.6 2875.0,1248.7 2920.6,1224.1  A 1259.940,1259.940 0.00 0,1 2921.6,1226.0 L 2921.6,1226.0 2876.0,1250.5 2829.7,1277.4 2782.9,1306.5 2735.4,1337.6 2687.3,1370.5 2638.5,1405.1 2589.1,1441.2 2539.0,1478.6 2488.4,1517.2 2437.1,1556.8 2385.3,1597.3 2332.9,1638.5 2280.0,1680.4 2226.6,1722.8 2172.8,1765.7 2118.7,1808.8 2064.2,1852.1 2009.6,1895.6 1954.7,1939.1 1899.8,1982.5 1844.8,2025.9 1789.9,2069.1 1735.2,2112.2 1680.8,2154.9 1626.8,2197.4 1573.2,2239.6 1520.3,2281.4 1468.1,2322.9 1416.7,2364.1 1366.4,2404.9 1317.2,2445.3 1269.3,2485.4 1222.8,2525.2 1177.9,2564.7 1134.8,2603.9 1093.6,2643.0 1054.5,2681.9 1017.7,2720.7 983.4,2759.5  Z" style="stroke-width: 0.0;  stroke: rgb(115,115,115); fill: rgb(189,110,48); opacity: 0.333;" />
<path d="M 981.734,2758.066 A 1259.940,1259.940 0.00 0,1 980.1,2756.6 L 980.1,2756.6 1014.5,2717.9 1051.5,2679.2 1090.7,2640.4 1132.0,2601.5 1175.3,2562.3 1220.3,2523.0 1266.9,2483.3 1315.0,2443.3 1364.3,2403.0 1414.8,2362.4 1466.2,2321.3 1518.5,2280.0 1571.6,2238.2 1625.2,2196.2 1679.4,2153.8 1733.9,2111.1 1788.7,2068.2 1843.7,2025.1 1898.7,1981.8 1953.7,1938.4 2008.7,1895.0 2063.5,1851.6 2118.0,1808.4 2172.2,1765.3 2226.0,1722.6 2279.5,1680.2 2332.4,1638.4 2384.9,1597.2 2436.8,1556.7 2488.1,1517.1 2538.8,1478.6 2588.9,1441.2 2638.3,1405.1 2687.1,1370.5 2735.3,1337.6 2782.8,1306.5 2829.7,1277.4 2875.9,1250.5 2921.6,1226.0  A 1259.940,1259.940 0.00 0,1 2922.6,1228.0 L 2922.6,1228.0 2876.9,1252.4 2830.6,1279.2 2783.7,1308.2 2736.2,1339.2 2688.0,1372.1 2639.2,1406.6 2589.7,1442.6 2539.6,1479.9 2488.9,1518.4 2437.5,1557.9 2385.6,1598.3 2333.2,1639.5 2280.2,1681.3 2226.8,1723.6 2172.9,1766.3 2118.7,1809.3 2064.2,1852.6 2009.4,1895.9 1954.5,1939.3 1899.4,1982.7 1844.4,2026.0 1789.5,2069.1 1734.7,2112.1 1680.2,2154.7 1626.1,2197.1 1572.4,2239.2 1519.4,2281.0 1467.2,2322.4 1415.7,2363.4 1365.3,2404.1 1316.1,2444.4 1268.1,2484.5 1221.5,2524.2 1176.6,2563.6 1133.4,2602.8 1092.1,2641.7 1053.0,2680.6 1016.1,2719.3 981.7,2758.1  Z" style="stroke-width: 0.0;  stroke: rgb(115,115,115); fill: rgb(189,110,48); opacity: 0.333;" />
<path d="M 980.064,2756.636 A 1259.940,1259.940 0.00 0,1 978.4,2755.2 L 978.4,2755.2 1012.9,2716.6 1050.0,2677.9 1089.2,2639.2 1130.6,2600.3 1174.0,2561.3 1219.1,2522.0 1265.7,2482.4 1313.9,2442.5 1363.3,2402.3 1413.8,2361.7 1465.3,2320.8 1517.7,2279.5 1570.8,2237.8 1624.6,2195.9 1678.8,2153.6 1733.4,2111.0 1788.2,2068.2 1843.3,2025.2 1898.4,1982.0 1953.5,1938.7 2008.5,1895.4 2063.4,1852.1 2118.0,1808.9 2172.2,1766.0 2226.2,1723.3 2279.7,1681.0 2332.7,1639.3 2385.2,1598.2 2437.2,1557.8 2488.6,1518.3 2539.3,1479.8 2589.5,1442.6 2639.0,1406.6 2687.9,1372.1 2736.1,1339.2 2783.7,1308.2 2830.6,1279.2 2876.9,1252.4 2922.6,1228.0  A 1259.940,1259.940 0.00 0,1 2923.6,1230.0 L 2923.6,1230.0 2877.9,1254.3 2831.5,1281.0 2784.6,1309.9 2737.0,1340.9 2688.8,1373.6 2639.9,1408.0 2590.3,1443.9 2540.2,1481.2 2489.4,1519.6 2438.0,1559.0 2386.0,1599.3 2333.4,1640.4 2280.4,1682.1 2226.9,1724.3 2173.0,1767.0 2118.7,1809.9 2064.1,1853.0 2009.2,1896.3 1954.2,1939.6 1899.1,1982.9 1844.0,2026.1 1789.0,2069.1 1734.1,2111.9 1679.6,2154.5 1625.4,2196.8 1571.7,2238.8 1518.6,2280.5 1466.2,2321.8 1414.8,2362.7 1364.3,2403.3 1314.9,2443.6 1266.9,2483.5 1220.3,2523.1 1175.3,2562.5 1132.0,2601.6 1090.7,2640.5 1051.5,2679.3 1014.5,2718.0 980.1,2756.6  Z" style="stroke-width: 0.0;  stroke: rgb(115,115,115); fill: rgb(189,110,48); opacity: 0.333;" />
<path d="M 978.395,2755.204 A 1259.940,1259.940 0.00 0,1 976.7,2753.8 L 976.7,2753.8 1011.3,2715.2 1048.4,2676.6 1087.8,2638.0 1129.3,2599.2 1172.6,2560.2 1217.8,2520.9 1264.6,2481.4 1312.7,2441.6 1362.2,2401.5 1412.8,2361.0 1464.4,2320.2 1516.9,2279.0 1570.1,2237.4 1623.9,2195.6 1678.2,2153.4 1732.8,2110.9 1787.8,2068.2 1842.9,2025.3 1898.1,1982.2 1953.3,1939.0 2008.4,1895.7 2063.3,1852.6 2117.9,1809.5 2172.3,1766.6 2226.3,1724.0 2279.9,1681.9 2333.0,1640.2 2385.6,1599.2 2437.6,1558.9 2489.1,1519.5 2539.9,1481.1 2590.1,1443.9 2639.7,1408.0 2688.6,1373.6 2736.9,1340.9 2784.5,1309.9 2831.5,1281.0 2877.9,1254.3 2923.6,1230.0  A 1259.940,1259.940 0.00 0,1 2924.6,1231.9 L 2924.6,1231.9 2878.8,1256.2 2832.5,1282.8 2785.4,1311.6 2737.8,1342.5 2689.5,1375.2 2640.6,1409.5 2591.0,1445.3 2540.7,1482.5 2489.9,1520.8 2438.4,1560.1 2386.3,1600.3 2333.7,1641.3 2280.6,1682.9 2227.0,1725.1 2173.0,1767.6 2118.6,1810.4 2064.0,1853.5 2009.1,1896.7 1954.0,1939.9 1898.8,1983.1 1843.6,2026.2 1788.5,2069.1 1733.6,2111.8 1678.9,2154.3 1624.7,2196.5 1570.9,2238.4 1517.8,2280.0 1465.3,2321.2 1413.8,2362.1 1363.2,2402.6 1313.8,2442.7 1265.7,2482.6 1219.0,2522.1 1173.9,2561.4 1130.6,2600.4 1089.2,2639.3 1049.9,2678.0 1012.9,2716.6 978.4,2755.2  Z" style="stroke-width: 0.0;  stroke: rgb(115,115,115); fill: rgb(189,110,48); opacity: 0.333;" />
<path d="M 976.729,2753.768 A 1259.940,1259.940 0.00 0,1 975.1,2752.3 L 975.1,2752.3 1009.7,2713.8 1046.9,2675.3 1086.3,2636.7 1127.9,2598.0 1171.3,2559.1 1216.5,2519.9 1263.4,2480.5 1311.6,2440.8 1361.2,2400.7 1411.8,2360.3 1463.5,2319.6 1516.0,2278.5 1569.3,2237.0 1623.2,2195.3 1677.5,2153.2 1732.3,2110.8 1787.3,2068.2 1842.5,2025.3 1897.8,1982.3 1953.0,1939.2 2008.2,1896.1 2063.2,1853.0 2117.9,1810.0 2172.4,1767.3 2226.4,1724.8 2280.1,1682.7 2333.3,1641.2 2385.9,1600.2 2438.0,1560.0 2489.5,1520.7 2540.5,1482.4 2590.7,1445.3 2640.4,1409.5 2689.4,1375.2 2737.7,1342.5 2785.4,1311.7 2832.4,1282.8 2878.8,1256.2 2924.6,1231.9  A 1259.940,1259.940 0.00 0,1 2925.6,1233.9 L 2925.6,1233.9 2879.8,1258.0 2833.4,1284.6 2786.3,1313.4 2738.6,1344.1 2690.2,1376.7 2641.2,1411.0 2591.6,1446.7 2541.3,1483.8 2490.3,1522.0 2438.8,1561.2 2386.7,1601.4 2334.0,1642.3 2280.8,1683.8 2227.2,1725.8 2173.1,1768.3 2118.6,1811.0 2063.9,1854.0 2008.9,1897.0 1953.7,1940.1 1898.5,1983.2 1843.2,2026.2 1788.0,2069.1 1733.0,2111.7 1678.3,2154.1 1624.0,2196.2 1570.1,2238.0 1516.9,2279.5 1464.4,2320.6 1412.8,2361.4 1362.2,2401.8 1312.7,2441.9 1264.5,2481.7 1217.8,2521.1 1172.6,2560.3 1129.2,2599.3 1087.7,2638.0 1048.4,2676.7 1011.3,2715.2 976.7,2753.8  Z" style="stroke-width: 0.0;  stroke: rgb(115,115,115); fill: rgb(189,110,48); opacity: 0.333;" />
<path d="M 975.066,2752.330 A 1259.940,1259.940 0.00 0,1 973.4,2750.9 L 973.4,2750.9 1008.1,2712.4 1045.4,2674.0 1084.9,2635.5 1126.5,2596.8 1170.0,2558.0 1215.3,2518.9 1262.2,2479.6 1310.5,2439.9 1360.1,2400.0 1410.8,2359.7 1462.6,2319.0 1515.2,2278.0 1568.5,2236.6 1622.5,2195.0 1676.9,2153.0 1731.7,2110.7 1786.8,2068.1 1842.1,2025.4 1897.4,1982.5 1952.8,1939.5 2008.0,1896.5 2063.1,1853.5 2117.9,1810.6 2172.4,1767.9 2226.6,1725.5 2280.3,1683.6 2333.5,1642.1 2386.3,1601.2 2438.4,1561.1 2490.0,1521.9 2541.0,1483.7 2591.3,1446.7 2641.0,1411.0 2690.1,1376.7 2738.5,1344.1 2786.2,1313.4 2833.3,1284.6 2879.8,1258.1 2925.6,1233.9  A 1259.940,1259.940 0.00 0,1 2926.6,1235.9 L 2926.6,1235.9 2880.7,1259.9 2834.3,1286.4 2787.1,1315.1 2739.4,1345.8 2691.0,1378.3 2641.9,1412.4 2592.2,1448.1 2541.8,1485.0 2490.8,1523.2 2439.2,1562.3 2387.0,1602.4 2334.3,1643.2 2281.0,1684.6 2227.3,1726.6 2173.1,1768.9 2118.6,1811.6 2063.8,1854.4 2008.7,1897.4 1953.5,1940.4 1898.2,1983.4 1842.8,2026.3 1787.6,2069.0 1732.5,2111.6 1677.7,2153.9 1623.3,2195.9 1569.4,2237.6 1516.1,2279.0 1463.5,2320.0 1411.8,2360.7 1361.1,2401.0 1311.6,2441.0 1263.3,2480.7 1216.5,2520.1 1171.3,2559.2 1127.8,2598.1 1086.3,2636.8 1046.9,2675.3 1009.7,2713.8 975.1,2752.3  Z" style="stroke-width: 0.0;  stroke: rgb(115,115,115); fill: rgb(189,110,48); opacity: 0.333;" />
<path d="M 973.405,2750.889 A 1259.940,1259.940 0.00 0,1 971.7,2749.4 L 971.7,2749.4 1006.6,2711.1 1043.8,2672.7 1083.4,2634.2 1125.1,2595.6 1168.7,2556.9 1214.0,2517.9 1261.0,2478.6 1309.4,2439.1 1359.1,2399.2 1409.9,2359.0 1461.7,2318.4 1514.4,2277.5 1567.8,2236.2 1621.8,2194.6 1676.3,2152.7 1731.2,2110.6 1786.4,2068.1 1841.7,2025.5 1897.1,1982.7 1952.5,1939.8 2007.8,1896.8 2063.0,1853.9 2117.9,1811.1 2172.5,1768.6 2226.7,1726.3 2280.5,1684.4 2333.8,1643.0 2386.6,1602.3 2438.9,1562.3 2490.5,1523.1 2541.6,1485.0 2592.0,1448.1 2641.7,1412.4 2690.8,1378.3 2739.3,1345.8 2787.1,1315.1 2834.2,1286.4 2880.7,1259.9 2926.6,1235.9  A 1259.940,1259.940 0.00 0,1 2927.6,1237.8 L 2927.6,1237.8 2881.7,1261.8 2835.1,1288.2 2788.0,1316.8 2740.2,1347.4 2691.7,1379.8 2642.6,1413.9 2592.8,1449.5 2542.4,1486.3 2491.3,1524.4 2439.6,1563.5 2387.4,1603.4 2334.5,1644.1 2281.2,1685.5 2227.4,1727.3 2173.2,1769.6 2118.6,1812.1 2063.7,1854.9 2008.5,1897.8 1953.2,1940.7 1897.8,1983.6 1842.4,2026.4 1787.1,2069.0 1732.0,2111.5 1677.1,2153.7 1622.6,2195.6 1568.6,2237.2 1515.2,2278.5 1462.6,2319.4 1410.8,2360.0 1360.1,2400.3 1310.5,2440.2 1262.1,2479.8 1215.2,2519.1 1169.9,2558.1 1126.4,2596.9 1084.8,2635.5 1045.3,2674.0 1008.1,2712.5 973.4,2750.9  Z" style="stroke-width: 0.0;  stroke: rgb(115,115,115); fill: rgb(189,110,48); opacity: 0.333;" />
<path d="M 971.747,2749.445 A 1259.940,1259.940 0.00 0,1 970.1,2748.0 L 970.1,2748.0 1005.0,2709.7 1042.3,2671.3 1082.0,2633.0 1123.7,2594.5 1167.4,2555.8 1212.8,2516.9 1259.8,2477.7 1308.3,2438.2 1358.0,2398.4 1408.9,2358.3 1460.8,2317.8 1513.5,2277.0 1567.0,2235.8 1621.1,2194.3 1675.7,2152.5 1730.7,2110.4 1785.9,2068.1 1841.3,2025.5 1896.8,1982.8 1952.3,1940.0 2007.7,1897.2 2062.9,1854.4 2117.9,1811.7 2172.5,1769.2 2226.8,1727.0 2280.7,1685.2 2334.1,1643.9 2387.0,1603.3 2439.3,1563.4 2491.0,1524.3 2542.1,1486.3 2592.6,1449.5 2642.4,1413.9 2691.6,1379.8 2740.1,1347.4 2787.9,1316.8 2835.1,1288.2 2881.6,1261.8 2927.6,1237.8  A 1259.940,1259.940 0.00 0,1 2928.5,1239.8 L 2928.5,1239.8 2882.6,1263.7 2836.0,1290.0 2788.8,1318.5 2741.0,1349.0 2692.4,1381.4 2643.3,1415.4 2593.4,1450.9 2542.9,1487.6 2491.8,1525.6 2440.0,1564.6 2387.7,1604.4 2334.8,1645.1 2281.4,1686.3 2227.5,1728.1 2173.2,1770.2 2118.6,1812.7 2063.6,1855.3 2008.4,1898.1 1953.0,1941.0 1897.5,1983.7 1842.0,2026.5 1786.6,2069.0 1731.4,2111.4 1676.5,2153.5 1621.9,2195.3 1567.9,2236.8 1514.4,2278.0 1461.7,2318.8 1409.9,2359.3 1359.0,2399.5 1309.3,2439.3 1260.9,2478.8 1214.0,2518.1 1168.6,2557.0 1125.0,2595.7 1083.4,2634.3 1043.8,2672.7 1006.5,2711.1 971.7,2749.4  Z" style="stroke-width: 0.0;  stroke: rgb(115,115,115); fill: rgb(189,110,48); opacity: 0.333;" />
<path d="M 970.091,2747.998 A 1259.940,1259.940 0.00 0,1 968.4,2746.5 L 968.4,2746.5 1003.4,2708.3 1040.8,2670.0 1080.5,2631.7 1122.3,2593.3 1166.0,2554.7 1211.5,2515.8 1258.6,2476.7 1307.2,2437.4 1357.0,2397.6 1407.9,2357.6 1459.9,2317.2 1512.7,2276.5 1566.3,2235.4 1620.4,2194.0 1675.1,2152.3 1730.1,2110.3 1785.4,2068.1 1840.9,2025.6 1896.5,1983.0 1952.0,1940.3 2007.5,1897.6 2062.8,1854.8 2117.8,1812.3 2172.6,1769.9 2227.0,1727.8 2280.9,1686.1 2334.4,1644.9 2387.3,1604.3 2439.7,1564.5 2491.5,1525.5 2542.6,1487.6 2593.2,1450.8 2643.1,1415.4 2692.3,1381.4 2740.9,1349.1 2788.7,1318.6 2836.0,1290.0 2882.6,1263.7 2928.5,1239.8  A 1259.940,1259.940 0.00 0,1 2929.5,1241.8 L 2929.5,1241.8 2883.5,1265.6 2836.9,1291.8 2789.7,1320.3 2741.8,1350.7 2693.2,1382.9 2643.9,1416.9 2594.0,1452.2 2543.5,1488.9 2492.3,1526.8 2440.4,1565.7 2388.0,1605.5 2335.1,1646.0 2281.6,1687.1 2227.7,1728.8 2173.3,1770.9 2118.5,1813.2 2063.5,1855.8 2008.2,1898.5 1952.7,1941.2 1897.2,1983.9 1841.6,2026.5 1786.2,2069.0 1730.9,2111.2 1675.9,2153.2 1621.2,2195.0 1567.1,2236.4 1513.6,2277.5 1460.8,2318.3 1408.9,2358.7 1358.0,2398.7 1308.2,2438.5 1259.8,2477.9 1212.7,2517.0 1167.3,2555.9 1123.6,2594.6 1081.9,2633.0 1042.3,2671.4 1005.0,2709.7 970.1,2748.0  Z" style="stroke-width: 0.0;  stroke: rgb(115,115,115); fill: rgb(189,110,48); opacity: 0.333;" />
<path d="M 968.437,2746.548 A 1259.940,1259.940 0.00 0,1 966.8,2745.1 L 966.8,2745.1 1001.8,2706.9 1039.3,2668.7 1079.1,2630.4 1120.9,2592.1 1164.7,2553.6 1210.3,2514.8 1257.4,2475.8 1306.0,2436.5 1355.9,2396.9 1407.0,2356.9 1459.0,2316.6 1511.9,2276.0 1565.5,2235.0 1619.7,2193.7 1674.5,2152.1 1729.6,2110.2 1785.0,2068.0 1840.5,2025.7 1896.2,1983.2 1951.8,1940.6 2007.3,1897.9 2062.7,1855.3 2117.8,1812.8 2172.6,1770.5 2227.1,1728.5 2281.1,1686.9 2334.6,1645.8 2387.6,1605.3 2440.1,1565.6 2492.0,1526.7 2543.2,1488.9 2593.8,1452.2 2643.7,1416.9 2693.0,1383.0 2741.6,1350.7 2789.6,1320.3 2836.9,1291.8 2883.5,1265.6 2929.5,1241.8  A 1259.940,1259.940 0.00 0,1 2930.5,1243.7 L 2930.5,1243.7 2884.5,1267.5 2837.8,1293.6 2790.5,1322.0 2742.5,1352.3 2693.9,1384.5 2644.6,1418.3 2594.6,1453.6 2544.0,1490.2 2492.7,1528.0 2440.9,1566.8 2388.4,1606.5 2335.4,1646.9 2281.8,1688.0 2227.8,1729.5 2173.3,1771.5 2118.5,1813.8 2063.4,1856.3 2008.0,1898.8 1952.5,1941.5 1896.9,1984.1 1841.2,2026.6 1785.7,2069.0 1730.3,2111.1 1675.2,2153.0 1620.5,2194.7 1566.3,2236.0 1512.7,2277.0 1459.9,2317.7 1407.9,2358.0 1356.9,2398.0 1307.1,2437.6 1258.6,2477.0 1211.5,2516.0 1166.0,2554.8 1122.3,2593.4 1080.5,2631.8 1040.8,2670.1 1003.4,2708.3 968.4,2746.5  Z" style="stroke-width: 0.0;  stroke: rgb(115,115,115); fill: rgb(189,110,48); opacity: 0.333;" />
<path d="M 966.787,2745.095 A 1259.940,1259.940 0.00 0,1 965.1,2743.6 L 965.1,2743.6 1000.2,2705.5 1037.8,2667.4 1077.6,2629.2 1119.5,2590.9 1163.4,2552.4 1209.0,2513.8 1256.3,2474.8 1304.9,2435.6 1354.9,2396.1 1406.0,2356.2 1458.1,2316.0 1511.0,2275.5 1564.7,2234.6 1619.0,2193.4 1673.8,2151.9 1729.0,2110.1 1784.5,2068.0 1840.1,2025.8 1895.8,1983.3 1951.6,1940.8 2007.2,1898.3 2062.6,1855.8 2117.8,1813.4 2172.7,1771.2 2227.2,1729.3 2281.3,1687.8 2334.9,1646.7 2388.0,1606.4 2440.5,1566.7 2492.4,1528.0 2543.7,1490.2 2594.4,1453.6 2644.4,1418.3 2693.8,1384.5 2742.4,1352.4 2790.4,1322.0 2837.8,1293.7 2884.4,1267.5 2930.5,1243.7  A 1259.940,1259.940 0.00 0,1 2931.5,1245.7 L 2931.5,1245.7 2885.4,1269.4 2838.7,1295.5 2791.3,1323.7 2743.3,1354.0 2694.6,1386.1 2645.3,1419.8 2595.2,1455.0 2544.5,1491.5 2493.2,1529.2 2441.3,1567.9 2388.7,1607.5 2335.6,1647.9 2282.0,1688.8 2227.9,1730.3 2173.4,1772.2 2118.5,1814.3 2063.3,1856.7 2007.9,1899.2 1952.2,1941.7 1896.6,1984.3 1840.8,2026.7 1785.2,2068.9 1729.8,2111.0 1674.6,2152.8 1619.8,2194.3 1565.6,2235.6 1511.9,2276.5 1459.0,2317.1 1406.9,2357.3 1355.9,2397.2 1306.0,2436.8 1257.4,2476.0 1210.2,2515.0 1164.7,2553.7 1120.9,2592.2 1079.0,2630.5 1039.3,2668.7 1001.8,2706.9 966.8,2745.1  Z" style="stroke-width: 0.0;  stroke: rgb(115,115,115); fill: rgb(189,110,48); opacity: 0.333;" />
<path d="M 965.138,2743.639 A 1259.940,1259.940 0.00 0,1 963.5,2742.2 L 963.5,2742.2 998.6,2704.1 1036.3,2666.0 1076.2,2627.9 1118.2,2589.7 1162.1,2551.3 1207.8,2512.7 1255.1,2473.9 1303.8,2434.8 1353.8,2395.3 1405.0,2355.6 1457.2,2315.4 1510.2,2275.0 1564.0,2234.2 1618.4,2193.1 1673.2,2151.7 1728.5,2109.9 1784.0,2068.0 1839.7,2025.8 1895.5,1983.5 1951.3,1941.1 2007.0,1898.6 2062.5,1856.2 2117.8,1813.9 2172.7,1771.8 2227.3,1730.0 2281.5,1688.6 2335.2,1647.7 2388.3,1607.4 2440.9,1567.8 2492.9,1529.2 2544.3,1491.5 2595.0,1455.0 2645.1,1419.8 2694.5,1386.1 2743.2,1354.0 2791.3,1323.7 2838.6,1295.5 2885.4,1269.4 2931.5,1245.7  A 1259.940,1259.940 0.00 0,1 2932.4,1247.7 L 2932.4,1247.7 2886.3,1271.3 2839.6,1297.3 2792.2,1325.4 2744.1,1355.6 2695.3,1387.6 2645.9,1421.3 2595.8,1456.4 2545.1,1492.8 2493.7,1530.4 2441.7,1569.1 2389.1,1608.5 2335.9,1648.8 2282.2,1689.7 2228.0,1731.0 2173.4,1772.8 2118.5,1814.9 2063.2,1857.2 2007.7,1899.6 1952.0,1942.0 1896.2,1984.4 1840.5,2026.7 1784.8,2068.9 1729.2,2110.9 1674.0,2152.6 1619.2,2194.0 1564.8,2235.2 1511.1,2276.0 1458.1,2316.5 1406.0,2356.6 1354.9,2396.4 1304.9,2435.9 1256.2,2475.1 1209.0,2513.9 1163.4,2552.6 1119.5,2591.0 1077.6,2629.3 1037.7,2667.4 1000.2,2705.5 965.1,2743.6  Z" style="stroke-width: 0.0;  stroke: rgb(115,115,115); fill: rgb(189,110,48); opacity: 0.333;" />
<path d="M 963.493,2742.181 A 1259.940,1259.940 0.00 0,1 961.8,2740.7 L 961.8,2740.7 994.0,2706.5 1028.7,2672.9 1066.1,2639.8 1105.8,2607.3 1147.8,2575.4 1191.9,2544.1 1238.1,2513.4 1286.1,2483.3 1335.9,2453.8 1387.4,2425.0 1440.3,2396.8 1494.6,2369.3 1550.2,2342.6 1606.9,2316.6 1664.6,2291.3 1723.1,2266.9 1782.5,2243.3 1842.4,2220.5 1902.9,2198.7 1963.7,2177.8 2024.9,2157.9 2086.1,2139.0 2147.5,2121.2 2208.7,2104.5 2269.7,2089.0 2330.4,2074.7 2390.7,2061.7 2450.4,2050.0 2509.5,2039.7 2567.8,2030.8 2625.2,2023.5 2681.6,2017.7 2736.9,2013.6 2791.0,2011.2 2843.7,2010.6 2895.0,2011.8 2944.8,2015.0 2992.9,2020.2 3039.2,2027.4  A 1259.940,1259.940 0.00 0,1 3038.8,2029.6 L 3038.8,2029.6 2992.5,2022.3 2944.5,2017.0 2894.7,2013.8 2843.5,2012.4 2790.8,2013.0 2736.7,2015.3 2681.5,2019.4 2625.1,2025.0 2567.7,2032.3 2509.5,2041.1 2450.4,2051.3 2390.7,2063.0 2330.5,2075.9 2269.8,2090.2 2208.8,2105.7 2147.6,2122.3 2086.4,2140.1 2025.1,2158.9 1964.1,2178.8 1903.3,2199.7 1842.8,2221.5 1782.9,2244.3 1723.7,2267.9 1665.2,2292.3 1607.5,2317.6 1550.9,2343.6 1495.4,2370.4 1441.2,2397.9 1388.3,2426.1 1336.9,2454.9 1287.2,2484.4 1239.2,2514.6 1193.1,2545.3 1149.0,2576.7 1107.1,2608.6 1067.5,2641.2 1030.2,2674.3 995.5,2707.9 963.5,2742.2  Z" style="stroke-width: 0.0;  stroke: rgb(115,115,115); fill: rgb(189,110,48); opacity: 0.333;" />
<path d="M 961.850,2740.719 A 1259.940,1259.940 0.00 0,1 960.2,2739.3 L 960.2,2739.3 992.4,2705.1 1027.2,2671.5 1064.6,2638.5 1104.4,2606.1 1146.4,2574.3 1190.6,2543.0 1236.8,2512.4 1284.9,2482.4 1334.8,2453.0 1386.3,2424.2 1439.3,2396.2 1493.6,2368.8 1549.2,2342.1 1606.0,2316.2 1663.7,2291.1 1722.3,2266.7 1781.7,2243.2 1841.7,2220.6 1902.2,2198.9 1963.1,2178.1 2024.2,2158.3 2085.5,2139.5 2146.9,2121.8 2208.1,2105.2 2269.2,2089.8 2329.9,2075.6 2390.2,2062.7 2450.0,2051.1 2509.1,2040.9 2567.4,2032.2 2624.8,2024.9 2681.2,2019.3 2736.5,2015.2 2790.6,2012.9 2843.4,2012.4 2894.7,2013.7 2944.4,2017.0 2992.5,2022.3 3038.8,2029.6  A 1259.940,1259.940 0.00 0,1 3038.4,2031.8 L 3038.4,2031.8 2992.1,2024.3 2944.1,2019.0 2894.4,2015.7 2843.1,2014.3 2790.4,2014.7 2736.3,2017.0 2681.1,2020.9 2624.7,2026.5 2567.3,2033.7 2509.0,2042.3 2450.0,2052.5 2390.3,2064.0 2330.0,2076.9 2269.3,2091.0 2208.3,2106.4 2147.1,2122.9 2085.8,2140.6 2024.5,2159.3 1963.4,2179.1 1902.6,2199.9 1842.1,2221.6 1782.2,2244.2 1722.9,2267.7 1664.3,2292.1 1606.6,2317.2 1550.0,2343.2 1494.4,2369.8 1440.1,2397.2 1387.2,2425.3 1335.8,2454.1 1286.0,2483.5 1238.0,2513.6 1191.8,2544.3 1147.7,2575.5 1105.7,2607.4 1066.0,2639.9 1028.7,2672.9 993.9,2706.5 961.8,2740.7  Z" style="stroke-width: 0.0;  stroke: rgb(115,115,115); fill: rgb(189,110,48); opacity: 0.333;" />
<path d="M 960.209,2739.255 A 1259.940,1259.940 0.00 0,1 958.6,2737.8 L 958.6,2737.8 990.8,2703.7 1025.7,2670.2 1063.1,2637.2 1103.0,2604.9 1145.1,2573.1 1189.3,2542.0 1235.6,2511.4 1283.8,2481.5 1333.7,2452.2 1385.2,2423.5 1438.2,2395.5 1492.6,2368.3 1548.3,2341.7 1605.1,2315.9 1662.8,2290.8 1721.5,2266.6 1780.9,2243.2 1840.9,2220.7 1901.5,2199.0 1962.4,2178.4 2023.6,2158.7 2085.0,2140.0 2146.3,2122.4 2207.6,2105.9 2268.7,2090.6 2329.5,2076.5 2389.8,2063.7 2449.6,2052.2 2508.7,2042.1 2567.0,2033.5 2624.4,2026.4 2680.8,2020.8 2736.2,2016.9 2790.2,2014.7 2843.0,2014.2 2894.3,2015.7 2944.0,2019.0 2992.1,2024.3 3038.4,2031.8  A 1259.940,1259.940 0.00 0,1 3038.0,2033.9 L 3038.0,2033.9 2991.8,2026.4 2943.7,2021.0 2894.0,2017.6 2842.7,2016.1 2790.0,2016.4 2736.0,2018.6 2680.7,2022.4 2624.3,2027.9 2566.9,2035.0 2508.6,2043.6 2449.5,2053.6 2389.8,2065.0 2329.5,2077.8 2268.8,2091.8 2207.8,2107.1 2146.5,2123.5 2085.2,2141.1 2023.9,2159.7 1962.7,2179.4 1901.9,2200.1 1841.4,2221.7 1781.4,2244.2 1722.0,2267.6 1663.4,2291.9 1605.7,2316.9 1549.0,2342.7 1493.4,2369.3 1439.1,2396.6 1386.1,2424.6 1334.6,2453.3 1284.8,2482.6 1236.7,2512.6 1190.5,2543.2 1146.3,2574.4 1104.3,2606.2 1064.5,2638.6 1027.2,2671.6 992.4,2705.1 960.2,2739.3  Z" style="stroke-width: 0.0;  stroke: rgb(115,115,115); fill: rgb(189,110,48); opacity: 0.333;" />
<path d="M 958.571,2737.788 A 1259.940,1259.940 0.00 0,1 956.9,2736.3 L 956.9,2736.3 989.2,2702.3 1024.2,2668.8 1061.7,2636.0 1101.6,2603.7 1143.7,2572.0 1188.0,2540.9 1234.4,2510.4 1282.6,2480.6 1332.5,2451.3 1384.1,2422.8 1437.2,2394.9 1491.6,2367.7 1547.3,2341.3 1604.2,2315.5 1662.0,2290.6 1720.7,2266.5 1780.1,2243.2 1840.2,2220.7 1900.8,2199.2 1961.7,2178.6 2023.0,2159.0 2084.4,2140.5 2145.8,2123.0 2207.1,2106.6 2268.2,2091.4 2329.0,2077.5 2389.3,2064.7 2449.1,2053.4 2508.2,2043.4 2566.6,2034.8 2624.0,2027.8 2680.5,2022.3 2735.8,2018.5 2789.9,2016.4 2842.6,2016.1 2893.9,2017.6 2943.7,2021.0 2991.7,2026.4 3038.0,2033.9  A 1259.940,1259.940 0.00 0,1 3037.6,2036.1 L 3037.6,2036.1 2991.4,2028.5 2943.3,2023.0 2893.6,2019.5 2842.3,2017.9 2789.6,2018.2 2735.6,2020.2 2680.3,2024.0 2623.9,2029.4 2566.5,2036.3 2508.2,2044.8 2449.1,2054.7 2389.3,2066.1 2329.0,2078.7 2268.3,2092.6 2207.2,2107.8 2146.0,2124.1 2084.6,2141.6 2023.3,2160.1 1962.1,2179.7 1901.2,2200.2 1840.6,2221.8 1780.6,2244.2 1721.2,2267.5 1662.6,2291.6 1604.8,2316.6 1548.1,2342.3 1492.4,2368.8 1438.0,2396.0 1385.0,2423.9 1333.5,2452.5 1283.6,2481.7 1235.5,2511.6 1189.2,2542.1 1145.0,2573.3 1102.9,2605.0 1063.1,2637.3 1025.7,2670.2 990.8,2703.7 958.6,2737.8  Z" style="stroke-width: 0.0;  stroke: rgb(115,115,115); fill: rgb(189,110,48); opacity: 0.333;" />
<path d="M 956.936,2736.318 A 1259.940,1259.940 0.00 0,1 955.3,2734.8 L 955.3,2734.8 987.6,2700.9 1022.7,2667.5 1060.2,2634.7 1100.2,2602.5 1142.4,2570.8 1186.7,2539.8 1233.1,2509.4 1281.4,2479.7 1331.4,2450.5 1383.0,2422.1 1436.2,2394.3 1490.7,2367.2 1546.4,2340.8 1603.3,2315.2 1661.1,2290.4 1719.9,2266.3 1779.4,2243.1 1839.5,2220.8 1900.1,2199.4 1961.1,2178.9 2022.4,2159.4 2083.8,2141.0 2145.2,2123.6 2206.5,2107.3 2267.7,2092.2 2328.5,2078.4 2388.9,2065.8 2448.7,2054.5 2507.8,2044.6 2566.2,2036.2 2623.6,2029.2 2680.1,2023.9 2735.4,2020.1 2789.5,2018.1 2842.2,2017.9 2893.5,2019.5 2943.3,2023.0 2991.3,2028.5 3037.6,2036.1  A 1259.940,1259.940 0.00 0,1 3037.2,2038.2 L 3037.2,2038.2 2991.0,2030.6 2942.9,2025.0 2893.2,2021.4 2842.0,2019.7 2789.2,2019.9 2735.2,2021.9 2679.9,2025.5 2623.5,2030.8 2566.1,2037.7 2507.8,2046.0 2448.6,2055.9 2388.9,2067.1 2328.5,2079.6 2267.8,2093.5 2206.7,2108.5 2145.4,2124.7 2084.0,2142.1 2022.6,2160.5 1961.4,2180.0 1900.5,2200.4 1839.9,2221.8 1779.8,2244.1 1720.4,2267.3 1661.7,2291.4 1603.9,2316.2 1547.1,2341.9 1491.4,2368.2 1437.0,2395.3 1383.9,2423.2 1332.4,2451.7 1282.4,2480.8 1234.2,2510.6 1187.9,2541.1 1143.6,2572.1 1101.5,2603.8 1061.6,2636.0 1024.1,2668.9 989.2,2702.3 956.9,2736.3  Z" style="stroke-width: 0.0;  stroke: rgb(115,115,115); fill: rgb(189,110,48); opacity: 0.333;" />
<path d="M 955.303,2734.845 A 1259.940,1259.940 0.00 0,1 953.7,2733.4 L 953.7,2733.4 984.0,2701.7 1016.8,2670.9 1051.9,2641.1 1089.2,2612.3 1128.5,2584.7 1169.8,2558.1 1212.9,2532.8 1257.7,2508.8 1304.1,2486.1 1352.0,2464.7 1401.2,2444.7 1451.6,2426.2 1503.1,2409.2 1555.7,2393.7 1609.0,2379.7 1663.1,2367.3 1717.8,2356.5 1773.0,2347.3 1828.5,2339.8 1884.3,2334.0 1940.2,2329.8 1996.1,2327.3 2051.9,2326.4 2107.3,2327.3 2162.4,2329.9 2217.0,2334.1 2271.0,2340.1 2324.1,2347.7 2376.4,2357.0 2427.7,2368.0 2477.8,2380.6 2526.6,2394.8 2574.1,2410.6 2620.0,2427.9 2664.2,2446.8 2706.6,2467.2 2747.1,2489.1 2785.6,2512.3 2821.9,2537.0  A 1259.940,1259.940 0.00 0,1 2820.6,2538.8 L 2820.6,2538.8 2784.4,2514.1 2746.0,2490.7 2705.5,2468.8 2663.2,2448.4 2619.0,2429.4 2573.2,2412.0 2525.8,2396.2 2477.0,2381.9 2427.0,2369.3 2375.8,2358.3 2323.6,2348.9 2270.5,2341.3 2216.6,2335.3 2162.1,2331.0 2107.1,2328.4 2051.7,2327.5 1996.0,2328.3 1940.2,2330.7 1884.4,2334.9 1828.7,2340.8 1773.2,2348.3 1718.1,2357.5 1663.5,2368.3 1609.5,2380.7 1556.2,2394.7 1503.8,2410.2 1452.3,2427.3 1402.0,2445.8 1352.8,2465.8 1305.1,2487.2 1258.7,2510.0 1214.0,2534.0 1171.0,2559.4 1129.8,2585.9 1090.5,2613.7 1053.3,2642.5 1018.3,2672.3 985.6,2703.1 955.3,2734.8  Z" style="stroke-width: 0.0;  stroke: rgb(115,115,115); fill: rgb(189,110,48); opacity: 0.333;" />
<path d="M 953.672,2733.369 A 1259.940,1259.940 0.00 0,1 952.0,2731.9 L 952.0,2731.9 982.5,2700.3 1015.3,2669.5 1050.4,2639.8 1087.8,2611.1 1127.1,2583.5 1168.5,2557.0 1211.6,2531.8 1256.5,2507.8 1302.9,2485.2 1350.8,2463.9 1400.1,2444.0 1450.5,2425.6 1502.1,2408.7 1554.6,2393.2 1608.0,2379.4 1662.1,2367.1 1716.8,2356.4 1772.0,2347.3 1827.6,2339.9 1883.4,2334.1 1939.3,2330.0 1995.2,2327.6 2050.9,2326.9 2106.4,2327.9 2161.5,2330.5 2216.1,2334.9 2270.0,2340.9 2323.2,2348.6 2375.5,2358.0 2426.7,2369.1 2476.8,2381.7 2525.6,2396.0 2573.0,2411.9 2618.9,2429.3 2663.1,2448.3 2705.5,2468.8 2745.9,2490.7 2784.4,2514.1 2820.6,2538.8  A 1259.940,1259.940 0.00 0,1 2819.3,2540.6 L 2819.3,2540.6 2783.1,2515.8 2744.8,2492.4 2704.4,2470.4 2662.0,2449.9 2617.9,2430.8 2572.1,2413.4 2524.8,2397.4 2476.0,2383.1 2426.0,2370.4 2374.8,2359.3 2322.6,2349.8 2269.5,2342.1 2215.7,2336.0 2161.2,2331.6 2106.2,2328.9 2050.8,2327.9 1995.1,2328.6 1939.3,2331.0 1883.4,2335.1 1827.7,2340.8 1772.3,2348.3 1717.1,2357.3 1662.5,2368.0 1608.5,2380.3 1555.2,2394.2 1502.7,2409.7 1451.2,2426.6 1400.8,2445.1 1351.7,2465.0 1303.9,2486.3 1257.5,2509.0 1212.7,2533.0 1169.7,2558.3 1128.4,2584.8 1089.1,2612.4 1051.8,2641.2 1016.8,2671.0 984.0,2701.7 953.7,2733.4  Z" style="stroke-width: 0.0;  stroke: rgb(115,115,115); fill: rgb(189,110,48); opacity: 0.333;" />
<path d="M 952.045,2731.891 A 1259.940,1259.940 0.00 0,1 950.4,2730.4 L 950.4,2730.4 980.9,2698.8 1013.8,2668.2 1049.0,2638.5 1086.3,2609.9 1125.8,2582.3 1167.2,2555.9 1210.4,2530.8 1255.2,2506.9 1301.7,2484.3 1349.7,2463.1 1398.9,2443.3 1449.4,2425.0 1501.0,2408.1 1553.6,2392.8 1607.0,2379.0 1661.1,2366.8 1715.9,2356.2 1771.1,2347.2 1826.7,2339.9 1882.5,2334.2 1938.4,2330.2 1994.3,2327.9 2050.0,2327.3 2105.5,2328.4 2160.6,2331.1 2215.2,2335.6 2269.1,2341.7 2322.2,2349.6 2374.5,2359.0 2425.7,2370.2 2475.8,2382.9 2524.6,2397.3 2571.9,2413.3 2617.8,2430.8 2661.9,2449.8 2704.3,2470.4 2744.7,2492.4 2783.1,2515.8 2819.3,2540.6  A 1259.940,1259.940 0.00 0,1 2818.0,2542.4 L 2818.0,2542.4 2781.9,2517.5 2743.6,2494.0 2703.2,2472.0 2660.9,2451.4 2616.8,2432.3 2571.0,2414.7 2523.7,2398.7 2475.0,2384.3 2425.0,2371.5 2373.9,2360.3 2321.7,2350.8 2268.6,2342.9 2214.8,2336.7 2160.3,2332.2 2105.2,2329.4 2049.8,2328.3 1994.2,2328.9 1938.3,2331.2 1882.5,2335.2 1826.8,2340.9 1771.3,2348.2 1716.2,2357.2 1661.5,2367.8 1607.4,2380.0 1554.1,2393.8 1501.6,2409.2 1450.1,2426.0 1399.7,2444.4 1350.5,2464.2 1302.7,2485.5 1256.3,2508.1 1211.5,2532.0 1168.3,2557.2 1127.0,2583.6 1087.7,2611.2 1050.4,2639.9 1015.3,2669.6 982.4,2700.3 952.0,2731.9  Z" style="stroke-width: 0.0;  stroke: rgb(115,115,115); fill: rgb(189,110,48); opacity: 0.333;" />
<path d="M 950.419,2730.409 A 1259.940,1259.940 0.00 0,1 948.8,2728.9 L 948.8,2728.9 979.3,2697.4 1012.3,2666.8 1047.5,2637.2 1084.9,2608.6 1124.4,2581.1 1165.8,2554.8 1209.1,2529.8 1254.0,2505.9 1300.5,2483.5 1348.5,2462.3 1397.8,2442.6 1448.3,2424.4 1500.0,2407.6 1552.5,2392.4 1606.0,2378.7 1660.1,2366.6 1714.9,2356.1 1770.1,2347.2 1825.7,2340.0 1881.5,2334.4 1937.4,2330.5 1993.3,2328.3 2049.1,2327.8 2104.6,2328.9 2159.7,2331.8 2214.2,2336.3 2268.1,2342.6 2321.3,2350.5 2373.5,2360.0 2424.7,2371.3 2474.7,2384.1 2523.5,2398.6 2570.9,2414.6 2616.7,2432.2 2660.8,2451.3 2703.1,2471.9 2743.5,2494.0 2781.9,2517.5 2818.0,2542.4  A 1259.940,1259.940 0.00 0,1 2816.7,2544.1 L 2816.7,2544.1 2780.6,2519.2 2742.4,2495.7 2702.0,2473.5 2659.7,2452.9 2615.7,2433.7 2569.9,2416.0 2522.7,2400.0 2474.0,2385.4 2424.0,2372.5 2372.9,2361.3 2320.7,2351.7 2267.7,2343.7 2213.8,2337.4 2159.3,2332.9 2104.3,2330.0 2048.9,2328.8 1993.2,2329.3 1937.4,2331.5 1881.6,2335.4 1825.8,2340.9 1770.3,2348.2 1715.2,2357.0 1660.5,2367.5 1606.4,2379.7 1553.1,2393.4 1500.6,2408.6 1449.0,2425.4 1398.6,2443.7 1349.4,2463.4 1301.5,2484.6 1255.0,2507.1 1210.2,2531.0 1167.0,2556.1 1125.7,2582.4 1086.3,2609.9 1048.9,2638.6 1013.7,2668.2 980.9,2698.9 950.4,2730.4  Z" style="stroke-width: 0.0;  stroke: rgb(115,115,115); fill: rgb(189,110,48); opacity: 0.333;" />
<path d="M 948.797,2728.925 A 1259.940,1259.940 0.00 0,1 947.2,2727.4 L 947.2,2727.4 977.8,2696.0 1010.8,2665.4 1046.0,2635.9 1083.5,2607.4 1123.1,2580.0 1164.5,2553.7 1207.8,2528.7 1252.8,2505.0 1299.3,2482.6 1347.4,2461.6 1396.7,2441.9 1447.3,2423.8 1498.9,2407.1 1551.5,2391.9 1605.0,2378.3 1659.1,2366.3 1713.9,2355.9 1769.2,2347.1 1824.8,2340.0 1880.6,2334.5 1936.5,2330.7 1992.4,2328.6 2048.2,2328.2 2103.7,2329.4 2158.7,2332.4 2213.3,2337.0 2267.2,2343.4 2320.3,2351.4 2372.5,2361.0 2423.7,2372.3 2473.7,2385.3 2522.5,2399.8 2569.8,2415.9 2615.6,2433.6 2659.7,2452.8 2701.9,2473.5 2742.3,2495.6 2780.6,2519.2 2816.7,2544.1  A 1259.940,1259.940 0.00 0,1 2815.4,2545.9 L 2815.4,2545.9 2779.4,2520.9 2741.1,2497.3 2700.8,2475.1 2658.6,2454.4 2614.6,2435.1 2568.9,2417.4 2521.6,2401.2 2473.0,2386.6 2423.0,2373.6 2371.9,2362.3 2319.7,2352.6 2266.7,2344.5 2212.9,2338.2 2158.4,2333.5 2103.4,2330.5 2048.0,2329.2 1992.3,2329.6 1936.5,2331.7 1880.6,2335.5 1824.9,2341.0 1769.4,2348.1 1714.2,2356.9 1659.5,2367.3 1605.4,2379.3 1552.0,2392.9 1499.5,2408.1 1448.0,2424.8 1397.5,2443.0 1348.2,2462.7 1300.3,2483.7 1253.8,2506.2 1208.9,2529.9 1165.7,2555.0 1124.3,2581.2 1084.8,2608.7 1047.5,2637.2 1012.2,2666.8 979.3,2697.4 948.8,2728.9  Z" style="stroke-width: 0.0;  stroke: rgb(115,115,115); fill: rgb(189,110,48); opacity: 0.333;" />
<path d="M 947.177,2727.438 A 1259.940,1259.940 0.00 0,1 945.6,2725.9 L 945.6,2725.9 976.2,2694.5 1009.2,2664.0 1044.6,2634.6 1082.1,2606.1 1121.7,2578.8 1163.2,2552.6 1206.5,2527.7 1251.6,2504.0 1298.2,2481.7 1346.2,2460.8 1395.6,2441.2 1446.2,2423.2 1497.8,2406.6 1550.5,2391.5 1604.0,2378.0 1658.2,2366.1 1713.0,2355.8 1768.2,2347.1 1823.8,2340.0 1879.7,2334.7 1935.6,2331.0 1991.5,2328.9 2047.2,2328.6 2102.7,2330.0 2157.8,2333.0 2212.3,2337.8 2266.2,2344.2 2319.3,2352.3 2371.5,2362.0 2422.7,2373.4 2472.7,2386.5 2521.4,2401.1 2568.7,2417.3 2614.4,2435.0 2658.5,2454.3 2700.8,2475.1 2741.1,2497.3 2779.4,2520.9 2815.4,2545.9  A 1259.940,1259.940 0.00 0,1 2814.1,2547.7 L 2814.1,2547.7 2778.1,2522.6 2739.9,2499.0 2699.7,2476.7 2657.5,2455.9 2613.5,2436.5 2567.8,2418.7 2520.6,2402.5 2471.9,2387.8 2422.0,2374.7 2370.9,2363.3 2318.8,2353.5 2265.8,2345.3 2211.9,2338.9 2157.5,2334.1 2102.5,2331.0 2047.1,2329.6 1991.4,2329.9 1935.6,2332.0 1879.7,2335.6 1824.0,2341.0 1768.4,2348.0 1713.2,2356.7 1658.5,2367.1 1604.4,2379.0 1551.0,2392.5 1498.5,2407.6 1446.9,2424.2 1396.4,2442.3 1347.1,2461.9 1299.1,2482.8 1252.6,2505.2 1207.6,2528.9 1164.4,2553.9 1122.9,2580.1 1083.4,2607.4 1046.0,2635.9 1010.7,2665.5 977.7,2696.0 947.2,2727.4  Z" style="stroke-width: 0.0;  stroke: rgb(115,115,115); fill: rgb(189,110,48); opacity: 0.333;" />
<path d="M 945.560,2725.948 A 1259.940,1259.940 0.00 0,1 943.9,2724.5 L 943.9,2724.5 974.6,2693.1 1007.7,2662.7 1043.1,2633.2 1080.7,2604.9 1120.3,2577.6 1161.9,2551.5 1205.3,2526.7 1250.3,2503.1 1297.0,2480.8 1345.0,2460.0 1394.5,2440.5 1445.1,2422.5 1496.8,2406.0 1549.4,2391.1 1603.0,2377.7 1657.2,2365.8 1712.0,2355.6 1767.3,2347.0 1822.9,2340.1 1878.7,2334.8 1934.7,2331.2 1990.6,2329.3 2046.3,2329.0 2101.8,2330.5 2156.9,2333.7 2211.4,2338.5 2265.3,2345.0 2318.4,2353.2 2370.6,2363.0 2421.7,2374.5 2471.7,2387.6 2520.4,2402.3 2567.6,2418.6 2613.3,2436.5 2657.4,2455.8 2699.6,2476.7 2739.9,2498.9 2778.1,2522.6 2814.1,2547.7  A 1259.940,1259.940 0.00 0,1 2812.8,2549.4 L 2812.8,2549.4 2776.9,2524.3 2738.7,2500.6 2698.5,2478.3 2656.3,2457.4 2612.4,2438.0 2566.7,2420.1 2519.5,2403.7 2470.9,2389.0 2421.0,2375.8 2369.9,2364.3 2317.8,2354.4 2264.8,2346.2 2211.0,2339.6 2156.5,2334.7 2101.5,2331.6 2046.1,2330.1 1990.5,2330.3 1934.6,2332.2 1878.8,2335.8 1823.0,2341.0 1767.5,2348.0 1712.3,2356.6 1657.5,2366.8 1603.4,2378.6 1550.0,2392.1 1497.4,2407.1 1445.8,2423.6 1395.2,2441.6 1345.9,2461.1 1297.9,2482.0 1251.3,2504.2 1206.4,2527.9 1163.1,2552.8 1121.6,2578.9 1082.0,2606.2 1044.5,2634.6 1009.2,2664.1 976.2,2694.6 945.6,2725.9  Z" style="stroke-width: 0.0;  stroke: rgb(115,115,115); fill: rgb(189,110,48); opacity: 0.333;" />
<path d="M 943.945,2724.456 A 1259.940,1259.940 0.00 0,1 942.3,2723.0 L 942.3,2723.0 971.7,2693.0 1003.2,2664.0 1036.7,2636.2 1071.9,2609.7 1108.9,2584.6 1147.5,2560.9 1187.5,2538.8 1228.8,2518.4 1271.4,2499.6 1315.1,2482.6 1359.8,2467.5 1405.3,2454.2 1451.6,2442.8 1498.6,2433.5 1546.0,2426.1 1593.8,2420.8 1642.0,2417.5 1690.2,2416.2 1738.6,2417.1 1786.8,2420.0 1834.9,2425.0 1882.7,2432.0 1930.1,2441.0 1976.9,2452.1 2023.1,2465.1 2068.6,2480.0 2113.2,2496.9 2156.8,2515.5 2199.4,2535.9 2240.7,2558.0 2280.7,2581.8 2319.3,2607.1 2356.4,2633.8 2391.8,2661.9 2425.5,2691.3 2457.3,2721.9 2487.2,2753.5 2515.0,2786.0 2540.6,2819.3  A 1259.940,1259.940 0.00 0,1 2538.8,2820.6 L 2538.8,2820.6 2513.3,2787.3 2485.6,2754.7 2455.8,2723.1 2424.0,2692.5 2390.4,2663.1 2355.1,2634.9 2318.1,2608.1 2279.6,2582.8 2239.6,2559.0 2198.4,2536.9 2156.0,2516.4 2112.4,2497.8 2067.9,2480.9 2022.6,2466.0 1976.4,2452.9 1929.7,2441.9 1882.4,2432.8 1834.7,2425.8 1786.7,2420.8 1738.6,2417.9 1690.3,2417.1 1642.2,2418.3 1594.1,2421.7 1546.4,2427.0 1499.0,2434.4 1452.2,2443.8 1406.0,2455.2 1360.5,2468.5 1316.0,2483.7 1272.3,2500.7 1229.8,2519.5 1188.6,2540.0 1148.6,2562.2 1110.2,2585.9 1073.3,2611.1 1038.1,2637.6 1004.7,2665.4 973.3,2694.4 943.9,2724.5  Z" style="stroke-width: 0.0;  stroke: rgb(115,115,115); fill: rgb(189,110,48); opacity: 0.333;" />
<path d="M 626.125,2257.675 A 1259.940,1259.940 0.00 0,1 625.3,2255.6 L 625.3,2255.6 675.6,2235.2 726.8,2212.9 778.9,2188.9 832.0,2163.3 886.0,2136.5 940.9,2108.6 996.7,2079.8 1053.5,2050.3 1111.0,2020.2 1169.5,1989.8 1228.7,1959.1 1288.7,1928.3 1349.5,1897.5 1410.9,1866.9 1473.0,1836.5 1535.6,1806.4 1598.7,1776.8 1662.3,1747.6 1726.3,1718.9 1790.6,1690.9 1855.1,1663.4 1919.7,1636.6 1984.4,1610.4 2049.0,1584.9 2113.5,1560.0 2177.7,1535.7 2241.5,1512.0 2304.9,1488.9 2367.6,1466.3 2429.7,1444.1 2490.9,1422.3 2551.1,1400.7 2610.1,1379.3 2667.9,1358.0 2724.3,1336.6 2779.1,1315.0 2832.1,1293.1 2883.3,1270.7 2932.4,1247.7  A 1259.940,1259.940 0.00 0,1 2933.4,1249.7 L 2933.4,1249.7 2884.2,1272.6 2833.0,1294.9 2779.9,1316.8 2725.0,1338.3 2668.6,1359.6 2610.8,1380.9 2551.7,1402.2 2491.4,1423.7 2430.2,1445.5 2368.2,1467.6 2305.4,1490.2 2242.0,1513.3 2178.1,1536.9 2113.9,1561.1 2049.4,1586.0 1984.8,1611.5 1920.1,1637.6 1855.5,1664.4 1791.0,1691.9 1726.8,1720.0 1662.8,1748.6 1599.2,1777.8 1536.1,1807.5 1473.5,1837.6 1411.4,1868.0 1350.0,1898.7 1289.3,1929.5 1229.3,1960.3 1170.1,1991.0 1111.7,2021.5 1054.1,2051.7 997.4,2081.2 941.6,2110.1 886.7,2138.1 832.7,2165.0 779.7,2190.6 727.6,2214.8 676.4,2237.2 626.1,2257.7  Z" style="stroke-width: 0.0;  stroke: rgb(115,115,115); fill: rgb(189,110,48); opacity: 0.333;" />
<path d="M 625.328,2255.625 A 1259.940,1259.940 0.00 0,1 624.5,2253.6 L 624.5,2253.6 674.8,2233.3 726.1,2211.0 778.2,2187.1 831.4,2161.6 885.4,2134.9 940.4,2107.1 996.2,2078.4 1053.0,2049.0 1110.7,2019.0 1169.1,1988.7 1228.4,1958.1 1288.5,1927.4 1349.3,1896.8 1410.8,1866.2 1472.9,1835.9 1535.6,1806.0 1598.8,1776.4 1662.4,1747.4 1726.5,1718.8 1790.8,1690.8 1855.3,1663.5 1920.0,1636.8 1984.7,1610.7 2049.4,1585.3 2113.9,1560.5 2178.1,1536.4 2242.0,1512.8 2305.4,1489.8 2368.2,1467.3 2430.3,1445.2 2491.5,1423.5 2551.7,1402.0 2610.8,1380.7 2668.7,1359.5 2725.1,1338.2 2779.9,1316.7 2833.0,1294.9 2884.2,1272.6 2933.4,1249.7  A 1259.940,1259.940 0.00 0,1 2934.3,1251.6 L 2934.3,1251.6 2885.1,1274.5 2833.9,1296.7 2780.7,1318.5 2725.8,1339.9 2669.4,1361.1 2611.5,1382.3 2552.4,1403.5 2492.1,1424.9 2430.8,1446.6 2368.7,1468.6 2305.9,1491.1 2242.5,1514.0 2178.6,1537.5 2114.3,1561.7 2049.8,1586.4 1985.1,1611.8 1920.4,1637.8 1855.8,1664.5 1791.2,1691.9 1726.9,1719.8 1662.9,1748.4 1599.3,1777.5 1536.1,1807.0 1473.4,1837.0 1411.3,1867.3 1349.9,1897.9 1289.1,1928.6 1229.0,1959.3 1169.8,1989.9 1111.3,2020.3 1053.7,2050.3 996.9,2079.8 941.1,2108.6 886.1,2136.5 832.1,2163.3 779.0,2188.9 726.8,2212.9 675.6,2235.2 625.3,2255.6  Z" style="stroke-width: 0.0;  stroke: rgb(115,115,115); fill: rgb(189,110,48); opacity: 0.333;" />
<path d="M 624.535,2253.574 A 1259.940,1259.940 0.00 0,1 623.7,2251.5 L 623.7,2251.5 674.1,2231.3 725.4,2209.2 777.6,2185.3 830.7,2159.9 884.8,2133.3 939.8,2105.6 995.8,2077.0 1052.6,2047.7 1110.3,2017.8 1168.8,1987.6 1228.2,1957.1 1288.3,1926.5 1349.1,1896.0 1410.7,1865.6 1472.8,1835.4 1535.6,1805.5 1598.8,1776.1 1662.5,1747.1 1726.6,1718.7 1791.0,1690.8 1855.6,1663.6 1920.3,1637.0 1985.0,1611.0 2049.7,1585.7 2114.3,1561.1 2178.6,1537.0 2242.5,1513.6 2306.0,1490.7 2368.8,1468.3 2430.9,1446.3 2492.2,1424.7 2552.4,1403.3 2611.6,1382.1 2669.4,1361.0 2725.9,1339.8 2780.8,1318.4 2833.9,1296.7 2885.2,1274.5 2934.3,1251.6  A 1259.940,1259.940 0.00 0,1 2935.3,1253.6 L 2935.3,1253.6 2886.1,1276.4 2834.7,1298.6 2781.5,1320.2 2726.6,1341.5 2670.1,1362.6 2612.2,1383.7 2553.0,1404.8 2492.7,1426.1 2431.5,1447.7 2369.3,1469.6 2306.5,1492.0 2243.0,1514.8 2179.1,1538.2 2114.7,1562.2 2050.2,1586.8 1985.5,1612.1 1920.7,1638.0 1856.0,1664.6 1791.4,1691.9 1727.1,1719.7 1663.0,1748.2 1599.3,1777.1 1536.1,1806.6 1473.3,1836.5 1411.2,1866.7 1349.7,1897.1 1288.9,1927.7 1228.8,1958.3 1169.4,1988.8 1110.9,2019.1 1053.2,2049.0 996.4,2078.4 940.5,2107.1 885.5,2134.9 831.5,2161.6 778.3,2187.1 726.1,2211.0 674.9,2233.3 624.5,2253.6  Z" style="stroke-width: 0.0;  stroke: rgb(115,115,115); fill: rgb(189,110,48); opacity: 0.333;" />
<path d="M 623.745,2251.522 A 1259.940,1259.940 0.00 0,1 623.0,2249.5 L 623.0,2249.5 673.3,2229.4 724.6,2207.3 776.9,2183.5 830.1,2158.2 884.2,2131.7 939.3,2104.1 995.3,2075.6 1052.2,2046.3 1109.9,2016.6 1168.5,1986.5 1227.9,1956.1 1288.1,1925.6 1349.0,1895.2 1410.6,1864.9 1472.8,1834.8 1535.6,1805.1 1598.9,1775.7 1662.6,1746.9 1726.7,1718.6 1791.2,1690.8 1855.8,1663.7 1920.6,1637.2 1985.4,1611.3 2050.1,1586.2 2114.7,1561.6 2179.1,1537.7 2243.0,1514.4 2306.5,1491.6 2369.4,1469.3 2431.5,1447.4 2492.8,1425.9 2553.1,1404.6 2612.3,1383.6 2670.2,1362.5 2726.7,1341.4 2781.6,1320.1 2834.8,1298.5 2886.1,1276.4 2935.3,1253.6  A 1259.940,1259.940 0.00 0,1 2936.3,1255.6 L 2936.3,1255.6 2887.0,1278.3 2835.6,1300.4 2782.4,1321.9 2727.4,1343.1 2670.9,1364.2 2612.9,1385.1 2553.7,1406.1 2493.4,1427.3 2432.1,1448.8 2369.9,1470.6 2307.0,1492.8 2243.5,1515.6 2179.5,1538.9 2115.2,1562.8 2050.6,1587.3 1985.8,1612.4 1921.0,1638.3 1856.2,1664.7 1791.6,1691.9 1727.2,1719.6 1663.1,1747.9 1599.3,1776.8 1536.1,1806.1 1473.3,1835.9 1411.1,1866.0 1349.5,1896.3 1288.6,1926.8 1228.5,1957.3 1169.1,1987.7 1110.5,2017.9 1052.8,2047.7 996.0,2077.0 940.0,2105.6 885.0,2133.3 830.8,2159.9 777.7,2185.3 725.4,2209.2 674.1,2231.3 623.7,2251.5  Z" style="stroke-width: 0.0;  stroke: rgb(115,115,115); fill: rgb(189,110,48); opacity: 0.333;" />
<path d="M 622.958,2249.468 A 1259.940,1259.940 0.00 0,1 622.2,2247.4 L 622.2,2247.4 672.6,2227.4 723.9,2205.4 776.2,2181.7 829.5,2156.5 883.7,2130.1 938.8,2102.6 994.8,2074.2 1051.7,2045.0 1109.5,2015.4 1168.2,1985.4 1227.6,1955.1 1287.8,1924.7 1348.8,1894.4 1410.4,1864.2 1472.7,1834.2 1535.6,1804.6 1598.9,1775.4 1662.7,1746.6 1726.9,1718.4 1791.3,1690.8 1856.0,1663.8 1920.8,1637.4 1985.7,1611.7 2050.5,1586.6 2115.1,1562.2 2179.5,1538.4 2243.5,1515.1 2307.0,1492.5 2370.0,1470.3 2432.1,1448.5 2493.5,1427.1 2553.8,1406.0 2613.0,1385.0 2671.0,1364.1 2727.5,1343.1 2782.4,1321.9 2835.7,1300.3 2887.0,1278.3 2936.3,1255.6  A 1259.940,1259.940 0.00 0,1 2937.2,1257.6 L 2937.2,1257.6 2887.9,1280.2 2836.5,1302.2 2783.2,1323.6 2728.2,1344.8 2671.6,1365.7 2613.7,1386.5 2554.4,1407.5 2494.0,1428.5 2432.7,1449.9 2370.5,1471.6 2307.5,1493.7 2244.0,1516.4 2180.0,1539.5 2115.6,1563.3 2050.9,1587.7 1986.1,1612.8 1921.3,1638.5 1856.5,1664.8 1791.8,1691.8 1727.3,1719.5 1663.2,1747.7 1599.4,1776.4 1536.0,1805.7 1473.2,1835.3 1411.0,1865.3 1349.3,1895.5 1288.4,1925.9 1228.2,1956.3 1168.8,1986.6 1110.2,2016.7 1052.4,2046.4 995.5,2075.6 939.5,2104.1 884.4,2131.7 830.2,2158.2 777.0,2183.5 724.7,2207.3 673.4,2229.3 623.0,2249.5  Z" style="stroke-width: 0.0;  stroke: rgb(115,115,115); fill: rgb(189,110,48); opacity: 0.333;" />
<path d="M 622.176,2247.413 A 1259.940,1259.940 0.00 0,1 621.4,2245.4 L 621.4,2245.4 669.0,2228.5 718.9,2213.0 770.9,2198.7 824.8,2185.5 880.5,2173.2 938.0,2161.9 997.1,2151.3 1057.7,2141.4 1119.6,2132.1 1182.8,2123.3 1247.0,2115.0 1312.3,2107.0 1378.5,2099.5 1445.4,2092.2 1513.0,2085.2 1581.1,2078.5 1649.6,2071.9 1718.4,2065.6 1787.4,2059.5 1856.5,2053.6 1925.6,2047.9 1994.5,2042.4 2063.1,2037.2 2131.4,2032.2 2199.1,2027.6 2266.3,2023.4 2332.8,2019.6 2398.5,2016.2 2463.2,2013.5 2527.0,2011.4 2589.6,2010.0 2651.0,2009.5 2711.0,2009.9 2769.6,2011.3 2826.6,2013.8 2882.0,2017.7 2935.6,2022.9 2987.4,2029.7 3037.2,2038.2  A 1259.940,1259.940 0.00 0,1 3036.8,2040.4 L 3036.8,2040.4 2987.0,2031.8 2935.3,2024.9 2881.7,2019.6 2826.3,2015.7 2769.3,2013.0 2710.8,2011.6 2650.8,2011.1 2589.4,2011.6 2526.9,2012.9 2463.1,2014.9 2398.4,2017.6 2332.8,2020.9 2266.3,2024.7 2199.1,2028.8 2131.4,2033.4 2063.1,2038.3 1994.5,2043.5 1925.6,2049.0 1856.6,2054.7 1787.6,2060.6 1718.6,2066.8 1649.8,2073.1 1581.3,2079.7 1513.2,2086.4 1445.6,2093.4 1378.7,2100.7 1312.6,2108.3 1247.4,2116.3 1183.1,2124.7 1120.0,2133.5 1058.1,2142.9 997.6,2152.8 938.5,2163.5 881.1,2174.9 825.4,2187.2 771.5,2200.5 719.6,2214.9 669.8,2230.5 622.2,2247.4  Z" style="stroke-width: 0.0;  stroke: rgb(115,115,115); fill: rgb(189,110,48); opacity: 0.333;" />
<path d="M 621.397,2245.357 A 1259.940,1259.940 0.00 0,1 620.6,2243.3 L 620.6,2243.3 668.3,2226.5 718.2,2211.1 770.2,2196.9 824.1,2183.8 879.9,2171.6 937.4,2160.4 996.5,2149.9 1057.1,2140.1 1119.0,2130.9 1182.2,2122.2 1246.5,2114.0 1311.8,2106.2 1378.0,2098.7 1444.9,2091.6 1512.5,2084.7 1580.6,2078.1 1649.1,2071.7 1718.0,2065.5 1787.0,2059.5 1856.1,2053.7 1925.1,2048.1 1994.1,2042.7 2062.7,2037.6 2131.0,2032.8 2198.8,2028.3 2265.9,2024.2 2332.4,2020.5 2398.1,2017.3 2462.9,2014.7 2526.6,2012.7 2589.2,2011.4 2650.6,2011.0 2710.6,2011.5 2769.2,2013.0 2826.2,2015.6 2881.6,2019.6 2935.2,2024.9 2987.0,2031.8 3036.8,2040.4  A 1259.940,1259.940 0.00 0,1 3036.4,2042.6 L 3036.4,2042.6 2986.6,2033.9 2934.9,2026.9 2881.3,2021.5 2826.0,2017.5 2769.0,2014.7 2710.4,2013.1 2650.4,2012.6 2589.1,2013.0 2526.5,2014.2 2462.8,2016.1 2398.0,2018.7 2332.4,2021.8 2265.9,2025.5 2198.7,2029.5 2131.0,2034.0 2062.7,2038.8 1994.1,2043.9 1925.2,2049.2 1856.2,2054.8 1787.1,2060.6 1718.1,2066.6 1649.3,2072.8 1580.8,2079.3 1512.7,2085.9 1445.1,2092.8 1378.2,2100.0 1312.1,2107.5 1246.8,2115.3 1182.5,2123.6 1119.4,2132.3 1057.5,2141.6 997.0,2151.4 937.9,2162.0 880.4,2173.3 824.7,2185.5 770.8,2198.7 718.9,2213.0 669.0,2228.5 621.4,2245.4  Z" style="stroke-width: 0.0;  stroke: rgb(115,115,115); fill: rgb(189,110,48); opacity: 0.333;" />
<path d="M 620.621,2243.299 A 1259.940,1259.940 0.00 0,1 619.8,2241.2 L 619.8,2241.2 667.6,2224.6 717.5,2209.2 769.5,2195.1 823.4,2182.1 879.2,2170.0 936.8,2158.9 995.9,2148.5 1056.5,2138.8 1118.5,2129.7 1181.6,2121.1 1246.0,2113.0 1311.3,2105.3 1377.4,2098.0 1444.4,2091.0 1512.0,2084.2 1580.1,2077.7 1648.7,2071.4 1717.5,2065.3 1786.5,2059.4 1855.6,2053.8 1924.7,2048.3 1993.6,2043.1 2062.3,2038.1 2130.6,2033.4 2198.4,2029.0 2265.6,2025.0 2332.0,2021.4 2397.7,2018.3 2462.5,2015.8 2526.2,2013.9 2588.8,2012.8 2650.2,2012.5 2710.2,2013.0 2768.8,2014.7 2825.8,2017.4 2881.2,2021.5 2934.8,2026.9 2986.6,2033.9 3036.4,2042.6  A 1259.940,1259.940 0.00 0,1 3035.9,2044.7 L 3035.9,2044.7 2986.2,2036.0 2934.5,2028.9 2880.9,2023.4 2825.6,2019.3 2768.6,2016.4 2710.0,2014.7 2650.0,2014.1 2588.7,2014.3 2526.1,2015.4 2462.4,2017.3 2397.7,2019.7 2332.0,2022.7 2265.5,2026.3 2198.3,2030.2 2130.6,2034.6 2062.3,2039.3 1993.7,2044.2 1924.8,2049.4 1855.7,2054.9 1786.6,2060.6 1717.6,2066.5 1648.8,2072.6 1580.3,2078.9 1512.2,2085.4 1444.6,2092.2 1377.7,2099.3 1311.5,2106.6 1246.3,2114.4 1182.0,2122.5 1118.8,2131.1 1056.9,2140.3 996.3,2150.0 937.3,2160.5 879.8,2171.7 824.0,2183.8 770.1,2196.9 718.1,2211.1 668.3,2226.5 620.6,2243.3  Z" style="stroke-width: 0.0;  stroke: rgb(115,115,115); fill: rgb(189,110,48); opacity: 0.333;" />
<path d="M 619.849,2241.240 A 1259.940,1259.940 0.00 0,1 619.1,2239.2 L 619.1,2239.2 663.7,2223.9 710.4,2210.3 759.1,2198.4 809.7,2188.1 862.0,2179.4 916.0,2172.1 971.5,2166.3 1028.4,2161.9 1086.6,2158.8 1145.9,2156.9 1206.3,2156.4 1267.5,2157.0 1329.6,2158.8 1392.4,2161.7 1455.7,2165.7 1519.4,2170.8 1583.4,2176.9 1647.6,2184.0 1711.8,2192.1 1776.0,2201.2 1840.0,2211.2 1903.6,2222.2 1966.8,2234.1 2029.4,2246.9 2091.3,2260.6 2152.4,2275.1 2212.6,2290.6 2271.6,2307.0 2329.5,2324.3 2386.0,2342.5 2441.0,2361.7 2494.4,2381.7 2546.1,2402.7 2596.0,2424.6 2643.8,2447.6 2689.6,2471.5 2733.1,2496.4 2774.2,2522.4 2812.8,2549.4  A 1259.940,1259.940 0.00 0,1 2811.5,2551.2 L 2811.5,2551.2 2773.0,2524.1 2731.9,2498.1 2688.5,2473.1 2642.8,2449.1 2595.0,2426.1 2545.2,2404.1 2493.6,2383.1 2440.2,2363.0 2385.2,2343.8 2328.8,2325.6 2271.0,2308.3 2212.0,2291.8 2151.9,2276.3 2090.9,2261.7 2029.0,2248.0 1966.5,2235.2 1903.3,2223.3 1839.7,2212.3 1775.8,2202.3 1711.7,2193.2 1647.5,2185.1 1583.4,2178.0 1519.4,2171.9 1455.7,2166.9 1392.5,2162.9 1329.8,2160.0 1267.8,2158.3 1206.5,2157.7 1146.2,2158.3 1086.9,2160.2 1028.8,2163.4 971.9,2167.9 916.5,2173.8 862.5,2181.1 810.2,2189.9 759.7,2200.3 711.1,2212.3 664.4,2225.9 619.8,2241.2  Z" style="stroke-width: 0.0;  stroke: rgb(115,115,115); fill: rgb(189,110,48); opacity: 0.333;" />
<path d="M 619.081,2239.180 A 1259.940,1259.940 0.00 0,1 618.3,2237.1 L 618.3,2237.1 660.0,2223.0 703.5,2210.8 748.6,2200.5 795.2,2192.1 843.1,2185.6 892.2,2181.1 942.5,2178.4 993.7,2177.6 1045.8,2178.8 1098.5,2181.7 1151.8,2186.5 1205.6,2193.2 1259.7,2201.6 1314.0,2211.8 1368.4,2223.7 1422.7,2237.4 1476.9,2252.7 1530.8,2269.7 1584.2,2288.2 1637.2,2308.3 1689.5,2330.0 1741.1,2353.0 1791.7,2377.6 1841.4,2403.4 1890.0,2430.6 1937.4,2459.0 1983.5,2488.6 2028.1,2519.4 2071.1,2551.2 2112.6,2584.0 2152.2,2617.7 2190.0,2652.3 2225.8,2687.6 2259.5,2723.7 2291.1,2760.4 2320.4,2797.5 2347.2,2835.2 2371.6,2873.2 2393.4,2911.4  A 1259.940,1259.940 0.00 0,1 2391.5,2912.5 L 2391.5,2912.5 2369.8,2874.2 2345.5,2836.2 2318.7,2798.5 2289.5,2761.3 2258.0,2724.6 2224.4,2688.6 2188.6,2653.2 2150.9,2618.6 2111.4,2584.9 2070.0,2552.0 2027.0,2520.2 1982.5,2489.5 1936.5,2459.9 1889.3,2431.4 1840.7,2404.3 1791.1,2378.4 1740.5,2353.9 1689.1,2330.8 1636.8,2309.2 1583.9,2289.1 1530.5,2270.6 1476.7,2253.7 1422.6,2238.4 1368.3,2224.8 1314.0,2212.9 1259.8,2202.8 1205.8,2194.4 1152.0,2187.8 1098.8,2183.1 1046.1,2180.2 994.1,2179.2 942.9,2180.0 892.7,2182.7 843.6,2187.3 795.7,2193.9 749.2,2202.3 704.2,2212.7 660.7,2225.0 619.1,2239.2  Z" style="stroke-width: 0.0;  stroke: rgb(115,115,115); fill: rgb(189,110,48); opacity: 0.333;" />
<path d="M 618.316,2237.118 A 1259.940,1259.940 0.00 0,1 617.6,2235.1 L 617.6,2235.1 658.6,2221.2 701.2,2209.3 745.3,2199.4 790.7,2191.4 837.4,2185.4 885.1,2181.3 933.7,2179.3 983.1,2179.2 1033.2,2181.0 1083.8,2184.9 1134.8,2190.7 1186.0,2198.4 1237.4,2208.1 1288.9,2219.6 1340.2,2233.0 1391.3,2248.3 1442.1,2265.3 1492.4,2284.1 1542.1,2304.6 1591.1,2326.8 1639.3,2350.6 1686.7,2376.0 1733.0,2402.9 1778.2,2431.2 1822.1,2460.9 1864.7,2492.0 1905.9,2524.2 1945.5,2557.6 1983.6,2592.1 2019.8,2627.6 2054.3,2664.0 2086.8,2701.1 2117.4,2739.0 2145.8,2777.5 2172.1,2816.6 2196.1,2856.0 2217.7,2895.7 2236.9,2935.5 2253.6,2975.5  A 1259.940,1259.940 0.00 0,1 2251.5,2976.3 L 2251.5,2976.3 2234.9,2936.3 2215.8,2896.4 2194.3,2856.7 2170.3,2817.3 2144.2,2778.3 2115.8,2739.8 2085.4,2701.9 2052.9,2664.7 2018.6,2628.3 1982.4,2592.8 1944.4,2558.3 1904.9,2524.9 1863.8,2492.7 1821.3,2461.7 1777.4,2432.0 1732.3,2403.7 1686.1,2376.8 1638.8,2351.4 1590.7,2327.7 1541.7,2305.5 1492.1,2285.0 1441.9,2266.3 1391.2,2249.3 1340.1,2234.1 1288.9,2220.7 1237.5,2209.2 1186.2,2199.6 1135.0,2192.0 1084.0,2186.2 1033.5,2182.5 983.5,2180.7 934.1,2180.8 885.5,2183.0 837.9,2187.1 791.3,2193.2 745.9,2201.3 701.8,2211.3 659.3,2223.2 618.3,2237.1  Z" style="stroke-width: 0.0;  stroke: rgb(115,115,115); fill: rgb(189,110,48); opacity: 0.333;" />
<path d="M 554.557,1990.580 A 1259.940,1259.940 0.00 0,1 554.2,1988.4 L 554.2,1988.4 602.5,1982.3 652.7,1978.1 704.5,1975.9 758.0,1975.4 813.0,1976.5 869.5,1979.2 927.3,1983.3 986.3,1988.8 1046.4,1995.6 1107.6,2003.5 1169.7,2012.6 1232.6,2022.7 1296.2,2033.7 1360.4,2045.7 1425.0,2058.5 1490.1,2072.1 1555.3,2086.4 1620.8,2101.4 1686.2,2117.1 1751.6,2133.4 1816.7,2150.3 1881.6,2167.7 1945.9,2185.7 2009.7,2204.3 2072.8,2223.3 2135.1,2242.9 2196.5,2263.0 2256.7,2283.6 2315.8,2304.8 2373.5,2326.5 2429.8,2348.7 2484.5,2371.6 2537.5,2395.1 2588.6,2419.2 2637.7,2444.0 2684.7,2469.6 2729.4,2495.9 2771.7,2523.1 2811.5,2551.2  A 1259.940,1259.940 0.00 0,1 2810.2,2553.0 L 2810.2,2553.0 2770.5,2524.8 2728.2,2497.6 2683.6,2471.2 2636.7,2445.6 2587.6,2420.7 2536.6,2396.5 2483.6,2373.0 2429.0,2350.1 2372.8,2327.8 2315.1,2306.0 2256.1,2284.9 2195.9,2264.2 2134.6,2244.1 2072.3,2224.5 2009.3,2205.4 1945.5,2186.8 1881.2,2168.8 1816.4,2151.4 1751.3,2134.5 1686.0,2118.2 1620.6,2102.5 1555.2,2087.5 1489.9,2073.2 1424.9,2059.7 1360.3,2046.9 1296.1,2035.0 1232.5,2024.0 1169.7,2014.0 1107.6,2005.0 1046.5,1997.1 986.4,1990.4 927.4,1985.0 869.6,1980.9 813.2,1978.3 758.2,1977.2 704.7,1977.8 652.9,1980.2 602.8,1984.4 554.6,1990.6  Z" style="stroke-width: 0.0;  stroke: rgb(115,115,115); fill: rgb(189,110,48); opacity: 0.333;" />
<path d="M 554.226,1988.406 A 1259.940,1259.940 0.00 0,1 553.9,1986.2 L 553.9,1986.2 602.2,1980.2 652.3,1976.1 704.2,1974.0 757.7,1973.5 812.7,1974.8 869.2,1977.6 926.9,1981.8 986.0,1987.4 1046.1,1994.3 1107.2,2002.3 1169.3,2011.5 1232.2,2021.7 1295.8,2032.9 1359.9,2044.9 1424.6,2057.8 1489.6,2071.5 1554.8,2086.0 1620.2,2101.1 1685.7,2116.9 1751.0,2133.3 1816.1,2150.3 1880.9,2167.9 1945.3,2186.0 2009.0,2204.6 2072.1,2223.8 2134.3,2243.5 2195.6,2263.7 2255.9,2284.4 2314.9,2305.7 2372.6,2327.5 2428.9,2349.8 2483.5,2372.8 2536.4,2396.4 2587.5,2420.6 2636.6,2445.5 2683.5,2471.1 2728.2,2497.6 2770.5,2524.8 2810.2,2553.0  A 1259.940,1259.940 0.00 0,1 2808.9,2554.7 L 2808.9,2554.7 2769.2,2526.5 2727.0,2499.2 2682.4,2472.7 2635.5,2447.0 2586.5,2422.1 2535.5,2397.8 2482.6,2374.2 2428.1,2351.2 2371.9,2328.8 2314.2,2306.9 2255.2,2285.6 2195.1,2264.9 2133.8,2244.7 2071.6,2225.0 2008.6,2205.8 1944.8,2187.1 1880.5,2169.0 1815.8,2151.4 1750.7,2134.4 1685.4,2118.0 1620.0,2102.2 1554.7,2087.1 1489.4,2072.7 1424.4,2059.0 1359.8,2046.2 1295.7,2034.1 1232.2,2023.0 1169.3,2012.9 1107.3,2003.8 1046.1,1995.8 986.0,1989.0 927.1,1983.4 869.3,1979.3 812.9,1976.6 757.9,1975.4 704.4,1975.9 652.6,1978.2 602.5,1982.3 554.2,1988.4  Z" style="stroke-width: 0.0;  stroke: rgb(115,115,115); fill: rgb(189,110,48); opacity: 0.333;" />
<path d="M 553.899,1986.231 A 1259.940,1259.940 0.00 0,1 553.6,1984.1 L 553.6,1984.1 598.7,1978.6 645.3,1975.5 693.4,1974.4 742.7,1975.5 793.2,1978.7 844.8,1983.8 897.3,1991.0 950.7,2000.0 1004.8,2010.8 1059.4,2023.5 1114.6,2037.9 1170.1,2053.9 1225.9,2071.6 1281.8,2090.9 1337.8,2111.6 1393.6,2133.8 1449.3,2157.4 1504.6,2182.4 1559.5,2208.6 1613.8,2236.1 1667.5,2264.7 1720.4,2294.4 1772.5,2325.2 1823.5,2357.0 1873.4,2389.7 1922.1,2423.3 1969.4,2457.7 2015.3,2492.8 2059.6,2528.7 2102.2,2565.2 2143.0,2602.3 2182.0,2639.9 2218.9,2677.9 2253.6,2716.4 2286.1,2755.2 2316.3,2794.2 2344.0,2833.5 2369.1,2872.9 2391.5,2912.5  A 1259.940,1259.940 0.00 0,1 2389.6,2913.5 L 2389.6,2913.5 2367.2,2874.0 2342.2,2834.5 2314.6,2795.2 2284.5,2756.1 2252.1,2717.3 2217.4,2678.8 2180.6,2640.8 2141.7,2603.1 2101.0,2566.1 2058.5,2529.5 2014.2,2493.7 1968.4,2458.5 1921.2,2424.1 1872.6,2390.5 1822.7,2357.8 1771.8,2326.0 1719.8,2295.3 1667.0,2265.6 1613.3,2237.0 1559.0,2209.6 1504.2,2183.4 1448.9,2158.4 1393.3,2134.9 1337.5,2112.7 1281.6,2092.0 1225.8,2072.8 1170.0,2055.2 1114.5,2039.2 1059.4,2024.9 1004.8,2012.3 950.8,2001.5 897.4,1992.6 844.9,1985.6 793.4,1980.5 742.9,1977.4 693.6,1976.4 645.6,1977.5 599.0,1980.7 553.9,1986.2  Z" style="stroke-width: 0.0;  stroke: rgb(115,115,115); fill: rgb(189,110,48); opacity: 0.333;" />
<path d="M 540.336,1826.386 A 1259.940,1259.940 0.00 0,1 540.3,1824.2 L 540.3,1824.2 591.8,1822.2 644.9,1818.2 699.5,1812.6 755.5,1805.3 812.9,1796.6 871.6,1786.6 931.6,1775.6 992.7,1763.6 1054.8,1750.7 1118.0,1737.1 1182.0,1722.9 1246.9,1708.2 1312.5,1693.0 1378.8,1677.6 1445.5,1661.9 1512.8,1646.0 1580.4,1630.0 1648.3,1613.9 1716.3,1597.8 1784.3,1581.7 1852.4,1565.7 1920.3,1549.7 1987.9,1533.7 2055.1,1517.8 2121.9,1501.9 2188.0,1486.1 2253.4,1470.2 2318.0,1454.3 2381.7,1438.4 2444.2,1422.3 2505.6,1405.9 2565.6,1389.3 2624.1,1372.4 2681.1,1355.0 2736.3,1337.0 2789.7,1318.4 2841.0,1299.1 2890.3,1278.8 2937.2,1257.6  A 1259.940,1259.940 0.00 0,1 2938.1,1259.6 L 2938.1,1259.6 2891.1,1280.8 2841.9,1300.9 2790.4,1320.2 2737.0,1338.7 2681.8,1356.6 2624.8,1374.0 2566.2,1390.8 2506.1,1407.4 2444.7,1423.7 2382.1,1439.7 2318.5,1455.7 2253.8,1471.5 2188.4,1487.3 2122.2,1503.1 2055.4,1519.0 1988.2,1534.9 1920.6,1550.8 1852.7,1566.8 1784.6,1582.9 1716.5,1599.0 1648.5,1615.1 1580.6,1631.2 1513.0,1647.2 1445.8,1663.1 1379.0,1678.8 1312.7,1694.3 1247.1,1709.5 1182.2,1724.3 1118.2,1738.5 1055.0,1752.2 992.8,1765.1 931.7,1777.2 871.8,1788.3 813.1,1798.4 755.6,1807.1 699.6,1814.5 645.0,1820.3 591.9,1824.3 540.3,1826.4  Z" style="stroke-width: 0.0;  stroke: rgb(115,115,115); fill: rgb(189,110,48); opacity: 0.333;" />
<path d="M 540.292,1824.188 A 1259.940,1259.940 0.00 0,1 540.3,1822.0 L 540.3,1822.0 589.9,1822.2 641.2,1824.6 694.1,1828.9 748.3,1835.1 804.0,1842.9 860.9,1852.3 919.0,1863.1 978.3,1875.2 1038.6,1888.6 1099.8,1903.0 1161.8,1918.4 1224.7,1934.8 1288.2,1952.0 1352.2,1969.9 1416.7,1988.5 1481.6,2007.7 1546.7,2027.4 1612.0,2047.7 1677.3,2068.3 1742.6,2089.4 1807.6,2110.9 1872.4,2132.6 1936.8,2154.7 2000.6,2177.1 2063.8,2199.7 2126.2,2222.7 2187.8,2245.9 2248.3,2269.4 2307.7,2293.1 2365.8,2317.2 2422.5,2341.7 2477.6,2366.5 2531.1,2391.7 2582.8,2417.4 2632.5,2443.6 2680.1,2470.4 2725.4,2497.8 2768.4,2525.9 2808.9,2554.7  A 1259.940,1259.940 0.00 0,1 2807.6,2556.5 L 2807.6,2556.5 2767.2,2527.6 2724.3,2499.4 2679.0,2472.0 2631.4,2445.2 2581.8,2418.9 2530.2,2393.2 2476.8,2367.9 2421.7,2343.0 2365.0,2318.5 2307.0,2294.4 2247.6,2270.6 2187.2,2247.0 2125.7,2223.8 2063.3,2200.9 2000.1,2178.2 1936.3,2155.8 1872.0,2133.7 1807.2,2111.9 1742.2,2090.5 1677.0,2069.4 1611.7,2048.8 1546.4,2028.6 1481.3,2008.8 1416.5,1989.7 1352.0,1971.1 1287.9,1953.2 1224.5,1936.1 1161.7,1919.8 1099.6,1904.4 1038.4,1890.0 978.1,1876.8 918.9,1864.7 860.8,1854.0 803.9,1844.7 748.3,1836.9 694.0,1830.9 641.2,1826.6 590.0,1824.4 540.3,1824.2  Z" style="stroke-width: 0.0;  stroke: rgb(115,115,115); fill: rgb(189,110,48); opacity: 0.333;" />
<path d="M 540.252,1821.989 A 1259.940,1259.940 0.00 0,1 540.2,1819.8 L 540.2,1819.8 589.9,1820.1 641.2,1822.6 694.0,1827.0 748.3,1833.2 803.9,1841.2 860.8,1850.6 918.9,1861.6 978.1,1873.8 1038.4,1887.2 1099.6,1901.8 1161.6,1917.3 1224.4,1933.8 1287.9,1951.1 1351.9,1969.1 1416.4,1987.8 1481.2,2007.1 1546.3,2027.0 1611.6,2047.3 1676.8,2068.1 1742.0,2089.3 1807.1,2110.9 1871.8,2132.7 1936.2,2154.9 2000.0,2177.4 2063.1,2200.2 2125.5,2223.2 2187.0,2246.5 2247.5,2270.1 2306.8,2294.0 2364.9,2318.2 2421.5,2342.8 2476.6,2367.7 2530.1,2393.0 2581.7,2418.8 2631.3,2445.1 2678.9,2471.9 2724.2,2499.4 2767.2,2527.6 2807.6,2556.5  A 1259.940,1259.940 0.00 0,1 2806.2,2558.3 L 2806.2,2558.3 2765.9,2529.3 2723.0,2501.0 2677.8,2473.5 2630.3,2446.6 2580.7,2420.3 2529.1,2394.4 2475.8,2369.1 2420.7,2344.1 2364.1,2319.5 2306.1,2295.3 2246.8,2271.3 2186.4,2247.7 2124.9,2224.4 2062.6,2201.3 1999.5,2178.5 1935.7,2156.0 1871.4,2133.8 1806.7,2111.9 1741.7,2090.4 1676.5,2069.2 1611.2,2048.4 1546.0,2028.1 1480.9,2008.3 1416.1,1989.0 1351.7,1970.3 1287.7,1952.3 1224.2,1935.1 1161.5,1918.7 1099.4,1903.2 1038.3,1888.7 978.0,1875.3 918.8,1863.2 860.7,1852.3 803.8,1842.9 748.2,1835.1 694.0,1828.9 641.2,1824.6 589.9,1822.2 540.3,1822.0  Z" style="stroke-width: 0.0;  stroke: rgb(115,115,115); fill: rgb(189,110,48); opacity: 0.333;" />
<path d="M 546.290,1674.863 A 1259.940,1259.940 0.00 0,1 546.5,1672.7 L 546.5,1672.7 596.9,1676.7 649.2,1678.9 703.1,1679.4 758.7,1678.3 815.8,1675.9 874.3,1672.1 934.2,1667.2 995.3,1661.3 1057.6,1654.5 1121.0,1646.8 1185.3,1638.4 1250.5,1629.4 1316.4,1619.9 1383.1,1609.8 1450.2,1599.4 1517.9,1588.6 1585.8,1577.4 1654.0,1566.1 1722.4,1554.5 1790.8,1542.7 1859.0,1530.7 1927.1,1518.5 1994.9,1506.2 2062.2,1493.7 2129.0,1481.0 2195.1,1468.1 2260.4,1455.0 2324.9,1441.6 2388.3,1427.9 2450.5,1413.9 2511.5,1399.4 2571.1,1384.5 2629.2,1369.0 2685.6,1352.9 2740.2,1336.1 2792.9,1318.4 2843.5,1299.9 2892.0,1280.3 2938.1,1259.6  A 1259.940,1259.940 0.00 0,1 2939.1,1261.6 L 2939.1,1261.6 2892.9,1282.2 2844.3,1301.7 2793.6,1320.2 2740.9,1337.8 2686.2,1354.6 2629.8,1370.6 2571.7,1386.0 2512.1,1400.9 2451.0,1415.3 2388.7,1429.3 2325.3,1442.9 2260.8,1456.2 2195.5,1469.3 2129.3,1482.2 2062.5,1494.8 1995.1,1507.3 1927.4,1519.6 1859.3,1531.8 1791.0,1543.8 1722.6,1555.6 1654.2,1567.2 1586.0,1578.6 1518.0,1589.7 1450.3,1600.6 1383.2,1611.1 1316.5,1621.1 1250.6,1630.7 1185.4,1639.8 1121.0,1648.2 1057.6,1656.0 995.3,1662.9 934.2,1668.9 874.3,1673.8 815.7,1677.6 758.6,1680.2 703.0,1681.3 649.0,1680.9 596.8,1678.8 546.3,1674.9  Z" style="stroke-width: 0.0;  stroke: rgb(115,115,115); fill: rgb(189,110,48); opacity: 0.333;" />
<path d="M 546.510,1672.675 A 1259.940,1259.940 0.00 0,1 546.7,1670.5 L 546.7,1670.5 600.5,1676.9 655.7,1684.9 712.3,1694.4 770.2,1705.1 829.3,1716.7 889.5,1729.2 950.9,1742.4 1013.4,1756.0 1076.8,1769.9 1141.2,1783.9 1206.4,1798.1 1272.3,1812.1 1339.0,1825.9 1406.3,1839.4 1474.2,1852.6 1542.5,1865.3 1611.2,1877.5 1680.2,1889.2 1749.5,1900.2 1818.8,1910.6 1888.3,1920.4 1957.7,1929.6 2026.9,1938.1 2096.0,1946.1 2164.7,1953.5 2233.0,1960.3 2300.8,1966.7 2368.0,1972.7 2434.4,1978.4 2500.1,1983.8 2564.8,1989.2 2628.5,1994.6 2691.0,2000.1 2752.3,2005.9 2812.2,2012.1 2870.7,2018.9 2927.5,2026.5 2982.6,2035.0 3035.9,2044.7  A 1259.940,1259.940 0.00 0,1 3035.5,2046.9 L 3035.5,2046.9 2982.3,2037.1 2927.2,2028.5 2870.4,2020.8 2811.9,2013.9 2752.0,2007.6 2690.8,2001.7 2628.3,1996.2 2564.6,1990.7 2499.9,1985.3 2434.3,1979.8 2367.8,1974.0 2300.6,1968.0 2232.8,1961.6 2164.5,1954.7 2095.8,1947.3 2026.8,1939.3 1957.5,1930.7 1888.1,1921.6 1818.7,1911.8 1749.3,1901.3 1680.0,1890.3 1611.0,1878.7 1542.3,1866.5 1474.0,1853.8 1406.1,1840.6 1338.8,1827.1 1272.1,1813.4 1206.1,1799.4 1140.9,1785.3 1076.6,1771.3 1013.1,1757.5 950.7,1744.0 889.3,1730.9 829.0,1718.5 769.9,1706.9 712.0,1696.3 655.5,1686.9 600.3,1679.0 546.5,1672.7  Z" style="stroke-width: 0.0;  stroke: rgb(115,115,115); fill: rgb(189,110,48); opacity: 0.333;" />
<path d="M 567.593,1538.044 A 1259.940,1259.940 0.00 0,1 568.1,1535.9 L 568.1,1535.9 621.8,1546.6 677.3,1556.3 734.5,1565.2 793.3,1573.4 853.4,1581.1 914.9,1588.6 977.6,1595.9 1041.3,1603.2 1106.0,1610.7 1171.5,1618.4 1237.7,1626.6 1304.6,1635.1 1372.0,1644.2 1439.9,1654.0 1508.1,1664.4 1576.5,1675.5 1645.0,1687.3 1713.7,1700.0 1782.2,1713.4 1850.7,1727.5 1919.0,1742.5 1987.0,1758.1 2054.6,1774.5 2121.8,1791.5 2188.5,1809.0 2254.6,1827.0 2320.1,1845.4 2384.9,1864.1 2448.9,1883.0 2512.1,1901.9 2574.5,1920.7 2635.9,1939.3 2696.3,1957.5 2755.6,1975.0 2813.9,1991.8 2871.1,2007.6 2927.1,2022.2 2981.9,2035.4 3035.5,2046.9  A 1259.940,1259.940 0.00 0,1 3035.1,2049.0 L 3035.1,2049.0 2981.5,2037.4 2926.7,2024.2 2870.7,2009.5 2813.5,1993.6 2755.2,1976.7 2695.8,1959.1 2635.4,1940.9 2574.1,1922.2 2511.7,1903.3 2448.6,1884.4 2384.5,1865.4 2319.8,1846.7 2254.3,1828.2 2188.2,1810.2 2121.5,1792.6 2054.3,1775.6 1986.7,1759.2 1918.7,1743.6 1850.5,1728.6 1782.0,1714.5 1713.4,1701.1 1644.8,1688.5 1576.3,1676.6 1507.9,1665.5 1439.7,1655.2 1371.9,1645.5 1304.4,1636.4 1237.5,1627.9 1171.3,1619.8 1105.8,1612.2 1041.1,1604.8 977.3,1597.5 914.7,1590.2 853.2,1582.9 793.0,1575.2 734.2,1567.1 676.9,1558.3 621.4,1548.7 567.6,1538.0  Z" style="stroke-width: 0.0;  stroke: rgb(115,115,115); fill: rgb(189,110,48); opacity: 0.333;" />
<path d="M 568.052,1535.893 A 1259.940,1259.940 0.00 0,1 568.5,1533.7 L 568.5,1533.7 616.3,1545.2 665.1,1559.2 714.9,1575.5 765.6,1594.0 817.3,1614.5 869.8,1636.8 923.0,1661.0 977.0,1686.8 1031.7,1714.1 1086.9,1742.7 1142.7,1772.7 1198.9,1803.8 1255.5,1836.0 1312.4,1869.2 1369.6,1903.2 1426.8,1938.1 1484.1,1973.6 1541.4,2009.7 1598.5,2046.4 1655.4,2083.5 1711.9,2121.1 1768.0,2159.0 1823.6,2197.2 1878.5,2235.6 1932.6,2274.3 1985.9,2313.0 2038.1,2351.9 2089.2,2390.9 2139.0,2429.9 2187.5,2469.0 2234.5,2508.1 2279.8,2547.1 2323.3,2586.2 2364.9,2625.3 2404.4,2664.3 2441.7,2703.4 2476.7,2742.4 2509.1,2781.5 2538.8,2820.6  A 1259.940,1259.940 0.00 0,1 2537.0,2821.9 L 2537.0,2821.9 2507.4,2782.7 2475.0,2743.6 2440.2,2704.6 2403.0,2665.5 2363.5,2626.4 2322.0,2587.3 2278.5,2548.2 2233.3,2509.1 2186.4,2470.0 2138.0,2430.9 2088.2,2391.9 2037.2,2352.9 1985.0,2314.0 1931.8,2275.2 1877.7,2236.6 1822.8,2198.1 1767.3,2159.9 1711.3,2122.0 1654.7,2084.5 1597.9,2047.3 1540.8,2010.7 1483.6,1974.6 1426.3,1939.1 1369.0,1904.3 1311.9,1870.3 1255.0,1837.2 1198.4,1805.1 1142.2,1774.0 1086.4,1744.1 1031.2,1715.5 976.5,1688.3 922.5,1662.6 869.3,1638.5 816.8,1616.2 765.2,1595.8 714.4,1577.4 664.6,1561.2 615.8,1547.3 568.1,1535.9  Z" style="stroke-width: 0.0;  stroke: rgb(115,115,115); fill: rgb(189,110,48); opacity: 0.333;" />
</g>
<g id="plot0">
<g id="plot0-axis">
</g>
<text x="1482.2" y="202.7" font-size="23.4px" font-family="CMUBright-Roman" style="text-anchor:end;fill:rgb(0,0,0);" transform="rotate(-280.9,1482.2,202.7)" >Spanish-Linguistics</text>
<text x="677.9" y="619.6" font-size="23.4px" font-family="CMUBright-Roman" style="text-anchor:end;fill:rgb(0,0,0);" transform="rotate(-313.2,677.9,619.6)" >Eng-Prof-Writing</text>
<text x="3397.8" y="2115.3" font-size="23.4px" font-family="CMUBright-Roman" style="text-anchor:start;fill:rgb(0,0,0);" transform="rotate(10.9,3397.8,2115.3)" >Business-Finance</text>
<text x="1051.7" y="353.4" font-size="23.4px" font-family="CMUBright-Roman" style="text-anchor:end;fill:rgb(0,0,0);" transform="rotate(-297.0,1051.7,353.4)" >Spanish-Cultural</text>
<text x="729.0" y="3026.9" font-size="23.4px" font-family="CMUBright-Roman" style="text-anchor:end;fill:rgb(0,0,0);" transform="rotate(-408.6,729.0,3026.9)" >Catholic-Studies</text>
<text x="279.2" y="2382.7" font-size="23.4px" font-family="CMUBright-Roman" style="text-anchor:end;fill:rgb(0,0,0);" transform="rotate(-380.7,279.2,2382.7)" >Music-Business</text>
<text x="3106.1" y="2772.9" font-size="23.4px" font-family="CMUBright-Roman" style="text-anchor:start;fill:rgb(0,0,0);" transform="rotate(36.4,3106.1,2772.9)" >Health-Science</text>
<text x="3261.1" y="1080.5" font-size="23.4px" font-family="CMUBright-Roman" style="text-anchor:start;fill:rgb(0,0,0);" transform="rotate(333.5,3261.1,1080.5)" >Unclassified</text>
<text x="2557.5" y="3241.7" font-size="23.4px" font-family="CMUBright-Roman" style="text-anchor:start;fill:rgb(0,0,0);" transform="rotate(62.0,2557.5,3241.7)" >Edu-Service</text>
<text x="178.7" y="1645.4" font-size="23.4px" font-family="CMUBright-Roman" style="text-anchor:end;fill:rgb(0,0,0);" transform="rotate(-354.2,178.7,1645.4)" >Art-History</text>
<text x="205.9" y="1466.4" font-size="23.4px" font-family="CMUBright-Roman" style="text-anchor:end;fill:rgb(0,0,0);" transform="rotate(-347.9,205.9,1466.4)" >Music-Perf</text>
<text x="2374.3" y="3324.0" font-size="23.4px" font-family="CMUBright-Roman" style="text-anchor:start;fill:rgb(0,0,0);" transform="rotate(69.0,2374.3,3324.0)" >Arts-Legal</text>
<text x="2747.3" y="3124.8" font-size="23.4px" font-family="CMUBright-Roman" style="text-anchor:start;fill:rgb(0,0,0);" transform="rotate(54.1,2747.3,3124.8)" >Tech-Eng</text>
<text x="171.9" y="1840.8" font-size="23.4px" font-family="CMUBright-Roman" style="text-anchor:end;fill:rgb(0,0,0);" transform="rotate(-361.1,171.9,1840.8)" >Theology</text>
<text x="1661.4" y="177.3" font-size="23.4px" font-family="CMUBright-Roman" style="text-anchor:end;fill:rgb(0,0,0);" transform="rotate(-274.6,1661.4,177.3)" >German</text>
<text x="376.5" y="1008.8" font-size="23.4px" font-family="CMUBright-Roman" style="text-anchor:end;fill:rgb(0,0,0);" transform="rotate(-330.6,376.5,1008.8)" >English</text>
<text x="1278.8" y="257.0" font-size="23.4px" font-family="CMUBright-Roman" style="text-anchor:end;fill:rgb(0,0,0);" transform="rotate(-288.4,1278.8,257.0)" >French</text>
<text x="190.8" y="2051.0" font-size="23.4px" font-family="CMUBright-Roman" style="text-anchor:end;fill:rgb(0,0,0);" transform="rotate(-368.6,190.8,2051.0)" >Music</text>
</g>
<defs>
<pattern id="checker" width="10" height="10" patternTransform="rotate(45 0 0)" patternUnits="userSpaceOnUse"><line x1="0" y1="0" x2="10" y2="0" style="stroke:black;stroke-width:2" /><line x1="0" y1="0" x2="0" y2="10" style="stroke:black;stroke-width:2" /></pattern>
<pattern id="hline" width="10" height="10" patternTransform="rotate(0 0 0)" patternUnits="userSpaceOnUse"><line x1="0" y1="0" x2="10" y2="0" style="stroke:black;stroke-width:5" /></pattern>
<pattern id="vline-sparse" width="10" height="10" patternTransform="rotate(0 0 0)" patternUnits="userSpaceOnUse"><line x1="0" y1="0" x2="0" y2="10" style="stroke:black;stroke-width:2" /></pattern>
<pattern id="checker" width="10" height="10" patternTransform="rotate(45 0 0)" patternUnits="userSpaceOnUse"><line x1="0" y1="0" x2="10" y2="0" style="stroke:black;stroke-width:5" /><line x1="0" y1="0" x2="0" y2="10" style="stroke:black;stroke-width:4" /></pattern>
<pattern id="vline" width="10" height="10" patternTransform="rotate(0 0 0)" patternUnits="userSpaceOnUse"><line x1="0" y1="0" x2="0" y2="10" style="stroke:black;stroke-width:5" /></pattern>
<pattern id="hline-sparse" width="10" height="10" patternTransform="rotate(0 0 0)" patternUnits="userSpaceOnUse"><line x1="0" y1="0" x2="10" y2="0" style="stroke:black;stroke-width:2" /></pattern>
</defs>
</svg>
