<?xml version="1.0" encoding="utf-8" standalone="no"?>
<!DOCTYPE svg PUBLIC "-//W3C//DTD SVG 1.1//EN" "http://www.w3.org/Graphics/SVG/1.1/DTD/svg11.dtd">
<svg width="3000px" height="3000px" version="1.1" xmlns="http://www.w3.org/2000/svg" xmlns:xlink="http://www.w3.org/1999/xlink">
<g id="bg">
<rect x="0" y="0" width="3000px" height="3000px" style="fill:rgb(255,255,255);"/>
</g>
<g id="ideograms">
<path d="M1500.000,180.000 A1320.000,1320.000 40.000 0,1 1815.868,218.350 L1823.047,189.221 A1350.000,1350.000 0.000 0,0 1500.000,150.000 Z" style="stroke-width:2.0;stroke:rgb(115,115,115);stroke-linecap:round;fill:rgb(153,102,0);" />
<text x="1670.8" y="92.8" font-size="31.2px" font-family="CMUBright-Roman" style="text-anchor:middle;fill:rgb(0,0,0);" transform="rotate(366.9,1670.8,92.8)" >Major<tspan baseline-shift="-40%" font-size="90%">1</tspan></text>
<line x1='1500.0' y1='150.0' x2='1500.0' y2='140.0' style="stroke-width:2.0;stroke:rgb(0,0,0);stroke-linecap:round;fill:none;" />
<text x="1506.0" y="135.0" font-size="15.6px" font-family="CMUBright-Roman" style="text-anchor:start;fill:rgb(0,0,0);" transform="rotate(270.0,1506.0,135.0)" >0.0</text>
<line x1='1539.6' y1='150.6' x2='1539.8' y2='145.6' style="stroke-width:2.0;stroke:rgb(0,0,0);stroke-linecap:round;fill:none;" />
<line x1='1579.2' y1='152.3' x2='1579.5' y2='147.3' style="stroke-width:2.0;stroke:rgb(0,0,0);stroke-linecap:round;fill:none;" />
<line x1='1618.8' y1='155.2' x2='1619.2' y2='150.3' style="stroke-width:2.0;stroke:rgb(0,0,0);stroke-linecap:round;fill:none;" />
<line x1='1658.2' y1='159.3' x2='1658.8' y2='154.3' style="stroke-width:2.0;stroke:rgb(0,0,0);stroke-linecap:round;fill:none;" />
<line x1='1697.5' y1='164.5' x2='1698.9' y2='154.6' style="stroke-width:2.0;stroke:rgb(0,0,0);stroke-linecap:round;fill:none;" />
<text x="1705.6" y="150.6" font-size="15.6px" font-family="CMUBright-Roman" style="text-anchor:start;fill:rgb(0,0,0);" transform="rotate(278.4,1705.6,150.6)" >5.0</text>
<line x1='1736.6' y1='170.9' x2='1737.5' y2='166.0' style="stroke-width:2.0;stroke:rgb(0,0,0);stroke-linecap:round;fill:none;" />
<line x1='1775.5' y1='178.4' x2='1776.5' y2='173.5' style="stroke-width:2.0;stroke:rgb(0,0,0);stroke-linecap:round;fill:none;" />
<line x1='1814.2' y1='187.1' x2='1815.4' y2='182.2' style="stroke-width:2.0;stroke:rgb(0,0,0);stroke-linecap:round;fill:none;" />
<path d="M1500.000,180.000 A1320.000,1320.000 40.000 0,1 1815.868,218.350 L1823.047,189.221 A1350.000,1350.000 0.000 0,0 1500.000,150.000 Z" style="stroke-width:2.0;stroke:rgb(115,115,115);stroke-linecap:round;fill:none;" />
<path d="M1853.356,228.175 A1320.000,1320.000 40.000 0,1 2813.428,1368.448 L2843.279,1365.458 A1350.000,1350.000 0.000 0,0 1861.387,199.270 Z" style="stroke-width:2.0;stroke:rgb(115,115,115);stroke-linecap:round;fill:rgb(102,102,0);" />
<text x="2584.3" y="587.0" font-size="31.2px" font-family="CMUBright-Roman" style="text-anchor:middle;fill:rgb(0,0,0);" transform="rotate(409.9,2584.3,587.0)" >Major<tspan baseline-shift="-40%" font-size="90%">2</tspan></text>
<line x1='1861.4' y1='199.3' x2='1864.1' y2='189.6' style="stroke-width:2.0;stroke:rgb(0,0,0);stroke-linecap:round;fill:none;" />
<text x="1871.2" y="186.4" font-size="15.6px" font-family="CMUBright-Roman" style="text-anchor:start;fill:rgb(0,0,0);" transform="rotate(285.5,1871.2,186.4)" >0.0</text>
<line x1='1899.4' y1='210.4' x2='1900.9' y2='205.7' style="stroke-width:2.0;stroke:rgb(0,0,0);stroke-linecap:round;fill:none;" />
<line x1='1937.1' y1='222.7' x2='1938.7' y2='218.0' style="stroke-width:2.0;stroke:rgb(0,0,0);stroke-linecap:round;fill:none;" />
<line x1='1974.4' y1='236.1' x2='1976.2' y2='231.4' style="stroke-width:2.0;stroke:rgb(0,0,0);stroke-linecap:round;fill:none;" />
<line x1='2011.3' y1='250.6' x2='2013.2' y2='245.9' style="stroke-width:2.0;stroke:rgb(0,0,0);stroke-linecap:round;fill:none;" />
<line x1='2047.8' y1='266.1' x2='2051.8' y2='257.0' style="stroke-width:2.0;stroke:rgb(0,0,0);stroke-linecap:round;fill:none;" />
<text x="2059.3" y="254.9" font-size="15.6px" font-family="CMUBright-Roman" style="text-anchor:start;fill:rgb(0,0,0);" transform="rotate(293.9,2059.3,254.9)" >5.0</text>
<line x1='2083.8' y1='282.7' x2='2085.9' y2='278.2' style="stroke-width:2.0;stroke:rgb(0,0,0);stroke-linecap:round;fill:none;" />
<line x1='2119.2' y1='300.4' x2='2121.5' y2='296.0' style="stroke-width:2.0;stroke:rgb(0,0,0);stroke-linecap:round;fill:none;" />
<line x1='2154.2' y1='319.1' x2='2156.6' y2='314.7' style="stroke-width:2.0;stroke:rgb(0,0,0);stroke-linecap:round;fill:none;" />
<line x1='2188.6' y1='338.8' x2='2191.1' y2='334.5' style="stroke-width:2.0;stroke:rgb(0,0,0);stroke-linecap:round;fill:none;" />
<line x1='2222.4' y1='359.5' x2='2227.7' y2='351.1' style="stroke-width:2.0;stroke:rgb(0,0,0);stroke-linecap:round;fill:none;" />
<text x="2235.4" y="350.1" font-size="15.6px" font-family="CMUBright-Roman" style="text-anchor:start;fill:rgb(0,0,0);" transform="rotate(302.3,2235.4,350.1)" >10.0</text>
<line x1='2255.5' y1='381.2' x2='2258.3' y2='377.1' style="stroke-width:2.0;stroke:rgb(0,0,0);stroke-linecap:round;fill:none;" />
<line x1='2288.0' y1='403.9' x2='2291.0' y2='399.8' style="stroke-width:2.0;stroke:rgb(0,0,0);stroke-linecap:round;fill:none;" />
<line x1='2319.9' y1='427.5' x2='2322.9' y2='423.5' style="stroke-width:2.0;stroke:rgb(0,0,0);stroke-linecap:round;fill:none;" />
<line x1='2351.0' y1='452.0' x2='2354.2' y2='448.1' style="stroke-width:2.0;stroke:rgb(0,0,0);stroke-linecap:round;fill:none;" />
<line x1='2381.4' y1='477.5' x2='2387.9' y2='469.9' style="stroke-width:2.0;stroke:rgb(0,0,0);stroke-linecap:round;fill:none;" />
<text x="2395.7" y="470.0" font-size="15.6px" font-family="CMUBright-Roman" style="text-anchor:start;fill:rgb(0,0,0);" transform="rotate(310.8,2395.7,470.0)" >15.0</text>
<line x1='2411.1' y1='503.8' x2='2414.4' y2='500.1' style="stroke-width:2.0;stroke:rgb(0,0,0);stroke-linecap:round;fill:none;" />
<line x1='2439.9' y1='530.9' x2='2443.4' y2='527.4' style="stroke-width:2.0;stroke:rgb(0,0,0);stroke-linecap:round;fill:none;" />
<line x1='2468.0' y1='559.0' x2='2471.5' y2='555.5' style="stroke-width:2.0;stroke:rgb(0,0,0);stroke-linecap:round;fill:none;" />
<line x1='2495.2' y1='587.8' x2='2498.8' y2='584.4' style="stroke-width:2.0;stroke:rgb(0,0,0);stroke-linecap:round;fill:none;" />
<line x1='2521.5' y1='617.4' x2='2529.1' y2='610.8' style="stroke-width:2.0;stroke:rgb(0,0,0);stroke-linecap:round;fill:none;" />
<text x="2536.8" y="612.1" font-size="15.6px" font-family="CMUBright-Roman" style="text-anchor:start;fill:rgb(0,0,0);" transform="rotate(319.2,2536.8,612.1)" >20.0</text>
<line x1='2547.0' y1='647.8' x2='2550.9' y2='644.6' style="stroke-width:2.0;stroke:rgb(0,0,0);stroke-linecap:round;fill:none;" />
<line x1='2571.5' y1='678.9' x2='2575.5' y2='675.8' style="stroke-width:2.0;stroke:rgb(0,0,0);stroke-linecap:round;fill:none;" />
<line x1='2595.2' y1='710.7' x2='2599.2' y2='707.7' style="stroke-width:2.0;stroke:rgb(0,0,0);stroke-linecap:round;fill:none;" />
<line x1='2617.9' y1='743.2' x2='2622.0' y2='740.4' style="stroke-width:2.0;stroke:rgb(0,0,0);stroke-linecap:round;fill:none;" />
<line x1='2639.6' y1='776.3' x2='2648.1' y2='770.9' style="stroke-width:2.0;stroke:rgb(0,0,0);stroke-linecap:round;fill:none;" />
<text x="2655.5" y="773.3" font-size="15.6px" font-family="CMUBright-Roman" style="text-anchor:start;fill:rgb(0,0,0);" transform="rotate(327.6,2655.5,773.3)" >25.0</text>
<line x1='2660.4' y1='810.1' x2='2664.7' y2='807.5' style="stroke-width:2.0;stroke:rgb(0,0,0);stroke-linecap:round;fill:none;" />
<line x1='2680.1' y1='844.4' x2='2684.5' y2='842.0' style="stroke-width:2.0;stroke:rgb(0,0,0);stroke-linecap:round;fill:none;" />
<line x1='2698.9' y1='879.4' x2='2703.3' y2='877.1' style="stroke-width:2.0;stroke:rgb(0,0,0);stroke-linecap:round;fill:none;" />
<line x1='2716.6' y1='914.8' x2='2721.1' y2='912.7' style="stroke-width:2.0;stroke:rgb(0,0,0);stroke-linecap:round;fill:none;" />
<line x1='2733.2' y1='950.8' x2='2742.4' y2='946.7' style="stroke-width:2.0;stroke:rgb(0,0,0);stroke-linecap:round;fill:none;" />
<text x="2749.4" y="950.2" font-size="15.6px" font-family="CMUBright-Roman" style="text-anchor:start;fill:rgb(0,0,0);" transform="rotate(336.0,2749.4,950.2)" >30.0</text>
<line x1='2748.8' y1='987.2' x2='2753.4' y2='985.3' style="stroke-width:2.0;stroke:rgb(0,0,0);stroke-linecap:round;fill:none;" />
<line x1='2763.3' y1='1024.1' x2='2768.0' y2='1022.3' style="stroke-width:2.0;stroke:rgb(0,0,0);stroke-linecap:round;fill:none;" />
<line x1='2776.8' y1='1061.4' x2='2781.5' y2='1059.8' style="stroke-width:2.0;stroke:rgb(0,0,0);stroke-linecap:round;fill:none;" />
<line x1='2789.1' y1='1099.1' x2='2793.9' y2='1097.6' style="stroke-width:2.0;stroke:rgb(0,0,0);stroke-linecap:round;fill:none;" />
<line x1='2800.3' y1='1137.1' x2='2809.9' y2='1134.4' style="stroke-width:2.0;stroke:rgb(0,0,0);stroke-linecap:round;fill:none;" />
<text x="2816.4" y="1138.8" font-size="15.6px" font-family="CMUBright-Roman" style="text-anchor:start;fill:rgb(0,0,0);" transform="rotate(344.4,2816.4,1138.8)" >35.0</text>
<line x1='2810.4' y1='1175.4' x2='2815.3' y2='1174.2' style="stroke-width:2.0;stroke:rgb(0,0,0);stroke-linecap:round;fill:none;" />
<line x1='2819.4' y1='1214.0' x2='2824.2' y2='1213.0' style="stroke-width:2.0;stroke:rgb(0,0,0);stroke-linecap:round;fill:none;" />
<line x1='2827.2' y1='1252.9' x2='2832.1' y2='1252.0' style="stroke-width:2.0;stroke:rgb(0,0,0);stroke-linecap:round;fill:none;" />
<line x1='2833.9' y1='1291.9' x2='2838.8' y2='1291.2' style="stroke-width:2.0;stroke:rgb(0,0,0);stroke-linecap:round;fill:none;" />
<line x1='2839.4' y1='1331.2' x2='2849.3' y2='1329.9' style="stroke-width:2.0;stroke:rgb(0,0,0);stroke-linecap:round;fill:none;" />
<text x="2855.0" y="1335.3" font-size="15.6px" font-family="CMUBright-Roman" style="text-anchor:start;fill:rgb(0,0,0);" transform="rotate(352.8,2855.0,1335.3)" >40.0</text>
<path d="M1853.356,228.175 A1320.000,1320.000 40.000 0,1 2813.428,1368.448 L2843.279,1365.458 A1350.000,1350.000 0.000 0,0 1861.387,199.270 Z" style="stroke-width:2.0;stroke:rgb(115,115,115);stroke-linecap:round;fill:none;" />
<path d="M2816.724,1407.062 A1320.000,1320.000 40.000 0,1 2329.699,2526.645 L2348.555,2549.978 A1350.000,1350.000 0.000 0,0 2846.650,1404.950 Z" style="stroke-width:2.0;stroke:rgb(115,115,115);stroke-linecap:round;fill:rgb(153,153,30);" />
<text x="2829.2" y="2078.2" font-size="31.2px" font-family="CMUBright-Roman" style="text-anchor:middle;fill:rgb(0,0,0);" transform="rotate(-66.5,2829.2,2078.2)" >Major<tspan baseline-shift="-40%" font-size="90%">3</tspan></text>
<line x1='2846.6' y1='1405.0' x2='2856.6' y2='1404.2' style="stroke-width:2.0;stroke:rgb(0,0,0);stroke-linecap:round;fill:none;" />
<text x="2862.0" y="1409.9" font-size="15.6px" font-family="CMUBright-Roman" style="text-anchor:start;fill:rgb(0,0,0);" transform="rotate(356.0,2862.0,1409.9)" >0.0</text>
<line x1='2848.9' y1='1444.5' x2='2853.9' y2='1444.3' style="stroke-width:2.0;stroke:rgb(0,0,0);stroke-linecap:round;fill:none;" />
<line x1='2849.9' y1='1484.1' x2='2854.9' y2='1484.1' style="stroke-width:2.0;stroke:rgb(0,0,0);stroke-linecap:round;fill:none;" />
<line x1='2849.8' y1='1523.8' x2='2854.8' y2='1523.9' style="stroke-width:2.0;stroke:rgb(0,0,0);stroke-linecap:round;fill:none;" />
<line x1='2848.5' y1='1563.4' x2='2853.5' y2='1563.6' style="stroke-width:2.0;stroke:rgb(0,0,0);stroke-linecap:round;fill:none;" />
<line x1='2846.1' y1='1603.0' x2='2856.0' y2='1603.7' style="stroke-width:2.0;stroke:rgb(0,0,0);stroke-linecap:round;fill:none;" />
<text x="2860.6" y="1610.1" font-size="15.6px" font-family="CMUBright-Roman" style="text-anchor:start;fill:rgb(0,0,0);" transform="rotate(4.4,2860.6,1610.1)" >5.0</text>
<line x1='2842.5' y1='1642.4' x2='2847.4' y2='1643.0' style="stroke-width:2.0;stroke:rgb(0,0,0);stroke-linecap:round;fill:none;" />
<line x1='2837.7' y1='1681.8' x2='2842.7' y2='1682.4' style="stroke-width:2.0;stroke:rgb(0,0,0);stroke-linecap:round;fill:none;" />
<line x1='2831.8' y1='1721.0' x2='2836.7' y2='1721.8' style="stroke-width:2.0;stroke:rgb(0,0,0);stroke-linecap:round;fill:none;" />
<line x1='2824.7' y1='1760.0' x2='2829.6' y2='1760.9' style="stroke-width:2.0;stroke:rgb(0,0,0);stroke-linecap:round;fill:none;" />
<line x1='2816.5' y1='1798.7' x2='2826.3' y2='1801.0' style="stroke-width:2.0;stroke:rgb(0,0,0);stroke-linecap:round;fill:none;" />
<text x="2829.8" y="1807.9" font-size="15.6px" font-family="CMUBright-Roman" style="text-anchor:start;fill:rgb(0,0,0);" transform="rotate(12.8,2829.8,1807.9)" >10.0</text>
<line x1='2807.2' y1='1837.3' x2='2812.0' y2='1838.5' style="stroke-width:2.0;stroke:rgb(0,0,0);stroke-linecap:round;fill:none;" />
<line x1='2796.7' y1='1875.5' x2='2801.5' y2='1876.9' style="stroke-width:2.0;stroke:rgb(0,0,0);stroke-linecap:round;fill:none;" />
<line x1='2785.1' y1='1913.4' x2='2789.9' y2='1914.9' style="stroke-width:2.0;stroke:rgb(0,0,0);stroke-linecap:round;fill:none;" />
<line x1='2772.5' y1='1951.0' x2='2777.2' y2='1952.6' style="stroke-width:2.0;stroke:rgb(0,0,0);stroke-linecap:round;fill:none;" />
<line x1='2758.7' y1='1988.1' x2='2768.0' y2='1991.7' style="stroke-width:2.0;stroke:rgb(0,0,0);stroke-linecap:round;fill:none;" />
<text x="2770.5" y="1999.1" font-size="15.6px" font-family="CMUBright-Roman" style="text-anchor:start;fill:rgb(0,0,0);" transform="rotate(21.2,2770.5,1999.1)" >15.0</text>
<line x1='2743.8' y1='2024.9' x2='2748.4' y2='2026.8' style="stroke-width:2.0;stroke:rgb(0,0,0);stroke-linecap:round;fill:none;" />
<line x1='2727.9' y1='2061.1' x2='2732.4' y2='2063.2' style="stroke-width:2.0;stroke:rgb(0,0,0);stroke-linecap:round;fill:none;" />
<line x1='2710.9' y1='2096.9' x2='2715.3' y2='2099.2' style="stroke-width:2.0;stroke:rgb(0,0,0);stroke-linecap:round;fill:none;" />
<line x1='2692.8' y1='2132.2' x2='2697.2' y2='2134.6' style="stroke-width:2.0;stroke:rgb(0,0,0);stroke-linecap:round;fill:none;" />
<line x1='2673.7' y1='2167.0' x2='2682.4' y2='2171.9' style="stroke-width:2.0;stroke:rgb(0,0,0);stroke-linecap:round;fill:none;" />
<text x="2683.8" y="2179.6" font-size="15.6px" font-family="CMUBright-Roman" style="text-anchor:start;fill:rgb(0,0,0);" transform="rotate(29.6,2683.8,2179.6)" >20.0</text>
<line x1='2653.6' y1='2201.1' x2='2657.9' y2='2203.7' style="stroke-width:2.0;stroke:rgb(0,0,0);stroke-linecap:round;fill:none;" />
<line x1='2632.6' y1='2234.7' x2='2636.8' y2='2237.4' style="stroke-width:2.0;stroke:rgb(0,0,0);stroke-linecap:round;fill:none;" />
<line x1='2610.5' y1='2267.6' x2='2614.6' y2='2270.5' style="stroke-width:2.0;stroke:rgb(0,0,0);stroke-linecap:round;fill:none;" />
<line x1='2587.5' y1='2299.9' x2='2591.5' y2='2302.9' style="stroke-width:2.0;stroke:rgb(0,0,0);stroke-linecap:round;fill:none;" />
<line x1='2563.5' y1='2331.5' x2='2571.4' y2='2337.6' style="stroke-width:2.0;stroke:rgb(0,0,0);stroke-linecap:round;fill:none;" />
<text x="2571.7" y="2345.4" font-size="15.6px" font-family="CMUBright-Roman" style="text-anchor:start;fill:rgb(0,0,0);" transform="rotate(38.0,2571.7,2345.4)" >25.0</text>
<line x1='2538.7' y1='2362.4' x2='2542.5' y2='2365.5' style="stroke-width:2.0;stroke:rgb(0,0,0);stroke-linecap:round;fill:none;" />
<line x1='2512.9' y1='2392.5' x2='2516.7' y2='2395.8' style="stroke-width:2.0;stroke:rgb(0,0,0);stroke-linecap:round;fill:none;" />
<line x1='2486.3' y1='2421.8' x2='2489.9' y2='2425.2' style="stroke-width:2.0;stroke:rgb(0,0,0);stroke-linecap:round;fill:none;" />
<line x1='2458.8' y1='2450.4' x2='2462.3' y2='2453.9' style="stroke-width:2.0;stroke:rgb(0,0,0);stroke-linecap:round;fill:none;" />
<line x1='2430.5' y1='2478.1' x2='2437.4' y2='2485.4' style="stroke-width:2.0;stroke:rgb(0,0,0);stroke-linecap:round;fill:none;" />
<text x="2436.5" y="2493.1" font-size="15.6px" font-family="CMUBright-Roman" style="text-anchor:start;fill:rgb(0,0,0);" transform="rotate(46.4,2436.5,2493.1)" >30.0</text>
<line x1='2401.4' y1='2505.0' x2='2404.7' y2='2508.7' style="stroke-width:2.0;stroke:rgb(0,0,0);stroke-linecap:round;fill:none;" />
<line x1='2371.5' y1='2531.0' x2='2374.7' y2='2534.9' style="stroke-width:2.0;stroke:rgb(0,0,0);stroke-linecap:round;fill:none;" />
<path d="M2816.724,1407.062 A1320.000,1320.000 40.000 0,1 2329.699,2526.645 L2348.555,2549.978 A1350.000,1350.000 0.000 0,0 2846.650,1404.950 Z" style="stroke-width:2.0;stroke:rgb(115,115,115);stroke-linecap:round;fill:none;" />
<path d="M2299.202,2550.560 A1320.000,1320.000 40.000 0,1 1654.668,2810.907 L1658.183,2840.701 A1350.000,1350.000 0.000 0,0 2317.366,2574.436 Z" style="stroke-width:2.0;stroke:rgb(115,115,115);stroke-linecap:round;fill:rgb(204,0,0);" />
<text x="2042.9" y="2844.0" font-size="31.2px" font-family="CMUBright-Roman" style="text-anchor:middle;fill:rgb(0,0,0);" transform="rotate(-22.0,2042.9,2844.0)" >Major<tspan baseline-shift="-40%" font-size="90%">4</tspan></text>
<line x1='2317.4' y1='2574.4' x2='2323.4' y2='2582.4' style="stroke-width:2.0;stroke:rgb(0,0,0);stroke-linecap:round;fill:none;" />
<text x="2321.7" y="2590.0" font-size="15.6px" font-family="CMUBright-Roman" style="text-anchor:start;fill:rgb(0,0,0);" transform="rotate(52.7,2321.7,2590.0)" >0.0</text>
<line x1='2285.5' y1='2598.0' x2='2288.4' y2='2602.0' style="stroke-width:2.0;stroke:rgb(0,0,0);stroke-linecap:round;fill:none;" />
<line x1='2252.9' y1='2620.6' x2='2255.7' y2='2624.7' style="stroke-width:2.0;stroke:rgb(0,0,0);stroke-linecap:round;fill:none;" />
<line x1='2219.7' y1='2642.2' x2='2222.3' y2='2646.4' style="stroke-width:2.0;stroke:rgb(0,0,0);stroke-linecap:round;fill:none;" />
<line x1='2185.8' y1='2662.8' x2='2188.4' y2='2667.1' style="stroke-width:2.0;stroke:rgb(0,0,0);stroke-linecap:round;fill:none;" />
<line x1='2151.4' y1='2682.4' x2='2156.2' y2='2691.2' style="stroke-width:2.0;stroke:rgb(0,0,0);stroke-linecap:round;fill:none;" />
<text x="2153.4" y="2698.5" font-size="15.6px" font-family="CMUBright-Roman" style="text-anchor:start;fill:rgb(0,0,0);" transform="rotate(61.1,2153.4,2698.5)" >5.0</text>
<line x1='2116.4' y1='2701.1' x2='2118.7' y2='2705.5' style="stroke-width:2.0;stroke:rgb(0,0,0);stroke-linecap:round;fill:none;" />
<line x1='2080.9' y1='2718.6' x2='2083.0' y2='2723.1' style="stroke-width:2.0;stroke:rgb(0,0,0);stroke-linecap:round;fill:none;" />
<line x1='2044.9' y1='2735.2' x2='2046.9' y2='2739.7' style="stroke-width:2.0;stroke:rgb(0,0,0);stroke-linecap:round;fill:none;" />
<line x1='2008.4' y1='2750.6' x2='2010.3' y2='2755.3' style="stroke-width:2.0;stroke:rgb(0,0,0);stroke-linecap:round;fill:none;" />
<line x1='1971.4' y1='2765.0' x2='1974.9' y2='2774.4' style="stroke-width:2.0;stroke:rgb(0,0,0);stroke-linecap:round;fill:none;" />
<text x="1971.1" y="2781.1" font-size="15.6px" font-family="CMUBright-Roman" style="text-anchor:start;fill:rgb(0,0,0);" transform="rotate(69.6,1971.1,2781.1)" >10.0</text>
<line x1='1934.1' y1='2778.3' x2='1935.7' y2='2783.0' style="stroke-width:2.0;stroke:rgb(0,0,0);stroke-linecap:round;fill:none;" />
<line x1='1896.4' y1='2790.5' x2='1897.9' y2='2795.3' style="stroke-width:2.0;stroke:rgb(0,0,0);stroke-linecap:round;fill:none;" />
<line x1='1858.3' y1='2801.6' x2='1859.7' y2='2806.4' style="stroke-width:2.0;stroke:rgb(0,0,0);stroke-linecap:round;fill:none;" />
<line x1='1820.0' y1='2811.5' x2='1821.2' y2='2816.4' style="stroke-width:2.0;stroke:rgb(0,0,0);stroke-linecap:round;fill:none;" />
<line x1='1781.3' y1='2820.4' x2='1783.4' y2='2830.1' style="stroke-width:2.0;stroke:rgb(0,0,0);stroke-linecap:round;fill:none;" />
<text x="1778.6" y="2836.3" font-size="15.6px" font-family="CMUBright-Roman" style="text-anchor:start;fill:rgb(0,0,0);" transform="rotate(78.0,1778.6,2836.3)" >15.0</text>
<line x1='1742.4' y1='2828.1' x2='1743.3' y2='2833.0' style="stroke-width:2.0;stroke:rgb(0,0,0);stroke-linecap:round;fill:none;" />
<line x1='1703.4' y1='2834.6' x2='1704.1' y2='2839.5' style="stroke-width:2.0;stroke:rgb(0,0,0);stroke-linecap:round;fill:none;" />
<line x1='1664.1' y1='2840.0' x2='1664.7' y2='2845.0' style="stroke-width:2.0;stroke:rgb(0,0,0);stroke-linecap:round;fill:none;" />
<path d="M2299.202,2550.560 A1320.000,1320.000 40.000 0,1 1654.668,2810.907 L1658.183,2840.701 A1350.000,1350.000 0.000 0,0 2317.366,2574.436 Z" style="stroke-width:2.0;stroke:rgb(115,115,115);stroke-linecap:round;fill:none;" />
<path d="M1461.249,2819.431 A1320.000,1320.000 40.000 0,1 900.733,2676.129 L887.113,2702.859 A1350.000,1350.000 0.000 0,0 1460.369,2849.418 Z" style="stroke-width:2.0;stroke:rgb(115,115,115);stroke-linecap:round;fill:rgb(255,0,0);" />
<text x="1141.0" y="2904.3" font-size="31.2px" font-family="CMUBright-Roman" style="text-anchor:middle;fill:rgb(0,0,0);" transform="rotate(14.3,1141.0,2904.3)" >Industry<tspan baseline-shift="-40%" font-size="90%">1</tspan></text>
<line x1='1460.4' y1='2849.4' x2='1460.1' y2='2859.4' style="stroke-width:2.0;stroke:rgb(0,0,0);stroke-linecap:round;fill:none;" />
<text x="1465.9" y="2864.6" font-size="15.6px" font-family="CMUBright-Roman" style="text-anchor:end;fill:rgb(0,0,0);" transform="rotate(-88.3,1465.9,2864.6)" >0.0</text>
<line x1='1420.8' y1='2847.7' x2='1420.5' y2='2852.7' style="stroke-width:2.0;stroke:rgb(0,0,0);stroke-linecap:round;fill:none;" />
<line x1='1381.2' y1='2844.8' x2='1380.8' y2='2849.7' style="stroke-width:2.0;stroke:rgb(0,0,0);stroke-linecap:round;fill:none;" />
<line x1='1341.8' y1='2840.7' x2='1341.2' y2='2845.7' style="stroke-width:2.0;stroke:rgb(0,0,0);stroke-linecap:round;fill:none;" />
<line x1='1302.5' y1='2835.5' x2='1301.8' y2='2840.4' style="stroke-width:2.0;stroke:rgb(0,0,0);stroke-linecap:round;fill:none;" />
<line x1='1263.4' y1='2829.1' x2='1261.7' y2='2839.0' style="stroke-width:2.0;stroke:rgb(0,0,0);stroke-linecap:round;fill:none;" />
<text x="1266.7" y="2844.9" font-size="15.6px" font-family="CMUBright-Roman" style="text-anchor:end;fill:rgb(0,0,0);" transform="rotate(-79.9,1266.7,2844.9)" >5.0</text>
<line x1='1224.5' y1='2821.6' x2='1223.5' y2='2826.5' style="stroke-width:2.0;stroke:rgb(0,0,0);stroke-linecap:round;fill:none;" />
<line x1='1185.8' y1='2812.9' x2='1184.6' y2='2817.8' style="stroke-width:2.0;stroke:rgb(0,0,0);stroke-linecap:round;fill:none;" />
<line x1='1147.4' y1='2803.1' x2='1146.1' y2='2808.0' style="stroke-width:2.0;stroke:rgb(0,0,0);stroke-linecap:round;fill:none;" />
<line x1='1109.3' y1='2792.2' x2='1107.9' y2='2797.0' style="stroke-width:2.0;stroke:rgb(0,0,0);stroke-linecap:round;fill:none;" />
<line x1='1071.5' y1='2780.2' x2='1068.4' y2='2789.7' style="stroke-width:2.0;stroke:rgb(0,0,0);stroke-linecap:round;fill:none;" />
<text x="1072.5" y="2796.3" font-size="15.6px" font-family="CMUBright-Roman" style="text-anchor:end;fill:rgb(0,0,0);" transform="rotate(-71.5,1072.5,2796.3)" >10.0</text>
<line x1='1034.1' y1='2767.1' x2='1032.4' y2='2771.8' style="stroke-width:2.0;stroke:rgb(0,0,0);stroke-linecap:round;fill:none;" />
<line x1='997.1' y1='2752.8' x2='995.3' y2='2757.5' style="stroke-width:2.0;stroke:rgb(0,0,0);stroke-linecap:round;fill:none;" />
<line x1='960.6' y1='2737.5' x2='958.6' y2='2742.1' style="stroke-width:2.0;stroke:rgb(0,0,0);stroke-linecap:round;fill:none;" />
<line x1='924.5' y1='2721.2' x2='922.3' y2='2725.7' style="stroke-width:2.0;stroke:rgb(0,0,0);stroke-linecap:round;fill:none;" />
<line x1='888.9' y1='2703.8' x2='884.4' y2='2712.7' style="stroke-width:2.0;stroke:rgb(0,0,0);stroke-linecap:round;fill:none;" />
<text x="887.4" y="2719.8" font-size="15.6px" font-family="CMUBright-Roman" style="text-anchor:end;fill:rgb(0,0,0);" transform="rotate(-63.1,887.4,2719.8)" >15.0</text>
<path d="M1461.249,2819.431 A1320.000,1320.000 40.000 0,1 900.733,2676.129 L887.113,2702.859 A1350.000,1350.000 0.000 0,0 1460.369,2849.418 Z" style="stroke-width:2.0;stroke:rgb(115,115,115);stroke-linecap:round;fill:none;" />
<path d="M866.464,2658.029 A1320.000,1320.000 40.000 0,1 394.294,2220.981 L369.164,2237.367 A1350.000,1350.000 0.000 0,0 852.065,2684.348 Z" style="stroke-width:2.0;stroke:rgb(115,115,115);stroke-linecap:round;fill:rgb(255,0,204);" />
<text x="515.4" y="2563.8" font-size="31.2px" font-family="CMUBright-Roman" style="text-anchor:middle;fill:rgb(0,0,0);" transform="rotate(42.8,515.4,2563.8)" >Industry<tspan baseline-shift="-40%" font-size="90%">2</tspan></text>
<line x1='852.1' y1='2684.3' x2='847.3' y2='2693.1' style="stroke-width:2.0;stroke:rgb(0,0,0);stroke-linecap:round;fill:none;" />
<text x="850.1" y="2700.4" font-size="15.6px" font-family="CMUBright-Roman" style="text-anchor:end;fill:rgb(0,0,0);" transform="rotate(-61.3,850.1,2700.4)" >0.0</text>
<line x1='817.6' y1='2664.8' x2='815.0' y2='2669.1' style="stroke-width:2.0;stroke:rgb(0,0,0);stroke-linecap:round;fill:none;" />
<line x1='783.7' y1='2644.3' x2='781.0' y2='2648.5' style="stroke-width:2.0;stroke:rgb(0,0,0);stroke-linecap:round;fill:none;" />
<line x1='750.4' y1='2622.8' x2='747.6' y2='2626.9' style="stroke-width:2.0;stroke:rgb(0,0,0);stroke-linecap:round;fill:none;" />
<line x1='717.8' y1='2600.3' x2='714.9' y2='2604.3' style="stroke-width:2.0;stroke:rgb(0,0,0);stroke-linecap:round;fill:none;" />
<line x1='685.8' y1='2576.8' x2='679.8' y2='2584.8' style="stroke-width:2.0;stroke:rgb(0,0,0);stroke-linecap:round;fill:none;" />
<text x="681.5" y="2592.4" font-size="15.6px" font-family="CMUBright-Roman" style="text-anchor:end;fill:rgb(0,0,0);" transform="rotate(-52.9,681.5,2592.4)" >5.0</text>
<line x1='654.5' y1='2552.5' x2='651.4' y2='2556.4' style="stroke-width:2.0;stroke:rgb(0,0,0);stroke-linecap:round;fill:none;" />
<line x1='624.0' y1='2527.2' x2='620.8' y2='2531.0' style="stroke-width:2.0;stroke:rgb(0,0,0);stroke-linecap:round;fill:none;" />
<line x1='594.2' y1='2501.0' x2='590.9' y2='2504.7' style="stroke-width:2.0;stroke:rgb(0,0,0);stroke-linecap:round;fill:none;" />
<line x1='565.2' y1='2474.0' x2='561.8' y2='2477.6' style="stroke-width:2.0;stroke:rgb(0,0,0);stroke-linecap:round;fill:none;" />
<line x1='537.0' y1='2446.1' x2='529.9' y2='2453.2' style="stroke-width:2.0;stroke:rgb(0,0,0);stroke-linecap:round;fill:none;" />
<text x="530.5" y="2460.9" font-size="15.6px" font-family="CMUBright-Roman" style="text-anchor:end;fill:rgb(0,0,0);" transform="rotate(-44.5,530.5,2460.9)" >10.0</text>
<line x1='509.7' y1='2417.5' x2='506.0' y2='2420.9' style="stroke-width:2.0;stroke:rgb(0,0,0);stroke-linecap:round;fill:none;" />
<line x1='483.2' y1='2388.0' x2='479.4' y2='2391.3' style="stroke-width:2.0;stroke:rgb(0,0,0);stroke-linecap:round;fill:none;" />
<line x1='457.5' y1='2357.8' x2='453.7' y2='2360.9' style="stroke-width:2.0;stroke:rgb(0,0,0);stroke-linecap:round;fill:none;" />
<line x1='432.8' y1='2326.8' x2='428.9' y2='2329.9' style="stroke-width:2.0;stroke:rgb(0,0,0);stroke-linecap:round;fill:none;" />
<line x1='409.0' y1='2295.1' x2='400.9' y2='2301.0' style="stroke-width:2.0;stroke:rgb(0,0,0);stroke-linecap:round;fill:none;" />
<text x="400.4" y="2308.8" font-size="15.6px" font-family="CMUBright-Roman" style="text-anchor:end;fill:rgb(0,0,0);" transform="rotate(-36.1,400.4,2308.8)" >15.0</text>
<line x1='386.1' y1='2262.7' x2='382.0' y2='2265.6' style="stroke-width:2.0;stroke:rgb(0,0,0);stroke-linecap:round;fill:none;" />
<path d="M866.464,2658.029 A1320.000,1320.000 40.000 0,1 394.294,2220.981 L369.164,2237.367 A1350.000,1350.000 0.000 0,0 852.065,2684.348 Z" style="stroke-width:2.0;stroke:rgb(115,115,115);stroke-linecap:round;fill:none;" />
<path d="M373.605,2188.210 A1320.000,1320.000 40.000 0,1 180.263,1526.352 L150.269,1526.951 A1350.000,1350.000 0.000 0,0 348.005,2203.852 Z" style="stroke-width:2.0;stroke:rgb(115,115,115);stroke-linecap:round;fill:rgb(255,204,204);" />
<text x="108.6" y="1906.4" font-size="31.2px" font-family="CMUBright-Roman" style="text-anchor:middle;fill:rgb(0,0,0);" transform="rotate(73.7,108.6,1906.4)" >Industry<tspan baseline-shift="-40%" font-size="90%">3</tspan></text>
<line x1='348.0' y1='2203.9' x2='339.5' y2='2209.1' style="stroke-width:2.0;stroke:rgb(0,0,0);stroke-linecap:round;fill:none;" />
<text x="338.3" y="2216.8" font-size="15.6px" font-family="CMUBright-Roman" style="text-anchor:end;fill:rgb(0,0,0);" transform="rotate(-31.4,338.3,2216.8)" >0.0</text>
<line x1='327.8' y1='2169.7' x2='323.5' y2='2172.2' style="stroke-width:2.0;stroke:rgb(0,0,0);stroke-linecap:round;fill:none;" />
<line x1='308.7' y1='2135.0' x2='304.3' y2='2137.4' style="stroke-width:2.0;stroke:rgb(0,0,0);stroke-linecap:round;fill:none;" />
<line x1='290.6' y1='2099.8' x2='286.1' y2='2102.0' style="stroke-width:2.0;stroke:rgb(0,0,0);stroke-linecap:round;fill:none;" />
<line x1='273.5' y1='2064.0' x2='268.9' y2='2066.1' style="stroke-width:2.0;stroke:rgb(0,0,0);stroke-linecap:round;fill:none;" />
<line x1='257.4' y1='2027.8' x2='248.2' y2='2031.7' style="stroke-width:2.0;stroke:rgb(0,0,0);stroke-linecap:round;fill:none;" />
<text x="246.0" y="2039.2" font-size="15.6px" font-family="CMUBright-Roman" style="text-anchor:end;fill:rgb(0,0,0);" transform="rotate(-23.0,246.0,2039.2)" >5.0</text>
<line x1='242.5' y1='1991.1' x2='237.8' y2='1992.9' style="stroke-width:2.0;stroke:rgb(0,0,0);stroke-linecap:round;fill:none;" />
<line x1='228.6' y1='1953.9' x2='223.9' y2='1955.6' style="stroke-width:2.0;stroke:rgb(0,0,0);stroke-linecap:round;fill:none;" />
<line x1='215.8' y1='1916.4' x2='211.1' y2='1918.0' style="stroke-width:2.0;stroke:rgb(0,0,0);stroke-linecap:round;fill:none;" />
<line x1='204.2' y1='1878.5' x2='199.4' y2='1879.9' style="stroke-width:2.0;stroke:rgb(0,0,0);stroke-linecap:round;fill:none;" />
<line x1='193.6' y1='1840.3' x2='183.9' y2='1842.9' style="stroke-width:2.0;stroke:rgb(0,0,0);stroke-linecap:round;fill:none;" />
<text x="180.6" y="1849.9" font-size="15.6px" font-family="CMUBright-Roman" style="text-anchor:end;fill:rgb(0,0,0);" transform="rotate(-14.6,180.6,1849.9)" >10.0</text>
<line x1='184.2' y1='1801.8' x2='179.3' y2='1803.0' style="stroke-width:2.0;stroke:rgb(0,0,0);stroke-linecap:round;fill:none;" />
<line x1='175.9' y1='1763.1' x2='171.0' y2='1764.1' style="stroke-width:2.0;stroke:rgb(0,0,0);stroke-linecap:round;fill:none;" />
<line x1='168.7' y1='1724.1' x2='163.8' y2='1724.9' style="stroke-width:2.0;stroke:rgb(0,0,0);stroke-linecap:round;fill:none;" />
<line x1='162.7' y1='1684.9' x2='157.8' y2='1685.6' style="stroke-width:2.0;stroke:rgb(0,0,0);stroke-linecap:round;fill:none;" />
<line x1='157.9' y1='1645.6' x2='147.9' y2='1646.7' style="stroke-width:2.0;stroke:rgb(0,0,0);stroke-linecap:round;fill:none;" />
<text x="143.6" y="1653.2" font-size="15.6px" font-family="CMUBright-Roman" style="text-anchor:end;fill:rgb(0,0,0);" transform="rotate(-6.2,143.6,1653.2)" >15.0</text>
<line x1='154.2' y1='1606.1' x2='149.2' y2='1606.5' style="stroke-width:2.0;stroke:rgb(0,0,0);stroke-linecap:round;fill:none;" />
<line x1='151.6' y1='1566.6' x2='146.6' y2='1566.8' style="stroke-width:2.0;stroke:rgb(0,0,0);stroke-linecap:round;fill:none;" />
<line x1='150.3' y1='1527.0' x2='145.3' y2='1527.1' style="stroke-width:2.0;stroke:rgb(0,0,0);stroke-linecap:round;fill:none;" />
<path d="M373.605,2188.210 A1320.000,1320.000 40.000 0,1 180.263,1526.352 L150.269,1526.951 A1350.000,1350.000 0.000 0,0 348.005,2203.852 Z" style="stroke-width:2.0;stroke:rgb(115,115,115);stroke-linecap:round;fill:none;" />
<path d="M180.058,1487.598 A1320.000,1320.000 40.000 0,1 375.427,808.815 L349.869,793.107 A1350.000,1350.000 0.000 0,0 150.060,1487.316 Z" style="stroke-width:2.0;stroke:rgb(115,115,115);stroke-linecap:round;fill:rgb(255,153,0);" />
<text x="137.8" y="1107.9" font-size="31.2px" font-family="CMUBright-Roman" style="text-anchor:middle;fill:rgb(0,0,0);" transform="rotate(-73.9,137.8,1107.9)" >Industry<tspan baseline-shift="-40%" font-size="90%">4</tspan></text>
<line x1='150.1' y1='1487.3' x2='140.1' y2='1487.2' style="stroke-width:2.0;stroke:rgb(0,0,0);stroke-linecap:round;fill:none;" />
<text x="135.0" y="1493.2" font-size="15.6px" font-family="CMUBright-Roman" style="text-anchor:end;fill:rgb(0,0,0);" transform="rotate(0.5,135.0,1493.2)" >0.0</text>
<line x1='151.0' y1='1447.7' x2='146.0' y2='1447.5' style="stroke-width:2.0;stroke:rgb(0,0,0);stroke-linecap:round;fill:none;" />
<line x1='153.1' y1='1408.1' x2='148.1' y2='1407.8' style="stroke-width:2.0;stroke:rgb(0,0,0);stroke-linecap:round;fill:none;" />
<line x1='156.4' y1='1368.6' x2='151.4' y2='1368.1' style="stroke-width:2.0;stroke:rgb(0,0,0);stroke-linecap:round;fill:none;" />
<line x1='160.8' y1='1329.2' x2='155.9' y2='1328.6' style="stroke-width:2.0;stroke:rgb(0,0,0);stroke-linecap:round;fill:none;" />
<line x1='166.4' y1='1290.0' x2='156.6' y2='1288.4' style="stroke-width:2.0;stroke:rgb(0,0,0);stroke-linecap:round;fill:none;" />
<text x="150.7" y="1293.6" font-size="15.6px" font-family="CMUBright-Roman" style="text-anchor:end;fill:rgb(0,0,0);" transform="rotate(8.9,150.7,1293.6)" >5.0</text>
<line x1='173.2' y1='1250.9' x2='168.3' y2='1250.0' style="stroke-width:2.0;stroke:rgb(0,0,0);stroke-linecap:round;fill:none;" />
<line x1='181.1' y1='1212.1' x2='176.2' y2='1211.0' style="stroke-width:2.0;stroke:rgb(0,0,0);stroke-linecap:round;fill:none;" />
<line x1='190.1' y1='1173.5' x2='185.2' y2='1172.3' style="stroke-width:2.0;stroke:rgb(0,0,0);stroke-linecap:round;fill:none;" />
<line x1='200.2' y1='1135.2' x2='195.4' y2='1133.8' style="stroke-width:2.0;stroke:rgb(0,0,0);stroke-linecap:round;fill:none;" />
<line x1='211.5' y1='1097.2' x2='202.0' y2='1094.2' style="stroke-width:2.0;stroke:rgb(0,0,0);stroke-linecap:round;fill:none;" />
<text x="195.4" y="1098.4" font-size="15.6px" font-family="CMUBright-Roman" style="text-anchor:end;fill:rgb(0,0,0);" transform="rotate(17.4,195.4,1098.4)" >10.0</text>
<line x1='223.9' y1='1059.5' x2='219.2' y2='1057.9' style="stroke-width:2.0;stroke:rgb(0,0,0);stroke-linecap:round;fill:none;" />
<line x1='237.4' y1='1022.3' x2='232.7' y2='1020.5' style="stroke-width:2.0;stroke:rgb(0,0,0);stroke-linecap:round;fill:none;" />
<line x1='251.9' y1='985.4' x2='247.3' y2='983.5' style="stroke-width:2.0;stroke:rgb(0,0,0);stroke-linecap:round;fill:none;" />
<line x1='267.6' y1='949.0' x2='263.0' y2='946.9' style="stroke-width:2.0;stroke:rgb(0,0,0);stroke-linecap:round;fill:none;" />
<line x1='284.3' y1='913.0' x2='275.3' y2='908.7' style="stroke-width:2.0;stroke:rgb(0,0,0);stroke-linecap:round;fill:none;" />
<text x="268.2" y="911.9" font-size="15.6px" font-family="CMUBright-Roman" style="text-anchor:end;fill:rgb(0,0,0);" transform="rotate(25.8,268.2,911.9)" >15.0</text>
<line x1='302.0' y1='877.6' x2='297.6' y2='875.3' style="stroke-width:2.0;stroke:rgb(0,0,0);stroke-linecap:round;fill:none;" />
<line x1='320.8' y1='842.7' x2='316.5' y2='840.3' style="stroke-width:2.0;stroke:rgb(0,0,0);stroke-linecap:round;fill:none;" />
<line x1='340.6' y1='808.4' x2='336.3' y2='805.8' style="stroke-width:2.0;stroke:rgb(0,0,0);stroke-linecap:round;fill:none;" />
<path d="M180.058,1487.598 A1320.000,1320.000 40.000 0,1 375.427,808.815 L349.869,793.107 A1350.000,1350.000 0.000 0,0 150.060,1487.316 Z" style="stroke-width:2.0;stroke:rgb(115,115,115);stroke-linecap:round;fill:none;" />
<path d="M396.203,776.100 A1320.000,1320.000 40.000 0,1 868.165,341.042 L853.805,314.702 A1350.000,1350.000 0.000 0,0 371.116,759.648 Z" style="stroke-width:2.0;stroke:rgb(115,115,115);stroke-linecap:round;fill:rgb(255,204,0);" />
<text x="539.3" y="457.8" font-size="31.2px" font-family="CMUBright-Roman" style="text-anchor:middle;fill:rgb(0,0,0);" transform="rotate(-42.7,539.3,457.8)" >Industry<tspan baseline-shift="-40%" font-size="90%">5</tspan></text>
<line x1='371.1' y1='759.6' x2='362.8' y2='754.2' style="stroke-width:2.0;stroke:rgb(0,0,0);stroke-linecap:round;fill:none;" />
<text x="355.3" y="756.4" font-size="15.6px" font-family="CMUBright-Roman" style="text-anchor:end;fill:rgb(0,0,0);" transform="rotate(33.3,355.3,756.4)" >0.0</text>
<line x1='393.3' y1='726.8' x2='389.2' y2='724.0' style="stroke-width:2.0;stroke:rgb(0,0,0);stroke-linecap:round;fill:none;" />
<line x1='416.5' y1='694.7' x2='412.5' y2='691.7' style="stroke-width:2.0;stroke:rgb(0,0,0);stroke-linecap:round;fill:none;" />
<line x1='440.6' y1='663.2' x2='436.7' y2='660.1' style="stroke-width:2.0;stroke:rgb(0,0,0);stroke-linecap:round;fill:none;" />
<line x1='465.6' y1='632.5' x2='461.8' y2='629.3' style="stroke-width:2.0;stroke:rgb(0,0,0);stroke-linecap:round;fill:none;" />
<line x1='491.6' y1='602.5' x2='484.1' y2='595.8' style="stroke-width:2.0;stroke:rgb(0,0,0);stroke-linecap:round;fill:none;" />
<text x="476.4" y="597.0" font-size="15.6px" font-family="CMUBright-Roman" style="text-anchor:end;fill:rgb(0,0,0);" transform="rotate(41.7,476.4,597.0)" >5.0</text>
<line x1='518.3' y1='573.3' x2='514.7' y2='569.8' style="stroke-width:2.0;stroke:rgb(0,0,0);stroke-linecap:round;fill:none;" />
<line x1='546.0' y1='544.8' x2='542.4' y2='541.3' style="stroke-width:2.0;stroke:rgb(0,0,0);stroke-linecap:round;fill:none;" />
<line x1='574.4' y1='517.3' x2='571.0' y2='513.6' style="stroke-width:2.0;stroke:rgb(0,0,0);stroke-linecap:round;fill:none;" />
<line x1='603.7' y1='490.5' x2='600.3' y2='486.8' style="stroke-width:2.0;stroke:rgb(0,0,0);stroke-linecap:round;fill:none;" />
<line x1='633.7' y1='464.6' x2='627.3' y2='457.0' style="stroke-width:2.0;stroke:rgb(0,0,0);stroke-linecap:round;fill:none;" />
<text x="619.5" y="457.0" font-size="15.6px" font-family="CMUBright-Roman" style="text-anchor:end;fill:rgb(0,0,0);" transform="rotate(50.1,619.5,457.0)" >10.0</text>
<line x1='664.5' y1='439.6' x2='661.4' y2='435.7' style="stroke-width:2.0;stroke:rgb(0,0,0);stroke-linecap:round;fill:none;" />
<line x1='695.9' y1='415.6' x2='693.0' y2='411.6' style="stroke-width:2.0;stroke:rgb(0,0,0);stroke-linecap:round;fill:none;" />
<line x1='728.1' y1='392.4' x2='725.3' y2='388.3' style="stroke-width:2.0;stroke:rgb(0,0,0);stroke-linecap:round;fill:none;" />
<line x1='761.0' y1='370.2' x2='758.2' y2='366.1' style="stroke-width:2.0;stroke:rgb(0,0,0);stroke-linecap:round;fill:none;" />
<line x1='794.5' y1='349.0' x2='789.2' y2='340.5' style="stroke-width:2.0;stroke:rgb(0,0,0);stroke-linecap:round;fill:none;" />
<text x="781.5" y="339.4" font-size="15.6px" font-family="CMUBright-Roman" style="text-anchor:end;fill:rgb(0,0,0);" transform="rotate(58.5,781.5,339.4)" >15.0</text>
<line x1='828.6' y1='328.8' x2='826.1' y2='324.5' style="stroke-width:2.0;stroke:rgb(0,0,0);stroke-linecap:round;fill:none;" />
<path d="M396.203,776.100 A1320.000,1320.000 40.000 0,1 868.165,341.042 L853.805,314.702 A1350.000,1350.000 0.000 0,0 371.116,759.648 Z" style="stroke-width:2.0;stroke:rgb(115,115,115);stroke-linecap:round;fill:none;" />
<path d="M902.460,322.993 A1320.000,1320.000 40.000 0,1 1461.249,180.569 L1460.369,150.582 A1350.000,1350.000 0.000 0,0 888.879,296.243 Z" style="stroke-width:2.0;stroke:rgb(115,115,115);stroke-linecap:round;fill:rgb(255,255,0);" />
<text x="1149.9" y="126.4" font-size="31.2px" font-family="CMUBright-Roman" style="text-anchor:middle;fill:rgb(0,0,0);" transform="rotate(-14.3,1149.9,126.4)" >Industry<tspan baseline-shift="-40%" font-size="90%">6</tspan></text>
<line x1='888.9' y1='296.2' x2='884.4' y2='287.3' style="stroke-width:2.0;stroke:rgb(0,0,0);stroke-linecap:round;fill:none;" />
<text x="876.7" y="285.6" font-size="15.6px" font-family="CMUBright-Roman" style="text-anchor:end;fill:rgb(0,0,0);" transform="rotate(63.1,876.7,285.6)" >0.0</text>
<line x1='924.5' y1='278.8' x2='922.3' y2='274.3' style="stroke-width:2.0;stroke:rgb(0,0,0);stroke-linecap:round;fill:none;" />
<line x1='960.6' y1='262.5' x2='958.6' y2='257.9' style="stroke-width:2.0;stroke:rgb(0,0,0);stroke-linecap:round;fill:none;" />
<line x1='997.1' y1='247.2' x2='995.3' y2='242.5' style="stroke-width:2.0;stroke:rgb(0,0,0);stroke-linecap:round;fill:none;" />
<line x1='1034.1' y1='232.9' x2='1032.4' y2='228.2' style="stroke-width:2.0;stroke:rgb(0,0,0);stroke-linecap:round;fill:none;" />
<line x1='1071.5' y1='219.8' x2='1068.4' y2='210.3' style="stroke-width:2.0;stroke:rgb(0,0,0);stroke-linecap:round;fill:none;" />
<text x="1061.1" y="207.5" font-size="15.6px" font-family="CMUBright-Roman" style="text-anchor:end;fill:rgb(0,0,0);" transform="rotate(71.5,1061.1,207.5)" >5.0</text>
<line x1='1109.3' y1='207.8' x2='1107.9' y2='203.0' style="stroke-width:2.0;stroke:rgb(0,0,0);stroke-linecap:round;fill:none;" />
<line x1='1147.4' y1='196.9' x2='1146.1' y2='192.0' style="stroke-width:2.0;stroke:rgb(0,0,0);stroke-linecap:round;fill:none;" />
<line x1='1185.8' y1='187.1' x2='1184.6' y2='182.2' style="stroke-width:2.0;stroke:rgb(0,0,0);stroke-linecap:round;fill:none;" />
<line x1='1224.5' y1='178.4' x2='1223.5' y2='173.5' style="stroke-width:2.0;stroke:rgb(0,0,0);stroke-linecap:round;fill:none;" />
<line x1='1263.4' y1='170.9' x2='1261.7' y2='161.0' style="stroke-width:2.0;stroke:rgb(0,0,0);stroke-linecap:round;fill:none;" />
<text x="1254.9" y="157.2" font-size="15.6px" font-family="CMUBright-Roman" style="text-anchor:end;fill:rgb(0,0,0);" transform="rotate(79.9,1254.9,157.2)" >10.0</text>
<line x1='1302.5' y1='164.5' x2='1301.8' y2='159.6' style="stroke-width:2.0;stroke:rgb(0,0,0);stroke-linecap:round;fill:none;" />
<line x1='1341.8' y1='159.3' x2='1341.2' y2='154.3' style="stroke-width:2.0;stroke:rgb(0,0,0);stroke-linecap:round;fill:none;" />
<line x1='1381.2' y1='155.2' x2='1380.8' y2='150.3' style="stroke-width:2.0;stroke:rgb(0,0,0);stroke-linecap:round;fill:none;" />
<line x1='1420.8' y1='152.3' x2='1420.5' y2='147.3' style="stroke-width:2.0;stroke:rgb(0,0,0);stroke-linecap:round;fill:none;" />
<line x1='1460.4' y1='150.6' x2='1460.1' y2='140.6' style="stroke-width:2.0;stroke:rgb(0,0,0);stroke-linecap:round;fill:none;" />
<text x="1453.9" y="135.8" font-size="15.6px" font-family="CMUBright-Roman" style="text-anchor:end;fill:rgb(0,0,0);" transform="rotate(88.3,1453.9,135.8)" >15.0</text>
<path d="M902.460,322.993 A1320.000,1320.000 40.000 0,1 1461.249,180.569 L1460.369,150.582 A1350.000,1350.000 0.000 0,0 888.879,296.243 Z" style="stroke-width:2.0;stroke:rgb(115,115,115);stroke-linecap:round;fill:none;" />
</g>
<g id="track_0">
<path d="M 1500.000,193.200 A 1306.800,1306.800 0.00 0,1 1554.5,194.3 L 1554.5,194.3 1551.5,256.4 1547.8,319.1 1543.4,382.6 1538.6,446.7 1533.3,511.4 1527.7,576.8 1521.8,642.7 1515.8,709.1 1509.7,776.0 1503.5,843.3 1497.4,911.0 1491.4,979.1 1485.6,1047.5 1479.9,1116.2 1474.5,1185.2 1469.3,1254.3 1464.4,1323.7 1459.8,1393.1 1455.6,1462.6 1451.7,1532.2 1448.1,1601.7 1444.8,1671.2 1441.9,1740.6 1439.2,1809.9 1436.9,1879.1 1434.8,1948.0 1432.9,2016.6 1431.2,2084.9 1429.6,2152.9 1428.2,2220.5 1426.7,2287.7 1425.2,2354.3 1423.6,2420.5 1421.9,2486.0 1419.8,2551.0 1417.4,2615.2 1414.6,2678.8 1411.2,2741.5 1407.2,2803.5  A 1306.800,1306.800 0.00 0,0 1461.6,2806.2 L 1461.6,2806.2 1463.1,2744.2 1463.8,2681.3 1464.0,2617.7 1463.7,2553.4 1463.0,2488.4 1462.1,2422.9 1460.9,2356.7 1459.6,2290.0 1458.2,2222.9 1456.9,2155.3 1455.6,2087.3 1454.5,2019.0 1453.5,1950.3 1452.7,1881.4 1452.2,1812.2 1451.9,1742.9 1452.0,1673.4 1452.3,1603.8 1453.0,1534.1 1454.1,1464.5 1455.4,1394.9 1457.1,1325.3 1459.1,1255.8 1461.4,1186.5 1463.9,1117.4 1466.7,1048.5 1469.7,979.9 1472.9,911.6 1476.2,843.7 1479.5,776.2 1482.8,709.1 1486.1,642.5 1489.2,576.4 1492.1,510.9 1494.6,446.0 1496.8,381.7 1498.5,318.1 1499.6,255.3 1500.0,193.2  Z" style="stroke-width: 0.0;  fill: rgb(153,102,0);" />
<path d="M 1554.468,194.336 A 1306.800,1306.800 0.00 0,1 1617.6,198.5 L 1617.6,198.5 1611.7,256.9 1604.4,316.1 1595.9,376.2 1586.1,437.0 1575.2,498.6 1563.3,560.9 1550.3,623.8 1536.4,687.3 1521.5,751.4 1505.9,815.9 1489.4,880.8 1472.2,946.1 1454.2,1011.7 1435.7,1077.6 1416.4,1143.6 1396.6,1209.8 1376.3,1276.0 1355.4,1342.2 1334.0,1408.4 1312.1,1474.5 1289.8,1540.4 1267.1,1606.0 1243.9,1671.3 1220.3,1736.2 1196.4,1800.7 1172.0,1864.6 1147.2,1927.9 1122.1,1990.6 1096.6,2052.6 1070.7,2113.7 1044.4,2173.9 1017.7,2233.2 990.6,2291.4 963.0,2348.6 935.0,2404.5 906.5,2459.2 877.6,2512.5 848.1,2564.4 818.0,2614.7  A 1306.800,1306.800 0.00 0,0 872.8,2646.4 L 872.8,2646.4 900.4,2594.7 927.3,2541.4 953.7,2486.8 979.5,2430.8 1004.7,2373.6 1029.5,2315.2 1053.8,2255.7 1077.6,2195.2 1100.9,2133.7 1123.8,2071.4 1146.3,2008.3 1168.4,1944.5 1190.0,1880.1 1211.3,1815.0 1232.1,1749.5 1252.5,1683.5 1272.5,1617.1 1292.0,1550.5 1311.1,1483.6 1329.8,1416.6 1347.9,1349.4 1365.6,1282.3 1382.7,1215.1 1399.3,1148.1 1415.3,1081.2 1430.6,1014.5 1445.4,948.1 1459.4,882.1 1472.7,816.4 1485.3,751.2 1497.0,686.5 1507.8,622.4 1517.7,558.9 1526.6,496.2 1534.5,434.1 1541.3,372.8 1547.0,312.4 1551.4,252.9 1554.5,194.3  Z" style="stroke-width: 0.0;  fill: rgb(153,102,0);" />
<path d="M 1617.632,198.505 A 1306.800,1306.800 0.00 0,1 1676.3,205.2 L 1676.3,205.2 1668.1,259.5 1658.0,314.5 1646.1,370.2 1632.4,426.4 1617.0,483.2 1599.8,540.3 1581.0,597.7 1560.5,655.3 1538.5,713.1 1514.8,770.9 1489.7,828.7 1463.0,886.4 1434.9,943.9 1405.3,1001.1 1374.4,1058.0 1342.2,1114.4 1308.7,1170.4 1274.0,1225.8 1238.0,1280.5 1201.0,1334.5 1162.8,1387.7 1123.6,1440.0 1083.5,1491.4 1042.4,1541.8 1000.4,1591.1 957.7,1639.2 914.1,1686.1 869.9,1731.8 825.0,1776.0 779.6,1818.9 733.6,1860.3 687.2,1900.1 640.4,1938.3 593.3,1974.8 545.9,2009.6 498.3,2042.6 450.6,2073.8 402.9,2103.0 355.2,2130.2  A 1306.800,1306.800 0.00 0,0 384.9,2181.3 L 384.9,2181.3 431.3,2152.0 477.6,2120.6 523.9,2087.3 569.9,2052.2 615.7,2015.3 661.1,1976.7 706.1,1936.4 750.7,1894.5 794.7,1851.1 838.2,1806.3 881.0,1760.0 923.2,1712.4 964.5,1663.6 1005.1,1613.6 1044.8,1562.4 1083.5,1510.3 1121.3,1457.1 1158.1,1403.1 1193.8,1348.2 1228.4,1292.6 1261.8,1236.3 1294.0,1179.4 1324.9,1122.0 1354.6,1064.1 1382.9,1005.9 1409.8,947.4 1435.3,888.7 1459.3,829.9 1481.9,771.0 1502.9,712.2 1522.3,653.5 1540.1,595.0 1556.3,536.8 1570.9,478.9 1583.7,421.6 1594.8,364.7 1604.2,308.6 1611.8,253.1 1617.6,198.5  Z" style="stroke-width: 0.0;  fill: rgb(153,102,0);" />
<path d="M 1676.339,205.152 A 1306.800,1306.800 0.00 0,1 1723.0,212.4 L 1723.0,212.4 1713.3,262.7 1701.6,313.4 1688.0,364.3 1672.4,415.2 1654.7,466.0 1635.1,516.6 1613.5,566.8 1590.0,616.4 1564.6,665.5 1537.2,713.7 1508.0,761.1 1477.0,807.5 1444.1,852.9 1409.5,897.0 1373.2,939.9 1335.3,981.4 1295.8,1021.4 1254.7,1060.0 1212.2,1096.9 1168.3,1132.2 1123.1,1165.7 1076.6,1197.5 1029.0,1227.5 980.3,1255.6 930.6,1281.8 880.1,1306.1 828.7,1328.4 776.7,1348.8 724.2,1367.1 671.1,1383.4 617.8,1397.7 564.2,1410.0 510.6,1420.2 457.0,1428.5 403.5,1434.8 350.4,1439.1 297.8,1441.5 245.8,1441.9 194.6,1440.5  A 1306.800,1306.800 0.00 0,0 193.3,1487.7 L 193.3,1487.7 244.5,1487.3 296.5,1484.9 349.0,1480.6 401.9,1474.4 455.1,1466.2 508.3,1456.0 561.6,1443.8 614.7,1429.6 667.5,1413.4 719.9,1395.2 771.7,1375.0 823.0,1352.8 873.5,1328.6 923.1,1302.5 971.8,1274.6 1019.4,1244.7 1066.0,1213.0 1111.2,1179.6 1155.2,1144.4 1197.8,1107.5 1239.0,1069.1 1278.6,1029.1 1316.7,987.6 1353.1,944.8 1387.8,900.7 1420.8,855.3 1452.0,808.8 1481.3,761.3 1508.8,712.9 1534.4,663.7 1558.0,613.8 1579.8,563.3 1599.5,512.4 1617.3,461.1 1633.1,409.7 1646.9,358.2 1658.7,306.9 1668.5,255.8 1676.3,205.2  Z" style="stroke-width: 0.0;  fill: rgb(153,102,0);" />
<path d="M 1722.976,212.363 A 1306.800,1306.800 0.00 0,1 1767.8,220.9 L 1767.8,220.9 1757.2,267.9 1744.8,314.7 1730.8,361.2 1715.0,407.1 1697.6,452.3 1678.5,496.4 1657.8,539.4 1635.4,580.9 1611.4,621.0 1585.8,659.4 1558.6,695.9 1529.9,730.5 1499.7,763.0 1468.0,793.2 1435.0,821.2 1400.6,846.8 1365.0,869.9 1328.1,890.5 1290.1,908.5 1251.0,923.8 1210.9,936.5 1169.9,946.6 1128.0,953.9 1085.4,958.6 1042.2,960.6 998.4,960.0 954.2,956.8 909.6,951.0 864.8,942.7 819.9,932.1 775.1,919.1 730.3,903.9 685.9,886.6 641.9,867.2 598.4,846.0 555.6,823.1 513.6,798.6 472.7,772.7 432.9,745.6  A 1306.800,1306.800 0.00 0,0 407.2,783.3 L 407.2,783.3 447.9,809.1 489.8,833.5 532.5,856.5 576.1,877.9 620.3,897.6 665.0,915.4 710.0,931.1 755.2,944.8 800.5,956.2 845.7,965.3 890.8,972.0 935.5,976.2 979.8,977.8 1023.6,976.9 1066.8,973.4 1109.2,967.3 1150.7,958.4 1191.4,947.0 1231.0,932.9 1269.5,916.2 1306.9,896.8 1343.0,875.0 1377.9,850.6 1411.3,823.9 1443.4,794.8 1473.9,763.4 1503.0,729.9 1530.4,694.4 1556.3,656.9 1580.6,617.7 1603.2,576.8 1624.1,534.4 1643.4,490.8 1660.9,446.0 1676.7,400.3 1690.9,353.8 1703.3,306.9 1714.0,259.7 1723.0,212.4  Z" style="stroke-width: 0.0;  fill: rgb(153,102,0);" />
<path d="M 1767.820,220.938 A 1306.800,1306.800 0.00 0,1 1812.7,231.2 L 1812.7,231.2 1801.1,275.9 1788.5,320.2 1774.9,363.8 1760.2,406.5 1744.6,447.9 1728.0,487.9 1710.5,526.2 1692.2,562.5 1673.0,596.7 1653.1,628.7 1632.3,658.2 1610.9,685.0 1588.7,709.1 1566.0,730.4 1542.6,748.7 1518.7,763.9 1494.3,776.0 1469.5,784.9 1444.3,790.6 1418.7,793.1 1392.8,792.3 1366.8,788.3 1340.5,781.1 1314.1,770.8 1287.7,757.3 1261.3,740.8 1234.9,721.4 1208.7,699.1 1182.7,674.2 1157.0,646.7 1131.6,616.7 1106.7,584.6 1082.2,550.4 1058.3,514.3 1035.0,476.6 1012.4,437.6 990.7,397.4 969.8,356.3 949.8,314.6  A 1306.800,1306.800 0.00 0,0 908.4,334.8 L 908.4,334.8 929.8,375.7 952.1,416.0 975.3,455.4 999.2,493.7 1023.8,530.5 1049.0,565.7 1074.7,599.0 1100.7,630.3 1127.2,659.3 1153.8,685.9 1180.7,709.9 1207.7,731.2 1234.7,749.7 1261.7,765.2 1288.6,777.8 1315.3,787.2 1341.8,793.5 1368.0,796.5 1393.9,796.4 1419.3,793.0 1444.3,786.4 1468.8,776.6 1492.8,763.7 1516.1,747.6 1538.8,728.5 1560.8,706.5 1582.1,681.6 1602.6,654.0 1622.3,623.8 1641.1,591.2 1659.1,556.3 1676.1,519.3 1692.2,480.5 1707.4,440.0 1721.5,398.0 1734.7,354.8 1746.8,310.7 1757.8,266.0 1767.8,220.9  Z" style="stroke-width: 0.0;  fill: rgb(153,102,0);" />
<path d="M 1849.823,240.893 A 1306.800,1306.800 0.00 0,1 2068.2,323.2 L 2068.2,323.2 2042.2,378.1 2016.7,434.2 1991.6,491.4 1966.8,549.7 1942.3,609.0 1918.0,669.2 1893.9,730.2 1869.9,791.9 1846.1,854.3 1822.2,917.4 1798.4,980.9 1774.6,1045.0 1750.9,1109.5 1727.0,1174.3 1703.2,1239.5 1679.3,1304.9 1655.4,1370.4 1631.4,1436.1 1607.4,1501.9 1583.4,1567.7 1559.4,1633.5 1535.4,1699.2 1511.5,1764.7 1487.7,1830.1 1464.0,1895.3 1440.4,1960.3 1417.1,2025.0 1394.1,2089.3 1371.3,2153.3 1349.0,2216.8 1327.0,2280.0 1305.6,2342.7 1284.8,2404.8 1264.6,2466.5 1245.2,2527.6 1226.6,2588.2 1209.0,2648.2 1192.4,2707.5 1176.9,2766.2  A 1306.800,1306.800 0.00 0,0 1407.2,2803.5 L 1407.2,2803.5 1412.0,2743.0 1417.8,2681.6 1424.5,2619.5 1432.1,2556.6 1440.3,2493.0 1449.2,2428.7 1458.6,2363.8 1468.5,2298.3 1478.9,2232.3 1489.6,2165.7 1500.6,2098.7 1511.8,2031.3 1523.3,1963.5 1534.9,1895.4 1546.6,1827.1 1558.4,1758.5 1570.3,1689.7 1582.2,1620.8 1594.1,1551.8 1606.0,1482.8 1617.9,1413.8 1629.8,1344.9 1641.7,1276.1 1653.6,1207.5 1665.5,1139.2 1677.4,1071.1 1689.3,1003.4 1701.4,936.1 1713.5,869.3 1725.7,803.1 1738.1,737.4 1750.7,672.4 1763.6,608.1 1776.8,544.5 1790.4,481.9 1804.4,420.1 1818.9,359.3 1834.0,299.5 1849.8,240.9  Z" style="stroke-width: 0.0;  fill: rgb(102,102,0);" />
<path d="M 2068.184,323.185 A 1306.800,1306.800 0.00 0,1 2306.7,471.9 L 2306.7,471.9 2268.4,520.0 2228.9,568.3 2188.4,616.8 2147.0,665.5 2104.7,714.4 2061.7,763.6 2018.1,813.1 1973.9,862.8 1929.2,912.8 1884.1,963.1 1838.7,1013.8 1793.1,1064.7 1747.2,1115.9 1701.2,1167.4 1655.1,1219.1 1609.0,1271.1 1562.9,1323.4 1516.8,1375.8 1470.9,1428.4 1425.1,1481.2 1379.4,1534.1 1334.0,1587.0 1288.7,1640.0 1243.7,1693.0 1198.9,1745.9 1154.4,1798.7 1110.2,1851.3 1066.2,1903.7 1022.4,1955.7 978.9,2007.5 935.7,2058.7 892.6,2109.5 849.8,2159.6 807.2,2209.1 764.7,2257.8 722.3,2305.6 680.0,2352.5 637.7,2398.4 595.4,2443.1  A 1306.800,1306.800 0.00 0,0 818.0,2614.7 L 818.0,2614.7 849.8,2562.0 881.2,2508.2 912.5,2453.3 943.7,2397.5 974.8,2340.8 1005.9,2283.4 1037.0,2225.2 1068.2,2166.5 1099.5,2107.1 1130.9,2047.3 1162.5,1987.1 1194.3,1926.5 1226.3,1865.7 1258.5,1804.6 1290.9,1743.3 1323.5,1682.0 1356.4,1620.5 1389.5,1559.1 1422.8,1497.7 1456.2,1436.3 1489.9,1375.1 1523.6,1314.0 1557.5,1253.1 1591.4,1192.5 1625.4,1132.0 1659.3,1071.9 1693.2,1012.1 1726.9,952.6 1760.5,893.4 1793.7,834.6 1826.7,776.2 1859.2,718.2 1891.3,660.5 1922.8,603.3 1953.6,546.5 1983.6,490.0 2012.8,434.0 2041.0,378.4 2068.2,323.2  Z" style="stroke-width: 0.0;  fill: rgb(102,102,0);" />
<path d="M 2306.695,471.910 A 1306.800,1306.800 0.00 0,1 2529.5,695.1 L 2529.5,695.1 2482.6,731.0 2434.1,766.6 2384.2,801.9 2333.0,836.9 2280.5,871.6 2226.9,906.1 2172.1,940.3 2116.3,974.4 2059.6,1008.2 2002.0,1041.8 1943.7,1075.2 1884.6,1108.4 1824.8,1141.4 1764.5,1174.2 1703.6,1206.7 1642.3,1239.0 1580.7,1271.1 1518.7,1302.8 1456.4,1334.3 1393.9,1365.4 1331.3,1396.2 1268.6,1426.6 1205.9,1456.6 1143.2,1486.1 1080.6,1515.1 1018.1,1543.5 955.8,1571.4 893.7,1598.6 831.9,1625.1 770.4,1650.8 709.3,1675.8 648.5,1699.8 588.2,1722.9 528.4,1745.0 469.0,1766.0 410.3,1785.9 352.1,1804.5 294.5,1821.7 237.6,1837.6  A 1306.800,1306.800 0.00 0,0 355.2,2130.2 L 355.2,2130.2 406.7,2101.2 458.5,2070.6 510.5,2038.6 562.8,2005.3 615.4,1970.7 668.2,1934.9 721.2,1898.0 774.4,1860.1 827.8,1821.2 881.3,1781.5 935.0,1741.0 988.8,1699.7 1042.6,1657.7 1096.5,1615.1 1150.3,1571.9 1204.1,1528.3 1257.8,1484.2 1311.4,1439.6 1364.8,1394.8 1418.0,1349.6 1470.9,1304.1 1523.5,1258.4 1575.7,1212.5 1627.4,1166.5 1678.7,1120.3 1729.4,1074.0 1779.5,1027.7 1829.0,981.3 1877.6,934.9 1925.5,888.4 1972.5,842.0 2018.5,795.6 2063.4,749.2 2107.2,702.9 2149.9,656.6 2191.2,610.4 2231.2,564.2 2269.7,518.0 2306.7,471.9  Z" style="stroke-width: 0.0;  fill: rgb(102,102,0);" />
<path d="M 2529.510,695.118 A 1306.800,1306.800 0.00 0,1 2674.8,927.7 L 2674.8,927.7 2623.5,951.8 2570.7,975.0 2516.3,997.2 2460.5,1018.6 2403.3,1039.0 2344.9,1058.5 2285.3,1077.2 2224.6,1094.9 2162.9,1111.7 2100.3,1127.6 2036.7,1142.6 1972.4,1156.7 1907.4,1169.8 1841.8,1182.1 1775.7,1193.5 1709.1,1203.9 1642.1,1213.4 1574.8,1222.0 1507.3,1229.6 1439.7,1236.3 1372.0,1242.1 1304.4,1246.9 1236.9,1250.7 1169.5,1253.5 1102.4,1255.4 1035.7,1256.2 969.4,1256.1 903.5,1254.9 838.3,1252.7 773.8,1249.4 709.9,1245.0 646.9,1239.6 584.9,1233.0 523.7,1225.3 463.7,1216.5 404.8,1206.5 347.1,1195.4 290.7,1183.0 235.7,1169.4  A 1306.800,1306.800 0.00 0,0 194.6,1440.5 L 194.6,1440.5 251.2,1442.3 308.9,1442.7 367.7,1441.5 427.4,1439.0 487.9,1435.1 549.3,1429.8 611.4,1423.3 674.1,1415.5 737.4,1406.4 801.3,1396.2 865.5,1384.7 930.1,1372.2 995.0,1358.5 1060.1,1343.7 1125.3,1327.9 1190.6,1311.1 1255.9,1293.3 1321.0,1274.5 1386.0,1254.7 1450.8,1234.0 1515.2,1212.5 1579.2,1190.1 1642.7,1166.8 1705.6,1142.7 1768.0,1117.8 1829.6,1092.1 1890.4,1065.6 1950.3,1038.4 2009.3,1010.5 2067.3,981.9 2124.1,952.6 2179.8,922.6 2234.2,891.9 2287.3,860.7 2338.9,828.8 2389.0,796.2 2437.5,763.1 2484.4,729.4 2529.5,695.1  Z" style="stroke-width: 0.0;  fill: rgb(102,102,0);" />
<path d="M 2674.806,927.673 A 1306.800,1306.800 0.00 0,1 2759.9,1153.1 L 2759.9,1153.1 2707.7,1166.6 2654.1,1178.5 2599.3,1188.9 2543.3,1197.8 2486.3,1205.1 2428.2,1210.9 2369.4,1215.0 2309.7,1217.6 2249.5,1218.5 2188.6,1217.8 2127.3,1215.5 2065.6,1211.5 2003.6,1205.9 1941.5,1198.7 1879.2,1189.9 1817.0,1179.5 1754.9,1167.4 1692.9,1153.8 1631.2,1138.7 1570.0,1122.0 1509.1,1103.8 1448.8,1084.1 1389.2,1063.0 1330.2,1040.5 1272.1,1016.5 1214.9,991.3 1158.6,964.7 1103.4,936.8 1049.4,907.7 996.6,877.5 945.1,846.2 894.9,813.8 846.3,780.4 799.2,746.0 753.7,710.8 709.9,674.8 667.9,638.0 627.8,600.5 589.6,562.5  A 1306.800,1306.800 0.00 0,0 432.9,745.6 L 432.9,745.6 477.5,776.0 523.8,805.4 571.8,833.9 621.5,861.2 672.6,887.5 725.3,912.6 779.2,936.5 834.4,959.2 890.8,980.5 948.3,1000.6 1006.8,1019.2 1066.1,1036.5 1126.3,1052.3 1187.2,1066.6 1248.7,1079.5 1310.8,1090.8 1373.3,1100.6 1436.2,1108.9 1499.4,1115.6 1562.7,1120.7 1626.1,1124.3 1689.5,1126.3 1752.7,1126.7 1815.8,1125.5 1878.6,1122.8 1941.0,1118.4 2003.0,1112.5 2064.4,1105.1 2125.1,1096.1 2185.0,1085.7 2244.1,1073.7 2302.3,1060.2 2359.4,1045.3 2415.3,1029.1 2470.1,1011.4 2523.5,992.4 2575.5,972.0 2626.0,950.5 2674.8,927.7  Z" style="stroke-width: 0.0;  fill: rgb(102,102,0);" />
<path d="M 2759.925,1153.136 A 1306.800,1306.800 0.00 0,1 2800.3,1369.8 L 2800.3,1369.8 2748.9,1374.0 2696.7,1376.3 2643.7,1376.9 2590.0,1375.5 2536.0,1372.2 2481.5,1366.9 2426.9,1359.7 2372.2,1350.4 2317.5,1339.2 2263.0,1325.9 2208.7,1310.7 2154.9,1293.4 2101.5,1274.1 2048.8,1252.9 1996.7,1229.7 1945.5,1204.6 1895.1,1177.6 1845.8,1148.8 1797.5,1118.1 1750.3,1085.7 1704.4,1051.5 1659.8,1015.7 1616.6,978.4 1574.9,939.5 1534.6,899.2 1495.9,857.5 1458.9,814.6 1423.5,770.4 1389.9,725.2 1358.0,679.0 1327.9,632.0 1299.8,584.2 1273.5,535.8 1249.1,486.8 1226.6,437.5 1206.2,387.9 1187.7,338.2 1171.3,288.5 1156.8,239.1  A 1306.800,1306.800 0.00 0,0 949.8,314.6 L 949.8,314.6 972.4,361.0 997.0,407.2 1023.5,453.1 1052.0,498.5 1082.4,543.4 1114.7,587.5 1148.7,630.9 1184.5,673.2 1222.1,714.6 1261.2,754.7 1302.0,793.7 1344.3,831.2 1388.0,867.3 1433.2,901.9 1479.6,934.9 1527.3,966.2 1576.2,995.8 1626.2,1023.6 1677.2,1049.5 1729.1,1073.5 1781.8,1095.7 1835.3,1115.8 1889.5,1134.0 1944.2,1150.1 1999.4,1164.2 2055.0,1176.3 2110.8,1186.3 2166.8,1194.3 2222.9,1200.2 2278.8,1204.1 2334.6,1206.0 2390.1,1205.9 2445.2,1203.9 2499.7,1199.9 2553.6,1194.1 2606.7,1186.5 2658.9,1177.0 2710.0,1165.9 2759.9,1153.1  Z" style="stroke-width: 0.0;  fill: rgb(102,102,0);" />
<path d="M 2803.557,1407.992 A 1306.800,1306.800 0.00 0,1 2803.7,1589.3 L 2803.7,1589.3 2751.2,1586.7 2697.7,1585.8 2643.5,1586.8 2588.5,1589.6 2532.9,1594.4 2476.9,1601.0 2420.6,1609.5 2364.0,1619.9 2307.3,1632.2 2250.7,1646.3 2194.1,1662.4 2137.7,1680.3 2081.7,1700.1 2026.1,1721.7 1970.9,1745.1 1916.4,1770.3 1862.5,1797.3 1809.5,1825.9 1757.3,1856.2 1706.0,1888.1 1655.8,1921.6 1606.7,1956.5 1558.8,1993.0 1512.1,2030.8 1466.8,2069.9 1422.8,2110.3 1380.3,2151.9 1339.4,2194.5 1300.0,2238.2 1262.2,2282.8 1226.2,2328.2 1191.9,2374.4 1159.4,2421.2 1128.8,2468.5 1100.0,2516.3 1073.2,2564.4 1048.3,2612.6 1025.5,2661.0 1004.7,2709.3  A 1306.800,1306.800 0.00 0,0 1176.9,2766.2 L 1176.9,2766.2 1190.8,2715.5 1206.7,2664.4 1224.6,2613.2 1244.5,2561.9 1266.4,2510.6 1290.2,2459.5 1315.9,2408.6 1343.5,2358.1 1372.9,2308.1 1404.1,2258.8 1437.1,2210.1 1471.7,2162.1 1508.0,2115.1 1546.0,2069.0 1585.5,2024.0 1626.5,1980.1 1668.9,1937.4 1712.7,1895.9 1757.8,1855.8 1804.1,1817.1 1851.6,1779.9 1900.2,1744.2 1949.8,1710.1 2000.3,1677.6 2051.7,1646.8 2103.8,1617.7 2156.6,1590.3 2209.9,1564.8 2263.7,1541.0 2317.9,1519.1 2372.3,1499.1 2426.9,1481.0 2481.5,1464.8 2536.0,1450.5 2590.4,1438.1 2644.5,1427.7 2698.1,1419.2 2751.2,1412.6 2803.6,1408.0  Z" style="stroke-width: 0.0;  fill: rgb(153,153,30);" />
<path d="M 2803.743,1589.329 A 1306.800,1306.800 0.00 0,1 2776.9,1778.0 L 2776.9,1778.0 2722.6,1767.0 2667.0,1757.5 2610.2,1749.4 2552.2,1742.7 2493.1,1737.4 2433.1,1733.5 2372.1,1731.1 2310.4,1730.0 2248.0,1730.3 2184.9,1731.9 2121.3,1735.0 2057.3,1739.3 1992.9,1745.0 1928.2,1752.1 1863.3,1760.4 1798.3,1770.0 1733.2,1781.0 1668.3,1793.1 1603.5,1806.6 1538.9,1821.2 1474.6,1837.0 1410.8,1854.1 1347.4,1872.3 1284.6,1891.6 1222.5,1912.1 1161.1,1933.7 1100.5,1956.3 1040.8,1980.0 982.1,2004.7 924.5,2030.4 868.0,2057.0 812.8,2084.7 758.9,2113.2 706.4,2142.6 655.4,2172.8 606.0,2203.8 558.2,2235.7 512.1,2268.3 467.9,2301.6  A 1306.800,1306.800 0.00 0,0 595.4,2443.1 L 595.4,2443.1 634.4,2403.7 675.2,2364.8 717.8,2326.4 762.2,2288.4 808.3,2251.1 856.0,2214.4 905.1,2178.4 955.8,2143.0 1007.7,2108.4 1061.0,2074.6 1115.5,2041.6 1171.1,2009.5 1227.7,1978.3 1285.3,1948.1 1343.8,1918.8 1403.2,1890.5 1463.2,1863.3 1523.9,1837.2 1585.2,1812.1 1646.9,1788.3 1709.1,1765.6 1771.6,1744.1 1834.4,1723.8 1897.3,1704.8 1960.3,1687.1 2023.2,1670.8 2086.1,1655.8 2148.9,1642.1 2211.4,1629.9 2273.5,1619.1 2335.2,1609.7 2396.5,1601.8 2457.1,1595.4 2517.1,1590.5 2576.3,1587.1 2634.6,1585.3 2692.0,1585.0 2748.4,1586.4 2803.7,1589.3  Z" style="stroke-width: 0.0;  fill: rgb(153,153,30);" />
<path d="M 2776.898,1777.951 A 1306.800,1306.800 0.00 0,1 2714.0,1983.6 L 2714.0,1983.6 2659.4,1962.5 2603.4,1942.3 2546.1,1922.9 2487.5,1904.2 2427.7,1886.2 2366.8,1868.8 2304.9,1852.1 2242.0,1836.1 2178.2,1820.6 2113.6,1805.7 2048.2,1791.3 1982.2,1777.4 1915.6,1764.1 1848.5,1751.3 1780.9,1739.0 1712.9,1727.2 1644.7,1715.9 1576.1,1705.1 1507.4,1694.8 1438.6,1685.1 1369.7,1675.8 1300.9,1667.1 1232.2,1658.9 1163.6,1651.3 1095.3,1644.2 1027.2,1637.8 959.5,1632.1 892.3,1626.9 825.5,1622.5 759.3,1618.9 693.8,1616.0 628.9,1613.9 564.8,1612.6 501.5,1612.3 439.0,1612.9 377.5,1614.6 317.0,1617.2 257.6,1621.1 199.3,1626.0  A 1306.800,1306.800 0.00 0,0 237.6,1837.6 L 237.6,1837.6 294.3,1823.1 352.3,1809.6 411.5,1797.1 471.9,1785.4 533.4,1774.5 595.9,1764.5 659.4,1755.2 723.7,1746.6 788.9,1738.7 854.8,1731.5 921.3,1724.9 988.5,1718.9 1056.2,1713.5 1124.4,1708.7 1193.0,1704.4 1261.8,1700.7 1331.0,1697.5 1400.3,1694.8 1469.8,1692.6 1539.3,1691.0 1608.7,1689.9 1678.1,1689.3 1747.3,1689.2 1816.3,1689.7 1885.0,1690.8 1953.3,1692.4 2021.2,1694.6 2088.6,1697.4 2155.4,1700.9 2221.6,1705.0 2287.0,1709.9 2351.7,1715.4 2415.5,1721.7 2478.4,1728.8 2540.4,1736.8 2601.3,1745.6 2661.0,1755.4 2719.6,1766.2 2776.9,1778.0  Z" style="stroke-width: 0.0;  fill: rgb(153,153,30);" />
<path d="M 2714.041,1983.561 A 1306.800,1306.800 0.00 0,1 2603.0,2200.9 L 2603.0,2200.9 2550.9,2168.3 2497.8,2136.1 2443.5,2104.0 2388.3,2072.1 2332.2,2040.2 2275.3,2008.4 2217.6,1976.5 2159.3,1944.6 2100.4,1912.6 2041.0,1880.5 1981.1,1848.3 1920.9,1815.9 1860.3,1783.3 1799.5,1750.6 1738.5,1717.6 1677.4,1684.5 1616.1,1651.2 1554.8,1617.7 1493.6,1584.0 1432.3,1550.2 1371.2,1516.3 1310.2,1482.3 1249.4,1448.2 1188.7,1414.1 1128.4,1380.1 1068.2,1346.1 1008.4,1312.2 948.9,1278.4 889.7,1245.0 830.9,1211.8 772.4,1179.0 714.4,1146.6 656.7,1114.8 599.4,1083.6 542.6,1053.1 486.1,1023.4 430.1,994.6 374.4,966.8 319.2,940.1  A 1306.800,1306.800 0.00 0,0 235.7,1169.4 L 235.7,1169.4 294.9,1185.4 354.8,1202.4 415.2,1220.2 476.2,1238.9 537.7,1258.3 599.8,1278.3 662.4,1298.9 725.4,1319.9 789.0,1341.2 852.9,1362.9 917.3,1384.8 982.1,1406.8 1047.1,1429.0 1112.5,1451.3 1178.2,1473.5 1244.1,1495.7 1310.2,1517.9 1376.5,1540.0 1442.8,1561.9 1509.3,1583.8 1575.8,1605.4 1642.2,1627.0 1708.6,1648.3 1774.8,1669.5 1840.9,1690.5 1906.7,1711.4 1972.3,1732.1 2037.5,1752.8 2102.3,1773.3 2166.7,1793.8 2230.5,1814.3 2293.7,1834.8 2356.3,1855.3 2418.1,1876.0 2479.2,1896.9 2539.4,1918.0 2598.6,1939.5 2656.9,1961.3 2714.0,1983.6  Z" style="stroke-width: 0.0;  fill: rgb(153,153,30);" />
<path d="M 2602.956,2200.866 A 1306.800,1306.800 0.00 0,1 2458.4,2388.4 L 2458.4,2388.4 2414.4,2346.9 2370.4,2304.1 2326.4,2260.0 2282.3,2214.8 2238.2,2168.6 2193.9,2121.3 2149.6,2073.2 2105.1,2024.3 2060.5,1974.7 2015.8,1924.4 1970.9,1873.5 1925.9,1822.1 1880.8,1770.3 1835.6,1718.1 1790.3,1665.6 1744.9,1612.9 1699.4,1559.9 1653.9,1506.8 1608.4,1453.5 1563.0,1400.2 1517.6,1346.9 1472.3,1293.6 1427.1,1240.4 1382.2,1187.3 1337.5,1134.2 1293.1,1081.4 1249.0,1028.6 1205.4,976.1 1162.2,923.8 1119.6,871.7 1077.6,819.8 1036.3,768.2 995.8,716.8 956.1,665.7 917.4,614.8 879.7,564.2 843.1,513.7 807.8,463.6 773.7,413.6  A 1306.800,1306.800 0.00 0,0 589.6,562.5 L 589.6,562.5 632.1,605.5 675.9,648.5 721.0,691.5 767.2,734.5 814.5,777.5 862.7,820.7 911.9,863.9 961.8,907.2 1012.5,950.7 1063.8,994.2 1115.7,1037.9 1168.1,1081.7 1220.9,1125.6 1274.1,1169.6 1327.7,1213.7 1381.5,1257.8 1435.5,1302.0 1489.7,1346.3 1543.9,1390.5 1598.3,1434.7 1652.6,1478.9 1706.9,1522.9 1761.2,1566.8 1815.4,1610.5 1869.4,1654.0 1923.3,1697.2 1977.1,1740.0 2030.6,1782.4 2083.9,1824.3 2137.0,1865.7 2189.8,1906.5 2242.4,1946.6 2294.7,1985.9 2346.7,2024.4 2398.5,2061.9 2450.0,2098.4 2501.2,2133.8 2552.2,2168.0 2603.0,2200.9  Z" style="stroke-width: 0.0;  fill: rgb(153,153,30);" />
<path d="M 2458.375,2388.394 A 1306.800,1306.800 0.00 0,1 2321.4,2516.4 L 2321.4,2516.4 2285.6,2470.9 2250.2,2423.8 2215.2,2375.2 2180.7,2325.0 2146.5,2273.4 2112.8,2220.5 2079.5,2166.3 2046.6,2111.0 2014.1,2054.6 1982.0,1997.1 1950.4,1938.7 1919.2,1879.4 1888.5,1819.4 1858.3,1758.6 1828.5,1697.2 1799.3,1635.2 1770.6,1572.7 1742.5,1509.7 1714.9,1446.4 1687.9,1382.8 1661.6,1319.0 1636.0,1255.0 1611.0,1190.9 1586.8,1126.8 1563.3,1062.7 1540.7,998.7 1518.8,934.9 1497.9,871.2 1478.0,807.9 1459.0,744.9 1441.0,682.3 1424.1,620.2 1408.4,558.6 1393.8,497.6 1380.5,437.2 1368.4,377.4 1357.8,318.5 1348.5,260.3 1340.8,202.9  A 1306.800,1306.800 0.00 0,0 1156.8,239.1 L 1156.8,239.1 1172.7,294.7 1190.2,351.0 1209.2,407.8 1229.6,465.2 1251.4,523.1 1274.6,581.4 1299.0,640.1 1324.6,699.2 1351.3,758.6 1379.2,818.2 1408.0,878.0 1437.8,938.0 1468.5,998.0 1500.1,1058.1 1532.5,1118.2 1565.6,1178.2 1599.5,1238.1 1634.1,1297.7 1669.2,1357.1 1705.0,1416.2 1741.4,1474.9 1778.2,1533.2 1815.6,1591.0 1853.4,1648.1 1891.6,1704.7 1930.2,1760.5 1969.2,1815.6 2008.5,1869.8 2048.2,1923.0 2088.1,1975.3 2128.4,2026.5 2168.8,2076.6 2209.6,2125.4 2250.5,2172.9 2291.7,2219.1 2333.1,2263.8 2374.7,2307.0 2416.4,2348.5 2458.4,2388.4  Z" style="stroke-width: 0.0;  fill: rgb(153,153,30);" />
<path d="M 2291.210,2540.054 A 1306.800,1306.800 0.00 0,1 2202.8,2601.7 L 2202.8,2601.7 2176.6,2562.0 2149.0,2523.1 2120.1,2485.1 2090.0,2448.3 2058.7,2412.9 2026.5,2379.0 1993.2,2347.0 1959.1,2316.9 1924.3,2289.0 1888.7,2263.3 1852.5,2239.9 1815.7,2219.1 1778.6,2200.9 1741.0,2185.4 1703.2,2172.7 1665.1,2162.8 1627.0,2155.8 1588.7,2151.7 1550.5,2150.6 1512.4,2152.4 1474.5,2157.2 1436.9,2165.0 1399.6,2175.6 1362.6,2189.1 1326.2,2205.4 1290.3,2224.5 1255.1,2246.2 1220.5,2270.5 1186.8,2297.2 1153.8,2326.2 1121.8,2357.4 1090.8,2390.6 1060.8,2425.7 1031.9,2462.5 1004.2,2500.8 977.8,2540.3 952.7,2580.9 929.0,2622.3 906.7,2664.4  A 1306.800,1306.800 0.00 0,0 1004.7,2709.3 L 1004.7,2709.3 1023.4,2665.6 1043.6,2622.3 1065.3,2579.8 1088.4,2538.2 1112.8,2497.8 1138.6,2458.8 1165.6,2421.3 1193.7,2385.7 1223.1,2351.9 1253.5,2320.3 1285.0,2290.9 1317.4,2263.9 1350.7,2239.3 1384.9,2217.4 1419.9,2198.1 1455.6,2181.6 1491.9,2167.9 1528.8,2157.1 1566.2,2149.2 1604.0,2144.2 1642.1,2142.2 1680.6,2143.1 1719.2,2146.9 1757.9,2153.6 1796.7,2163.2 1835.4,2175.6 1873.9,2190.6 1912.3,2208.4 1950.2,2228.6 1987.8,2251.3 2024.9,2276.3 2061.4,2303.5 2097.1,2332.7 2132.1,2363.7 2166.1,2396.4 2199.2,2430.6 2231.1,2466.1 2261.8,2502.7 2291.2,2540.1  Z" style="stroke-width: 0.0;  fill: rgb(204,0,0);" />
<path d="M 2202.808,2601.720 A 1306.800,1306.800 0.00 0,1 2109.6,2655.9 L 2109.6,2655.9 2085.6,2612.2 2059.6,2568.9 2031.8,2526.3 2002.2,2484.4 1970.9,2443.4 1937.9,2403.6 1903.3,2365.0 1867.2,2327.8 1829.5,2292.1 1790.4,2258.1 1750.0,2225.9 1708.2,2195.5 1665.2,2167.0 1621.1,2140.6 1575.9,2116.3 1529.7,2094.3 1482.5,2074.4 1434.5,2056.9 1385.8,2041.7 1336.4,2028.9 1286.5,2018.5 1236.0,2010.5 1185.2,2004.9 1134.1,2001.7 1082.8,2001.0 1031.4,2002.6 980.0,2006.5 928.7,2012.8 877.7,2021.3 827.0,2032.1 776.7,2044.9 727.0,2059.8 678.0,2076.7 629.8,2095.5 582.6,2116.1 536.4,2138.3 491.3,2162.1 447.6,2187.3 405.4,2213.8  A 1306.800,1306.800 0.00 0,0 467.9,2301.6 L 467.9,2301.6 507.8,2271.7 549.3,2243.0 592.3,2215.6 636.5,2189.6 681.9,2165.2 728.4,2142.5 775.8,2121.6 824.1,2102.7 873.1,2085.7 922.7,2070.8 972.9,2058.1 1023.5,2047.7 1074.4,2039.5 1125.5,2033.6 1176.7,2030.2 1227.9,2029.1 1279.0,2030.5 1329.9,2034.3 1380.6,2040.6 1430.9,2049.3 1480.7,2060.4 1529.9,2073.9 1578.5,2089.8 1626.4,2108.0 1673.5,2128.5 1719.6,2151.1 1764.8,2175.9 1808.9,2202.8 1851.9,2231.6 1893.7,2262.3 1934.2,2294.7 1973.3,2328.8 2010.9,2364.4 2047.1,2401.4 2081.6,2439.6 2114.6,2478.9 2145.8,2519.2 2175.2,2560.2 2202.8,2601.7  Z" style="stroke-width: 0.0;  fill: rgb(204,0,0);" />
<path d="M 2109.625,2655.891 A 1306.800,1306.800 0.00 0,1 2019.3,2699.2 L 2019.3,2699.2 1997.4,2650.8 1973.4,2602.4 1947.4,2554.1 1919.5,2506.0 1889.6,2458.1 1857.9,2410.6 1824.3,2363.6 1789.0,2317.1 1752.0,2271.3 1713.2,2226.3 1672.9,2182.1 1631.1,2138.9 1587.7,2096.6 1542.9,2055.5 1496.8,2015.4 1449.4,1976.6 1400.7,1939.1 1350.9,1903.0 1300.1,1868.2 1248.2,1834.9 1195.5,1803.1 1141.9,1772.8 1087.5,1744.2 1032.5,1717.2 977.0,1691.8 920.9,1668.2 864.4,1646.4 807.7,1626.3 750.8,1607.9 693.7,1591.4 636.7,1576.8 579.8,1564.0 523.0,1553.0 466.7,1543.9 410.7,1536.6 355.3,1531.2 300.5,1527.7 246.5,1526.0 193.5,1526.1  A 1306.800,1306.800 0.00 0,0 199.3,1626.0 L 199.3,1626.0 252.2,1621.8 306.2,1619.4 361.0,1618.7 416.7,1619.9 473.0,1622.8 530.0,1627.6 587.4,1634.2 645.1,1642.6 703.1,1652.9 761.2,1665.0 819.4,1678.9 877.5,1694.6 935.5,1712.1 993.2,1731.3 1050.5,1752.3 1107.4,1775.0 1163.8,1799.4 1219.6,1825.5 1274.6,1853.2 1328.9,1882.4 1382.2,1913.2 1434.6,1945.4 1486.0,1979.1 1536.3,2014.2 1585.3,2050.5 1633.1,2088.2 1679.6,2127.0 1724.6,2166.9 1768.2,2207.9 1810.3,2249.8 1850.7,2292.6 1889.5,2336.2 1926.6,2380.5 1961.8,2425.4 1995.3,2470.9 2026.8,2516.8 2056.4,2563.0 2084.0,2609.4 2109.6,2655.9  Z" style="stroke-width: 0.0;  fill: rgb(204,0,0);" />
<path d="M 2019.345,2699.169 A 1306.800,1306.800 0.00 0,1 1886.6,2748.3 L 1886.6,2748.3 1869.1,2694.5 1849.9,2640.1 1828.9,2585.4 1806.3,2530.1 1782.0,2474.6 1756.3,2418.7 1729.0,2362.7 1700.3,2306.4 1670.3,2250.1 1638.9,2193.6 1606.3,2137.2 1572.4,2080.9 1537.4,2024.6 1501.3,1968.6 1464.2,1912.8 1426.1,1857.3 1387.0,1802.2 1347.0,1747.5 1306.2,1693.4 1264.6,1639.8 1222.2,1586.8 1179.2,1534.5 1135.5,1483.0 1091.2,1432.3 1046.4,1382.4 1001.1,1333.6 955.3,1285.7 909.1,1238.9 862.5,1193.3 815.7,1148.9 768.5,1105.8 721.1,1064.1 673.6,1023.8 625.9,985.0 578.1,947.7 530.2,912.1 482.3,878.2 434.5,846.0 386.7,815.7  A 1306.800,1306.800 0.00 0,0 319.2,940.1 L 319.2,940.1 370.0,965.1 421.0,991.8 472.3,1020.4 523.7,1050.6 575.3,1082.5 626.9,1115.9 678.6,1150.9 730.2,1187.2 781.7,1225.0 833.1,1264.1 884.3,1304.4 935.3,1345.9 986.0,1388.5 1036.3,1432.2 1086.3,1476.9 1135.8,1522.5 1184.8,1569.0 1233.2,1616.3 1281.1,1664.4 1328.2,1713.2 1374.7,1762.6 1420.3,1812.7 1465.1,1863.2 1509.0,1914.3 1552.0,1965.7 1593.9,2017.5 1634.8,2069.6 1674.6,2122.0 1713.1,2174.5 1750.4,2227.2 1786.4,2280.0 1821.0,2332.8 1854.1,2385.7 1885.8,2438.4 1915.9,2491.0 1944.3,2543.4 1971.1,2595.6 1996.1,2647.6 2019.3,2699.2  Z" style="stroke-width: 0.0;  fill: rgb(204,0,0);" />
<path d="M 1886.635,2748.295 A 1306.800,1306.800 0.00 0,1 1772.7,2778.0 L 1772.7,2778.0 1759.6,2719.5 1745.3,2660.2 1729.9,2600.2 1713.5,2539.6 1696.0,2478.4 1677.7,2416.7 1658.7,2354.3 1638.8,2291.5 1618.4,2228.2 1597.3,2164.4 1575.7,2100.3 1553.6,2035.8 1531.1,1971.0 1508.2,1905.9 1485.0,1840.6 1461.6,1775.1 1437.8,1709.5 1413.9,1643.9 1389.7,1578.2 1365.4,1512.5 1340.9,1446.9 1316.3,1381.5 1291.6,1316.3 1266.8,1251.3 1241.9,1186.6 1216.8,1122.4 1191.7,1058.5 1166.4,995.2 1141.0,932.5 1115.5,870.4 1089.8,809.0 1063.9,748.4 1037.8,688.7 1011.5,629.9 984.8,572.1 957.8,515.4 930.5,459.9 902.7,405.6 874.5,352.6  A 1306.800,1306.800 0.00 0,0 773.7,413.6 L 773.7,413.6 806.6,463.8 839.2,515.4 871.4,568.2 903.4,622.2 935.1,677.4 966.7,733.6 998.0,790.7 1029.3,848.7 1060.4,907.5 1091.4,967.1 1122.4,1027.3 1153.2,1088.1 1184.0,1149.4 1214.7,1211.1 1245.4,1273.3 1275.9,1335.8 1306.4,1398.5 1336.8,1461.5 1367.1,1524.6 1397.2,1587.8 1427.2,1651.0 1456.9,1714.3 1486.5,1777.5 1515.8,1840.6 1544.7,1903.5 1573.4,1966.3 1601.6,2028.8 1629.4,2091.0 1656.7,2153.0 1683.4,2214.6 1709.5,2275.8 1734.9,2336.6 1759.5,2396.9 1783.3,2456.8 1806.2,2516.2 1828.0,2575.1 1848.8,2633.4 1868.3,2691.1 1886.6,2748.3  Z" style="stroke-width: 0.0;  fill: rgb(204,0,0);" />
<path d="M 1772.700,2778.030 A 1306.800,1306.800 0.00 0,1 1653.1,2797.8 L 1653.1,2797.8 1646.3,2736.6 1640.2,2674.4 1634.7,2611.4 1629.7,2547.6 1625.0,2483.1 1620.7,2417.9 1616.7,2352.0 1612.8,2285.6 1609.1,2218.6 1605.4,2151.1 1601.7,2083.2 1597.9,2014.9 1594.1,1946.3 1590.1,1877.3 1586.0,1808.2 1581.8,1738.8 1577.3,1669.3 1572.6,1599.7 1567.7,1530.0 1562.6,1460.4 1557.2,1390.8 1551.7,1321.2 1545.9,1251.8 1540.0,1182.6 1534.0,1113.5 1527.8,1044.8 1521.5,976.3 1515.3,908.2 1509.0,840.5 1502.8,773.2 1496.7,706.4 1490.8,640.1 1485.2,574.3 1479.9,509.2 1475.0,444.7 1470.7,380.8 1466.9,317.7 1463.9,255.3 1461.6,193.8  A 1306.800,1306.800 0.00 0,0 1340.8,202.9 L 1340.8,202.9 1348.7,264.0 1357.5,325.9 1367.1,388.4 1377.4,451.5 1388.2,515.3 1399.5,579.7 1411.2,644.6 1423.2,710.1 1435.4,776.1 1447.8,842.5 1460.4,909.3 1472.9,976.6 1485.5,1044.2 1498.0,1112.1 1510.5,1180.2 1522.8,1248.6 1534.9,1317.2 1546.9,1385.9 1558.6,1454.8 1570.2,1523.6 1581.5,1592.5 1592.6,1661.4 1603.5,1730.2 1614.2,1798.9 1624.7,1867.4 1635.0,1935.6 1645.2,2003.6 1655.2,2071.3 1665.2,2138.5 1675.2,2205.4 1685.1,2271.7 1695.1,2337.5 1705.3,2402.7 1715.6,2467.3 1726.2,2531.1 1737.1,2594.1 1748.4,2656.4 1760.3,2717.7 1772.7,2778.0  Z" style="stroke-width: 0.0;  fill: rgb(204,0,0);" />
</g>
<defs>
<pattern id="hline-sparse" width="10" height="10" patternTransform="rotate(0 0 0)" patternUnits="userSpaceOnUse"><line x1="0" y1="0" x2="10" y2="0" style="stroke:black;stroke-width:2" /></pattern>
<pattern id="checker" width="10" height="10" patternTransform="rotate(45 0 0)" patternUnits="userSpaceOnUse"><line x1="0" y1="0" x2="10" y2="0" style="stroke:black;stroke-width:2" /><line x1="0" y1="0" x2="0" y2="10" style="stroke:black;stroke-width:2" /></pattern>
<pattern id="checker" width="10" height="10" patternTransform="rotate(45 0 0)" patternUnits="userSpaceOnUse"><line x1="0" y1="0" x2="10" y2="0" style="stroke:black;stroke-width:5" /><line x1="0" y1="0" x2="0" y2="10" style="stroke:black;stroke-width:4" /></pattern>
<pattern id="hline" width="10" height="10" patternTransform="rotate(0 0 0)" patternUnits="userSpaceOnUse"><line x1="0" y1="0" x2="10" y2="0" style="stroke:black;stroke-width:5" /></pattern>
<pattern id="vline-sparse" width="10" height="10" patternTransform="rotate(0 0 0)" patternUnits="userSpaceOnUse"><line x1="0" y1="0" x2="0" y2="10" style="stroke:black;stroke-width:2" /></pattern>
<pattern id="vline" width="10" height="10" patternTransform="rotate(0 0 0)" patternUnits="userSpaceOnUse"><line x1="0" y1="0" x2="0" y2="10" style="stroke:black;stroke-width:5" /></pattern>
</defs>
</svg>
